    <svg width="95" height="45" viewBox="0 0 95 48" fill="none" class="h-10 w-10" xmlns="http://www.w3.org/2000/svg">
<path d="M1.09384 14.0104C0.770883 17.3468 2.37702 25.8931 5.76354 30.5919C5.80913 30.6551 5.72202 30.7317 5.66694 30.6765C0.660334 25.6602 0.0204064 17.2372 0.000496279 13.4093C-9.98011e-05 13.2947 0.077079 13.1981 0.187828 13.1687L14.5642 9.34319C14.646 9.32141 14.7256 9.3875 14.7232 9.47215C14.5292 16.0799 15.2221 19.413 15.8651 20.8215C16.0373 21.1986 16.3926 21.043 16.381 20.6287C16.266 16.5423 17.3605 11.6555 18.3823 9.06919C18.5067 8.75424 18.3104 8.39783 17.9751 8.34982L6.9161 6.76584C6.67978 6.73199 6.45198 6.86802 6.36969 7.09212L5.09553 10.5622C5.07413 10.6205 4.99577 10.6156 4.98775 10.554C4.83161 9.35527 5.64376 7.13514 6.15249 5.98676C6.19629 5.8879 6.29865 5.83013 6.40623 5.841L20.723 7.28808C20.8157 7.29745 20.867 7.4003 20.8198 7.4806C18.908 10.7307 18.4157 15.222 18.4105 17.0904C19.4337 12.8105 23.1243 9.01681 24.5338 7.18316C24.722 6.93829 24.6209 6.59416 24.3391 6.46766L14.3734 1.99324C14.1711 1.9024 13.9332 1.954 13.7866 2.1205L11.2517 5.00106C11.6834 3.70601 13.1349 1.81576 13.9126 0.90527C13.9842 0.821446 14.1017 0.795851 14.2027 0.840012L27.432 6.62396C27.5191 6.66206 27.5334 6.78015 27.4597 6.84021C19.4843 13.3357 17.9908 23.0479 18.2432 27.4636C18.25 27.5828 18.1013 27.6433 18.0205 27.5552C12.6233 21.6723 13.1951 15.5518 12.8314 11.9135C12.8026 11.6249 12.5297 11.4323 12.2451 11.488L1.48467 13.5933C1.27632 13.634 1.11429 13.7991 1.09384 14.0104Z" fill="#1E1E1E"/>
<path d="M8.29456 23.4647C8.51531 23.6165 8.74854 23.6962 8.99424 23.7039C9.23995 23.7116 9.47065 23.6643 9.68636 23.5619C9.90206 23.4596 10.0901 23.3086 10.2504 23.109C10.4065 22.9094 10.5095 22.6782 10.5595 22.4154C10.5887 22.2629 10.6029 22.0743 10.6022 21.8498C10.6057 21.6211 10.5944 21.3797 10.5682 21.1256C10.5419 20.8673 10.5051 20.6027 10.4576 20.3317C10.4059 20.0608 10.3458 19.8026 10.2772 19.5571C10.2045 19.3117 10.1233 19.0917 10.0337 18.8971C9.93988 18.6983 9.83984 18.5419 9.73358 18.4279C9.63158 18.3223 9.50005 18.2528 9.33898 18.2194C9.17367 18.1861 9.00847 18.1845 8.84336 18.2147C8.67826 18.2448 8.53019 18.3046 8.39917 18.394C8.2639 18.4834 8.17743 18.598 8.13975 18.7379C8.12718 18.7803 8.12951 18.846 8.14673 18.9349C8.16396 19.0238 8.18758 19.1275 8.21761 19.246C8.24763 19.3602 8.28402 19.4809 8.32678 19.6078C8.36529 19.7305 8.4038 19.8511 8.4423 19.9696C8.48078 20.0838 8.51499 20.1854 8.54493 20.2743C8.57486 20.3631 8.59413 20.4287 8.60274 20.471C8.61565 20.5345 8.63709 20.6192 8.66708 20.725C8.69706 20.8266 8.72706 20.9387 8.75711 21.0615C8.78713 21.18 8.81293 21.2985 8.83448 21.417C8.8518 21.5356 8.86061 21.6414 8.86091 21.7346C8.85697 21.8278 8.84025 21.8999 8.81076 21.9508C8.77704 22.0018 8.71991 22.0189 8.63937 22.0022C8.59275 21.9939 8.55027 21.9559 8.51193 21.8882C8.46935 21.8164 8.43306 21.7275 8.40307 21.6217C8.36885 21.5159 8.33671 21.3995 8.30665 21.2726C8.27659 21.1413 8.24864 21.0122 8.22282 20.8852C8.19277 20.7583 8.16274 20.6398 8.13274 20.5297C8.10274 20.4197 8.06856 20.3287 8.03021 20.2568C8.00039 20.2019 7.94941 20.1554 7.87728 20.1175C7.80513 20.0754 7.72667 20.046 7.6419 20.0293C7.55713 20.0127 7.4724 20.0066 7.38769 20.0111C7.30299 20.0156 7.23528 20.0349 7.18455 20.0689C7.12115 20.1115 7.07056 20.1858 7.03277 20.2918C6.99074 20.3936 6.9551 20.5102 6.92587 20.6416C6.89663 20.773 6.86954 20.9107 6.84458 21.0548C6.81961 21.1947 6.79249 21.324 6.76321 21.4427C6.73393 21.5571 6.69823 21.6526 6.65611 21.7289C6.61398 21.8011 6.55903 21.8373 6.49125 21.8375C6.41924 21.8377 6.37254 21.804 6.35115 21.7363C6.3255 21.6643 6.31674 21.5733 6.32486 21.4631C6.33297 21.3487 6.35376 21.2237 6.38721 21.088C6.41642 20.9482 6.44775 20.8104 6.4812 20.6748C6.51465 20.5349 6.54631 20.5009 6.57558 20.3822C6.60484 20.2592 6.62147 20.1596 6.62546 20.0834C6.63337 19.9055 6.59689 19.7552 6.51601 19.6326C6.43513 19.5058 6.32893 19.4108 6.19742 19.3477C6.0659 19.2846 5.91968 19.2575 5.75874 19.2665C5.59356 19.2713 5.43273 19.3141 5.27626 19.3951C5.179 19.4462 5.09457 19.5376 5.02298 19.6691C4.95137 19.7964 4.89256 19.9512 4.84655 20.1335C4.80052 20.3116 4.76907 20.4133 4.75282 20.6294C4.73656 20.8455 4.73726 21.0658 4.75492 21.2902C4.77258 21.5147 4.80928 21.7348 4.86503 21.9507C4.92079 22.1665 4.99554 22.3632 5.08929 22.5408C5.23846 22.8284 5.4298 23.0544 5.66329 23.2189C5.89679 23.3833 6.14066 23.48 6.39491 23.5088C6.64915 23.5377 6.89681 23.4945 7.13789 23.3794C7.37896 23.26 7.58165 23.0603 7.74596 22.7802C7.82683 22.9028 7.90771 23.0275 7.98859 23.1543C8.06946 23.2769 8.17145 23.3803 8.29456 23.4647Z" fill="#1E1E1E"/>
<circle cx="11.2499" cy="22.9573" r="0.415787" transform="rotate(0.182131 11.2499 22.9573)" fill="#1E1E1E"/>
<path d="M39.9037 25L35.2237 8.8H38.4037L41.5437 20.44H41.6437L45.1637 8.8H47.8837L51.5837 20.44H51.6637L54.7837 8.8H57.9837L53.3237 25H50.2437L46.5437 13.06H46.4637L42.9637 25H39.9037ZM61.7031 25.22C60.3031 25.22 59.2031 24.88 58.4031 24.2C57.6164 23.52 57.2231 22.62 57.2231 21.5C57.2231 20.3267 57.6231 19.42 58.4231 18.78C59.2364 18.14 60.4031 17.82 61.9231 17.82H65.5831V17.34C65.5831 15.8733 64.7298 15.14 63.0231 15.14C61.5698 15.14 60.6964 15.66 60.4031 16.7H57.4231C57.6764 15.42 58.2831 14.4467 59.2431 13.78C60.2031 13.1 61.4631 12.76 63.0231 12.76C64.7831 12.76 66.1231 13.16 67.0431 13.96C67.9631 14.7467 68.4231 15.9 68.4231 17.42V22.02H69.8431V25H66.7831V23.08H65.9431C65.5298 23.76 64.9698 24.2867 64.2631 24.66C63.5698 25.0333 62.7164 25.22 61.7031 25.22ZM62.1431 22.92C62.7964 22.92 63.3831 22.8 63.9031 22.56C64.4231 22.3067 64.8298 21.9733 65.1231 21.56C65.4298 21.1333 65.5831 20.66 65.5831 20.14V19.86H62.0831C60.7364 19.86 60.0631 20.36 60.0631 21.36C60.0631 21.8533 60.2431 22.24 60.6031 22.52C60.9764 22.7867 61.4898 22.92 62.1431 22.92ZM70.6987 25V23.16L77.2587 15.38H71.0587V13H80.9787V14.84L74.4187 22.62H81.0987V25H70.6987ZM87.999 25.24C86.7057 25.24 85.579 24.9867 84.619 24.48C83.6724 23.96 82.9324 23.2333 82.399 22.3C81.879 21.3667 81.619 20.2667 81.619 19C81.619 17.72 81.879 16.6133 82.399 15.68C82.9324 14.7467 83.679 14.0267 84.639 13.52C85.599 13.0133 86.719 12.76 87.999 12.76C89.3057 12.76 90.4257 13.0133 91.359 13.52C92.3057 14.0267 93.039 14.7467 93.559 15.68C94.079 16.6133 94.339 17.72 94.339 19C94.339 20.2667 94.079 21.3733 93.559 22.32C93.039 23.2533 92.3057 23.9733 91.359 24.48C90.4124 24.9867 89.2924 25.24 87.999 25.24ZM87.999 22.64C89.0657 22.64 89.8924 22.32 90.479 21.68C91.0657 21.0267 91.359 20.1333 91.359 19C91.359 17.8533 91.0657 16.96 90.479 16.32C89.8924 15.68 89.0657 15.36 87.999 15.36C86.919 15.36 86.079 15.68 85.479 16.32C84.8924 16.96 84.599 17.8467 84.599 18.98C84.599 20.1267 84.8924 21.0267 85.479 21.68C86.079 22.32 86.919 22.64 87.999 22.64Z" fill="#1E1E1E"/>
</svg>
