<svg width="315" height="282" viewBox="0 0 315 282" fill="none" xmlns="http://www.w3.org/2000/svg">
<path opacity="0.05" d="M59.066 22.1399C26.1656 40.8986 6.98478 60.3169 2.17637 117.846C-1.8801 166.326 0.494419 262.54 57.5225 277.803C168.505 307.505 263.38 297.327 291.617 221.171C317.869 150.364 315.264 65.8179 256.257 29.0524C211.86 1.39578 123.323 -14.4937 59.066 22.1399Z" fill="url(#paint0_linear_124_1876)"/>
<path d="M315 147.673L253.896 157.25V174.723L177.555 214.912V188.258L36.2838 260.08L40.5184 277.81L145.934 228.954L142.524 262.62L253.896 205.598V227.609L315 147.673Z" fill="#656565"/>
<path opacity="0.08" d="M211.194 178.436C230.461 178.436 246.079 162.817 246.079 143.55C246.079 124.284 230.461 108.665 211.194 108.665C191.927 108.665 176.308 124.284 176.308 143.55C176.308 162.817 191.927 178.436 211.194 178.436Z" fill="#000001"/>
<path d="M211.194 178.436C230.461 178.436 246.079 162.817 246.079 143.55C246.079 124.284 230.461 108.665 211.194 108.665C191.927 108.665 176.308 124.284 176.308 143.55C176.308 162.817 191.927 178.436 211.194 178.436Z" fill="#1E1E1E"/>
<g opacity="0.08">
<path d="M210.092 171.181C229.359 171.181 244.978 155.562 244.978 136.295C244.978 117.028 229.359 101.409 210.092 101.409C190.825 101.409 175.207 117.028 175.207 136.295C175.207 155.562 190.825 171.181 210.092 171.181Z" fill="#000001"/>
</g>
<path opacity="0.08" d="M211.194 178.436C230.461 178.436 246.079 162.817 246.079 143.55C246.079 124.284 230.461 108.665 211.194 108.665C191.927 108.665 176.308 124.284 176.308 143.55C176.308 162.817 191.927 178.436 211.194 178.436Z" fill="#000001"/>
<path d="M210.092 171.181C229.359 171.181 244.978 155.562 244.978 136.295C244.978 117.028 229.359 101.409 210.092 101.409C190.825 101.409 175.207 117.028 175.207 136.295C175.207 155.562 190.825 171.181 210.092 171.181Z" fill="#1E1E1E"/>
<path d="M210.593 123.825C210.786 124.938 211.088 125.962 211.281 127.075C211.263 127.272 211.46 127.291 211.549 127.399C213.146 127.35 214.903 127.715 216.318 128.545C217.84 129.286 219.001 130.689 219.641 132.342C219.801 132.755 219.962 133.168 220.103 133.779L215.13 134.802C214.899 134.084 214.471 133.347 213.917 132.896C213.451 132.554 212.878 132.301 212.305 132.048L212.197 132.137L213.503 138.331L214.095 138.387C215.495 138.32 216.876 138.45 218.238 138.778C220.389 139.18 222.035 140.728 222.638 142.775C223.259 144.625 223.27 146.617 222.492 148.534C221.859 149.967 220.743 151.255 219.466 152.129C218.621 152.647 217.687 153.056 216.842 153.573L217.407 156.015L212.829 157.076L212.263 154.634C211.277 154.541 210.38 154.556 209.394 154.463C207.618 154.295 206.006 153.447 204.629 152.222C203.539 151.124 202.772 149.758 202.526 148.142L207.41 147.011C207.942 148.753 209.427 149.888 211.203 150.056L209.736 143.449C208.75 143.356 207.764 143.263 206.777 143.169C205.593 143.058 204.428 142.749 203.39 142.153C202.351 141.558 201.547 140.586 201.157 139.455C200.587 138.107 200.234 136.581 200.472 135.111C200.677 132.941 202.046 131.08 203.844 129.955C204.581 129.527 205.318 129.099 206.145 128.779L206.45 128.709L205.672 125.351L210.593 123.825ZM215.997 148.816C216.715 148.586 217.363 148.05 217.813 147.495C218.714 146.386 218.469 144.77 217.557 143.888C216.715 143.311 215.837 143.129 214.743 143.125L215.997 148.816ZM207.693 132.409C207.153 132.855 206.614 133.302 206.182 133.659C205.192 134.66 205.329 136.365 206.349 137.158C206.439 137.266 206.528 137.374 206.725 137.393C207.388 137.754 208.177 137.828 208.966 137.903L207.693 132.409Z" fill="#B0B0B0"/>
<path d="M169.508 162.712C167.397 159.255 167.107 154.975 168.663 151.248C168.868 150.766 168.446 150.179 167.984 150.054C167.423 149.902 166.995 150.245 166.79 150.733C165.056 154.909 165.478 159.842 167.832 163.694C168.485 164.756 170.161 163.787 169.508 162.718V162.712Z" fill="#484848"/>
<path d="M254.661 118.816C254.028 117.741 252.352 118.717 252.985 119.792C255.815 124.627 256.884 130.385 255.907 135.906C255.69 137.126 257.563 137.654 257.781 136.42C258.849 130.372 257.767 124.119 254.661 118.809V118.816Z" fill="#484848"/>
<path d="M250.248 111.679C250.169 111.428 250.017 111.25 249.8 111.099C248.896 110.472 247.986 109.845 247.082 109.225C246.884 109.087 246.561 109.067 246.337 109.127C246.112 109.186 245.868 109.364 245.756 109.575C245.638 109.799 245.578 110.07 245.657 110.32C245.737 110.571 245.888 110.749 246.106 110.901C247.01 111.527 247.92 112.154 248.823 112.774C249.021 112.913 249.344 112.932 249.569 112.873C249.793 112.814 250.037 112.636 250.149 112.424C250.268 112.2 250.327 111.93 250.248 111.679Z" fill="#484848"/>
<path opacity="0.08" d="M104.194 212.436C123.461 212.436 139.079 196.817 139.079 177.55C139.079 158.284 123.461 142.665 104.194 142.665C84.927 142.665 69.3081 158.284 69.3081 177.55C69.3081 196.817 84.927 212.436 104.194 212.436Z" fill="#000001"/>
<path d="M104.194 212.436C123.461 212.436 139.079 196.817 139.079 177.55C139.079 158.284 123.461 142.665 104.194 142.665C84.927 142.665 69.3081 158.284 69.3081 177.55C69.3081 196.817 84.927 212.436 104.194 212.436Z" fill="#1E1E1E"/>
<g opacity="0.08">
<path d="M103.092 205.181C122.359 205.181 137.978 189.562 137.978 170.295C137.978 151.028 122.359 135.409 103.092 135.409C83.8254 135.409 68.2065 151.028 68.2065 170.295C68.2065 189.562 83.8254 205.181 103.092 205.181Z" fill="#000001"/>
</g>
<path opacity="0.08" d="M104.194 212.436C123.461 212.436 139.079 196.817 139.079 177.55C139.079 158.284 123.461 142.665 104.194 142.665C84.927 142.665 69.3081 158.284 69.3081 177.55C69.3081 196.817 84.927 212.436 104.194 212.436Z" fill="#000001"/>
<path d="M103.092 205.181C122.359 205.181 137.978 189.562 137.978 170.295C137.978 151.028 122.359 135.409 103.092 135.409C83.8254 135.409 68.2065 151.028 68.2065 170.295C68.2065 189.562 83.8254 205.181 103.092 205.181Z" fill="#1E1E1E"/>
<path d="M102.343 157.075C102.536 158.188 102.838 159.212 103.031 160.325C103.013 160.522 103.21 160.541 103.299 160.649C104.896 160.6 106.653 160.965 108.068 161.795C109.59 162.536 110.751 163.939 111.391 165.592C111.551 166.005 111.712 166.418 111.853 167.029L106.88 168.052C106.649 167.334 106.221 166.597 105.667 166.146C105.201 165.804 104.628 165.551 104.055 165.298L103.947 165.387L105.253 171.581L105.845 171.637C107.245 171.57 108.626 171.7 109.988 172.028C112.139 172.43 113.785 173.978 114.388 176.025C115.009 177.875 115.02 179.867 114.242 181.784C113.609 183.217 112.493 184.505 111.216 185.379C110.371 185.897 109.437 186.306 108.592 186.823L109.157 189.265L104.579 190.326L104.013 187.884C103.027 187.791 102.13 187.806 101.144 187.713C99.368 187.545 97.7563 186.697 96.3791 185.472C95.2886 184.374 94.5218 183.008 94.2762 181.392L99.1598 180.261C99.692 182.003 101.177 183.138 102.953 183.306L101.486 176.699C100.5 176.606 99.5135 176.513 98.5271 176.419C97.3435 176.308 96.1784 175.999 95.1399 175.403C94.1014 174.808 93.2975 173.836 92.9067 172.705C92.3372 171.357 91.9836 169.831 92.2219 168.361C92.4267 166.191 93.7965 164.33 95.5944 163.205C96.3314 162.777 97.0684 162.349 97.8947 162.029L98.2 161.959L97.4221 158.601L102.343 157.075ZM107.747 182.066C108.465 181.836 109.113 181.3 109.563 180.745C110.464 179.636 110.219 178.02 109.307 177.138C108.465 176.561 107.587 176.379 106.493 176.375L107.747 182.066ZM99.4431 165.659C98.9033 166.105 98.3636 166.552 97.9318 166.909C96.9417 167.91 97.0794 169.615 98.0992 170.408C98.1886 170.516 98.2779 170.624 98.4752 170.643C99.1377 171.004 99.9268 171.078 100.716 171.153L99.4431 165.659Z" fill="#B0B0B0"/>
<path d="M62.5077 196.712C60.397 193.255 60.1068 188.975 61.6635 185.248C61.8679 184.766 61.4458 184.179 60.9841 184.054C60.4234 183.902 59.9947 184.245 59.7902 184.733C58.0555 188.909 58.4776 193.842 60.8324 197.694C61.4854 198.756 63.1607 197.787 62.5077 196.718V196.712Z" fill="#484848"/>
<path d="M147.661 152.816C147.028 151.741 145.352 152.717 145.985 153.792C148.815 158.627 149.884 164.385 148.907 169.906C148.69 171.126 150.563 171.654 150.781 170.42C151.849 164.372 150.767 158.119 147.661 152.809V152.816Z" fill="#484848"/>
<path d="M143.248 145.679C143.169 145.428 143.017 145.25 142.8 145.099C141.896 144.472 140.986 143.845 140.082 143.225C139.884 143.087 139.561 143.067 139.337 143.127C139.112 143.186 138.868 143.364 138.756 143.575C138.638 143.799 138.578 144.07 138.657 144.32C138.737 144.571 138.888 144.749 139.106 144.901C140.01 145.527 140.92 146.154 141.823 146.774C142.021 146.913 142.344 146.932 142.569 146.873C142.793 146.814 143.037 146.636 143.149 146.424C143.268 146.2 143.327 145.93 143.248 145.679Z" fill="#484848"/>
<path opacity="0.08" d="M139.819 109.858C156.295 109.858 169.652 96.501 169.652 80.0248C169.652 63.5487 156.295 50.1921 139.819 50.1921C123.343 50.1921 109.986 63.5487 109.986 80.0248C109.986 96.501 123.343 109.858 139.819 109.858Z" fill="#000001"/>
<path d="M139.819 109.858C156.295 109.858 169.652 96.501 169.652 80.0248C169.652 63.5487 156.295 50.1921 139.819 50.1921C123.343 50.1921 109.986 63.5487 109.986 80.0248C109.986 96.501 123.343 109.858 139.819 109.858Z" fill="#1E1E1E"/>
<g opacity="0.08">
<path d="M138.877 103.653C155.353 103.653 168.709 90.2964 168.709 73.8203C168.709 57.3441 155.353 43.9875 138.877 43.9875C122.401 43.9875 109.044 57.3441 109.044 73.8203C109.044 90.2964 122.401 103.653 138.877 103.653Z" fill="#000001"/>
</g>
<path opacity="0.08" d="M139.819 109.858C156.295 109.858 169.652 96.501 169.652 80.0248C169.652 63.5487 156.295 50.1921 139.819 50.1921C123.343 50.1921 109.986 63.5487 109.986 80.0248C109.986 96.501 123.343 109.858 139.819 109.858Z" fill="#000001"/>
<path d="M138.877 103.653C155.353 103.653 168.709 90.2964 168.709 73.8203C168.709 57.3441 155.353 43.9875 138.877 43.9875C122.401 43.9875 109.044 57.3441 109.044 73.8203C109.044 90.2964 122.401 103.653 138.877 103.653Z" fill="#1E1E1E"/>
<path d="M104.171 96.4106C102.366 93.455 102.118 89.7943 103.449 86.6074C103.624 86.1956 103.263 85.6936 102.868 85.5864C102.388 85.4567 102.022 85.75 101.847 86.1674C100.363 89.7379 100.724 93.957 102.738 97.251C103.296 98.1592 104.729 97.33 104.171 96.4162V96.4106Z" fill="#484848"/>
<path d="M176.99 58.873C176.448 57.9536 175.016 58.7884 175.557 59.7078C177.977 63.8423 178.891 68.7664 178.056 73.4875C177.87 74.531 179.472 74.9823 179.658 73.9275C180.571 68.7552 179.646 63.4079 176.99 58.8673V58.873Z" fill="#484848"/>
<path d="M173.216 52.7699C173.149 52.5556 173.019 52.4033 172.833 52.2736C172.06 51.7377 171.282 51.2019 170.509 50.6716C170.34 50.5532 170.063 50.5363 169.872 50.587C169.68 50.6378 169.471 50.7901 169.375 50.9706C169.274 51.1624 169.223 51.3936 169.291 51.608C169.358 51.8223 169.488 51.9746 169.674 52.1043C170.447 52.6402 171.225 53.176 171.998 53.7062C172.167 53.8247 172.444 53.8416 172.635 53.7909C172.827 53.7401 173.036 53.5878 173.132 53.4073C173.233 53.2155 173.284 52.9843 173.216 52.7699Z" fill="#484848"/>
<path d="M139.812 59.8252C140.005 60.9381 140.307 61.9617 140.5 63.0747C140.482 63.272 140.679 63.2906 140.768 63.3985C142.365 63.3502 144.122 63.715 145.537 64.5451C147.059 65.2859 148.22 66.6892 148.86 68.3419C149.02 68.755 149.181 69.1682 149.322 69.7787L144.349 70.8021C144.118 70.0837 143.69 69.3467 143.136 68.8963C142.67 68.5539 142.097 68.3007 141.524 68.0476L141.416 68.1369L142.722 74.3308L143.314 74.3866C144.714 74.3196 146.095 74.45 147.457 74.7776C149.608 75.1796 151.254 76.7281 151.857 78.7754C152.478 80.6253 152.489 82.6167 151.711 84.5336C151.078 85.9667 149.962 87.2545 148.685 88.1292C147.84 88.6466 146.906 89.056 146.061 89.5734L146.626 92.0152L142.048 93.0759L141.482 90.6341C140.496 90.541 139.599 90.5559 138.613 90.4628C136.837 90.2952 135.225 89.4465 133.848 88.2219C132.758 87.1238 131.991 85.7577 131.745 84.1423L136.629 83.0108C137.161 84.7528 138.646 85.8882 140.422 86.0557L138.955 79.4487C137.969 79.3556 136.983 79.2626 135.996 79.1695C134.812 79.0578 133.647 78.7488 132.609 78.1532C131.57 77.5576 130.766 76.5861 130.376 75.4545C129.806 74.1071 129.453 72.5809 129.691 71.1107C129.896 68.9406 131.265 67.0796 133.063 65.9555C133.8 65.5275 134.537 65.0994 135.364 64.7793L135.669 64.7086L134.891 61.3511L139.812 59.8252ZM145.216 84.8163C145.934 84.5856 146.582 84.0496 147.032 83.495C147.933 82.3858 147.688 80.7703 146.776 79.8882C145.934 79.3112 145.056 79.1288 143.962 79.125L145.216 84.8163ZM136.912 68.4085C136.372 68.8552 135.833 69.3018 135.401 69.6592C134.411 70.6604 134.548 72.3652 135.568 73.1581C135.658 73.266 135.747 73.374 135.944 73.3926C136.607 73.7536 137.396 73.8281 138.185 73.9026L136.912 68.4085Z" fill="#B0B0B0"/>
<defs>
<linearGradient id="paint0_linear_124_1876" x1="154.212" y1="0.755371" x2="154.212" y2="351" gradientUnits="userSpaceOnUse">
<stop stop-color="#E6E6E6"/>
<stop offset="1" stop-color="#808080"/>
</linearGradient>
</defs>
</svg>
