<svg width="229" height="198" viewBox="0 0 229 198" fill="none" xmlns="http://www.w3.org/2000/svg">
<path d="M227.394 20.653C227.394 20.653 225.321 16.7649 221.886 11.3865C221.886 11.3865 211.194 19.4218 211.259 18.9682C211.324 18.5146 227.394 20.653 227.394 20.653Z" fill="#231F20"/>
<path d="M227.394 21.1066C221.692 20.3938 212.49 19.2273 211.453 19.3569C211.194 19.4865 211.129 19.4217 211 19.3569C210.805 19.2273 210.741 19.0329 210.805 18.8385C210.805 18.7089 210.87 18.5793 211.129 18.5145C211.777 18.2553 217.869 13.7841 221.562 10.9976C221.692 10.9328 221.821 10.868 221.886 10.9328C222.016 10.9328 222.146 11.0625 222.21 11.1273C225.58 16.4409 227.718 20.329 227.718 20.3938C227.848 20.653 227.718 20.9122 227.459 20.977C227.524 21.0418 227.459 21.0418 227.394 21.1066ZM212.879 18.5145C214.888 18.6441 218.776 19.0329 226.552 20.0698C225.774 18.7089 224.09 15.7281 221.757 12.0345C216.897 15.6633 214.305 17.5425 212.879 18.5145Z" fill="#231F20"/>
<path d="M85.2863 182.396L79.9078 173.518L87.3599 166.779L85.2863 182.396Z" fill="#231F20"/>
<path d="M85.2863 182.849C85.1567 182.849 84.9623 182.785 84.8975 182.655L79.519 173.712C79.3894 173.518 79.4542 173.259 79.5838 173.129L86.9711 166.455C87.1655 166.26 87.4247 166.325 87.6191 166.455C87.6839 166.584 87.7487 166.714 87.7487 166.844L85.6751 182.461C85.6751 182.655 85.4807 182.785 85.2863 182.849ZM80.5558 173.583L85.0271 181.035L86.7767 167.945L80.5558 173.583Z" fill="#231F20"/>
<path d="M88.7855 184.275L174.971 196.587C178.599 197.041 182.099 194.837 183.135 191.273L227.718 24.4762C228.626 21.0417 226.422 17.9961 222.794 17.6721L134.924 10.544C131.36 10.3496 128.12 12.6824 127.083 16.1169L84.3143 177.406C83.4719 180.257 85.0271 183.238 87.8783 184.08C88.1375 184.21 88.4615 184.275 88.7855 184.275Z" fill="#262626"/>
<path d="M175.878 197.105C175.554 197.105 175.165 197.105 174.841 197.041L88.7208 184.729C87.036 184.534 85.5455 183.562 84.5735 182.201C83.6015 180.776 83.3423 178.961 83.8607 177.341L126.629 16.0521C127.731 12.4233 131.165 9.96087 134.924 10.1553L222.794 17.2186C224.608 17.2834 226.293 18.1906 227.394 19.681C228.366 21.1066 228.69 22.921 228.172 24.6058L183.524 191.468C182.487 194.773 179.442 197.105 175.878 197.105ZM88.8504 183.821L175.035 196.133C178.47 196.587 181.71 194.449 182.682 191.144L227.265 24.2818C227.654 22.8562 227.459 21.3658 226.617 20.1346C225.71 18.9034 224.284 18.1258 222.729 18.061L134.794 10.9977C131.424 10.8033 128.379 13.0065 127.472 16.2465L84.7031 177.536C84.3143 178.961 84.5087 180.452 85.2863 181.683C86.1287 182.914 87.4248 183.692 88.8504 183.821Z" fill="#484848"/>
<path d="M83.1479 175.073L169.333 187.385C172.962 187.839 176.461 185.636 177.498 182.072L222.081 15.2097C222.988 11.7753 220.785 8.72964 217.156 8.40563L129.221 1.34235C125.657 1.14795 122.417 3.48078 121.38 6.91522L78.6118 168.204C77.7694 171.056 79.3895 174.036 82.1759 174.879C82.5647 175.008 82.8239 175.073 83.1479 175.073Z" fill="#484848"/>
<path d="M170.305 187.904C169.981 187.904 169.592 187.904 169.268 187.839L83.0831 175.527C81.3982 175.332 79.9078 174.36 78.9358 172.999C78.0286 171.574 77.7046 169.759 78.223 168.075L120.991 6.78554C122.093 3.1567 125.463 0.69427 129.286 0.888672L217.156 7.95196C218.97 8.01676 220.655 8.92397 221.757 10.4144C222.729 11.84 223.053 13.6544 222.534 15.3392L177.951 182.201C176.915 185.571 173.804 187.904 170.305 187.904ZM128.703 1.79588C125.528 1.86068 122.741 3.99911 121.834 7.04474L79.0654 168.334C78.6766 169.759 78.9358 171.25 79.7134 172.481C80.491 173.647 81.787 174.49 83.2127 174.62L169.398 186.932C172.832 187.32 176.007 185.247 176.979 181.942L221.562 15.08C221.951 13.6544 221.757 12.164 220.914 10.9328C220.007 9.70158 218.581 8.92397 217.026 8.85917L129.221 1.79588C129.027 1.79588 128.897 1.79588 128.703 1.79588Z" fill="#484848"/>
<path d="M213.592 26.2258L123.584 18.4497L89.1096 148.57L177.757 160.363L213.592 26.2258Z" fill="#656565"/>
<path d="M174.128 142.414C173.934 142.414 173.804 142.284 173.739 142.154L155.595 103.792C155.466 103.533 155.595 103.274 155.79 103.209C155.984 103.144 156.308 103.209 156.373 103.404L174.517 141.766C174.647 142.025 174.517 142.284 174.323 142.349C174.258 142.414 174.193 142.414 174.128 142.414Z" fill="#484848"/>
<path d="M118.788 174.101L135.637 176.434C137.84 176.693 139.913 175.332 140.561 173.194L142.246 166.908C142.765 165.094 141.728 163.279 139.978 162.696C139.784 162.631 139.589 162.567 139.33 162.567L122.482 160.299C120.279 160.039 118.27 161.4 117.622 163.539L115.937 169.76C115.419 171.509 116.455 173.388 118.205 173.907C118.4 174.036 118.594 174.101 118.788 174.101Z" fill="#262626"/>
<path d="M136.155 177.017C135.961 177.017 135.701 177.017 135.507 176.952L118.659 174.619C116.585 174.36 115.03 172.546 115.289 170.407C115.289 170.213 115.354 169.954 115.419 169.759L117.103 163.539C117.816 161.206 120.02 159.715 122.417 159.974L139.265 162.243C140.432 162.372 141.404 162.955 142.052 163.927C142.7 164.835 142.829 166.001 142.57 167.103L140.885 173.388C140.237 175.462 138.358 176.952 136.155 177.017ZM118.853 173.647L135.701 175.98C137.71 176.239 139.525 175.008 140.108 173.064L141.793 166.779C142.052 165.936 141.922 165.029 141.404 164.316C140.885 163.603 140.108 163.15 139.265 163.02L122.417 160.752C120.473 160.558 118.594 161.724 118.076 163.668L116.391 169.889C115.937 171.444 116.779 173.064 118.335 173.518C118.464 173.647 118.659 173.647 118.853 173.647Z" fill="#D1D3D4"/>
<path d="M186.959 15.0151L161.233 12.8767C160.974 12.8767 160.779 12.6175 160.844 12.4231C160.844 12.1639 161.103 11.9695 161.362 12.0343L187.088 14.1727C187.347 14.1727 187.542 14.3671 187.542 14.6263C187.412 14.8207 187.218 15.0151 186.959 15.0151Z" fill="#D1D3D4"/>
<path d="M157.669 12.6177L154.234 12.3585C153.975 12.3585 153.781 12.0993 153.846 11.8401C153.846 11.5809 154.105 11.3865 154.364 11.4513L157.734 11.7105C157.993 11.7105 158.187 11.9049 158.187 12.1641C158.122 12.4233 157.928 12.6177 157.669 12.6177Z" fill="#D1D3D4"/>
<path d="M169.657 46.3788C169.527 46.3788 169.333 46.314 169.268 46.1844L157.086 27.0682C156.956 26.8738 157.021 26.5498 157.215 26.4202C157.41 26.2906 157.734 26.3554 157.863 26.5498C157.863 26.5498 157.863 26.5498 157.863 26.6146L170.046 45.666C170.175 45.8604 170.175 46.1196 169.916 46.314C169.916 46.314 169.916 46.314 169.851 46.314C169.787 46.3788 169.722 46.3788 169.657 46.3788Z" fill="#484848"/>
<path d="M132.85 40.8707C132.656 40.8707 132.526 40.8059 132.461 40.6115L126.24 28.6233C126.111 28.4289 126.24 28.1049 126.435 28.0401C126.629 27.9105 126.953 27.9753 127.018 28.2345L133.239 40.2227C133.368 40.4171 133.239 40.7411 133.044 40.8059C132.98 40.8059 132.915 40.8059 132.85 40.8707Z" fill="#484848"/>
<path d="M182.941 98.0249C182.941 98.0249 193.957 61.6069 184.431 53.5068L137.516 47.8691C137.516 47.8691 129.48 56.2284 128.314 62.7085C127.148 69.1886 117.427 82.7968 121.056 90.9616L182.941 98.0249Z" fill="#231F20"/>
<path d="M182.941 98.4785L121.056 91.4153C120.927 91.4153 120.732 91.2856 120.667 91.156C118.14 85.4536 121.834 77.2887 124.815 70.679C126.24 67.439 127.536 64.6525 127.925 62.5789C129.092 56.0988 136.932 47.8691 137.256 47.5451C137.321 47.4155 137.516 47.4155 137.645 47.4155L184.561 53.0532C184.626 53.0532 184.755 53.118 184.82 53.1828C194.54 61.3477 183.978 96.6641 183.524 98.1545C183.33 98.3489 183.135 98.4785 182.941 98.4785ZM121.38 90.5728L182.617 97.5713C183.719 93.7481 192.791 61.5421 184.237 53.9604L137.71 48.3875C136.608 49.554 129.804 57.0708 128.768 62.7733C128.379 64.9117 127.083 67.763 125.592 71.0678C122.741 77.4183 119.242 85.2592 121.38 90.5728Z" fill="#231F20"/>
<path d="M187.347 99.1265H187.283L108.939 88.1103C108.679 88.0455 108.55 87.8511 108.55 87.5919C108.615 87.3327 108.809 87.2031 109.068 87.2031L187.412 98.2193C187.671 98.2841 187.801 98.4785 187.801 98.7377C187.736 98.9321 187.542 99.0617 187.347 99.1265Z" fill="#231F20"/>
<path d="M184.367 53.507C184.367 53.507 179.636 54.155 176.72 64.0695C172.249 79.2329 166.417 111.115 162.658 123.168C157.28 140.664 142.7 143.126 142.7 143.126L81.3334 134.249C81.3334 134.249 106.282 125.565 110.494 110.856C114.965 95.3682 121.121 66.0783 122.741 59.5334C125.657 47.9341 137.516 47.9341 137.516 47.9341L184.367 53.507Z" fill="#414141"/>
<path d="M142.7 143.515H142.635L81.2686 134.638C81.0742 134.638 80.8798 134.443 80.8798 134.249C80.8798 134.054 81.0094 133.86 81.2038 133.795C81.463 133.73 106.023 125.047 110.105 110.726C113.215 99.9691 117.103 82.4081 119.76 70.7439C120.927 65.4951 121.834 61.4126 122.352 59.4038C125.333 47.6101 137.386 47.4805 137.516 47.4805L184.431 53.1181C184.691 53.1181 184.885 53.3773 184.82 53.6365C184.82 53.8309 184.626 54.0254 184.431 54.0254C184.367 54.0254 179.895 54.8678 177.109 64.2639C174.841 71.9104 172.249 83.8337 169.722 95.433C167.259 106.773 164.926 117.401 163.047 123.362C160.196 132.499 154.882 137.554 150.865 140.146C148.402 141.701 145.681 142.867 142.7 143.515ZM83.1478 133.989L142.7 142.608C143.737 142.414 157.215 139.368 162.27 122.973C164.084 117.076 166.417 106.384 168.879 95.109C171.407 83.5745 173.999 71.5864 176.267 63.8751C178.211 57.395 180.867 54.7382 182.617 53.7013L137.451 48.2581C137.062 48.2581 125.981 48.3877 123.195 59.5334C122.676 61.5422 121.769 65.6247 120.603 70.8736C118.011 82.5377 114.058 100.099 110.947 110.92C108.744 118.697 100.838 124.723 94.5528 128.417C90.9239 130.555 87.1007 132.434 83.1478 133.989Z" fill="#484848"/>
<path d="M154.882 124.205H154.817L146.523 123.233C146.264 123.233 146.069 122.973 146.134 122.714C146.199 122.455 146.393 122.261 146.653 122.325L154.947 123.297C155.206 123.297 155.401 123.557 155.336 123.816C155.271 124.01 155.077 124.205 154.882 124.205Z" fill="#D1D3D4"/>
<path d="M139.849 122.52L114.965 119.668C114.706 119.604 114.576 119.409 114.576 119.15C114.641 118.891 114.835 118.761 115.03 118.761L139.913 121.612C140.173 121.677 140.302 121.872 140.302 122.131C140.237 122.325 140.108 122.52 139.849 122.52Z" fill="#D1D3D4"/>
<path d="M147.43 133.666L139.719 132.823C139.46 132.823 139.265 132.564 139.33 132.305C139.33 132.045 139.589 131.851 139.848 131.916L147.495 132.758C147.754 132.758 147.949 133.017 147.949 133.212C147.949 133.406 147.689 133.73 147.43 133.666Z" fill="#D1D3D4"/>
<path d="M131.36 131.851L107.513 129.129C107.254 129.129 107.059 128.87 107.124 128.611C107.124 128.352 107.383 128.157 107.643 128.222L131.424 130.944C131.684 131.009 131.813 131.203 131.813 131.462C131.748 131.657 131.554 131.851 131.36 131.851Z" fill="#D1D3D4"/>
<path d="M142.7 143.062C135.442 136.322 131.748 126.537 132.85 116.688L68.438 105.088C68.438 105.088 73.9461 126.667 81.3334 134.184L142.7 143.062Z" fill="#444444"/>
<path d="M142.7 143.515H142.635L81.2686 134.638C81.139 134.638 81.0742 134.573 81.0094 134.508C73.6869 126.991 68.2437 106.125 67.9845 105.218C67.9197 104.959 68.0493 104.7 68.3085 104.635C68.3733 104.635 68.4381 104.635 68.5029 104.635L132.915 116.234C133.174 116.299 133.304 116.493 133.304 116.752C132.267 126.473 135.831 136.063 143.024 142.738C143.218 142.867 143.218 143.191 143.089 143.386C142.959 143.45 142.829 143.515 142.7 143.515ZM81.5278 133.73L141.339 142.414C134.794 135.674 131.489 126.408 132.332 117.076L69.0213 105.672C70.0581 109.365 75.1774 127.056 81.5278 133.73Z" fill="#484848"/>
<path d="M168.231 67.6983L128.249 63.1622C127.99 63.1622 127.796 62.903 127.86 62.6438C127.86 62.3846 128.12 62.1902 128.379 62.255L168.296 66.791C168.555 66.791 168.75 66.9854 168.75 67.2446C168.685 67.5039 168.49 67.6983 168.231 67.6983Z" fill="#D1D3D4"/>
<path d="M166.546 77.9366L159.03 77.0942C158.77 77.0294 158.641 76.835 158.641 76.5758C158.706 76.3166 158.9 76.187 159.094 76.187L166.611 77.0294C166.87 77.0294 167.065 77.2886 167.065 77.483C167.065 77.6774 166.806 77.9366 166.546 77.9366Z" fill="#D1D3D4"/>
<path d="M150.67 76.1224L126.629 73.4007C126.37 73.4007 126.176 73.1415 126.24 72.8823C126.24 72.6231 126.5 72.4287 126.759 72.4935L150.8 75.2151C151.059 75.2151 151.253 75.4744 151.189 75.7336C151.059 75.9928 150.865 76.1224 150.67 76.1224Z" fill="#D1D3D4"/>
<path d="M164.084 87.5273L151.707 86.1017C151.448 86.1017 151.253 85.8425 151.318 85.5833C151.318 85.324 151.577 85.1296 151.837 85.1944L164.149 86.6201C164.408 86.6849 164.538 86.8793 164.538 87.1385C164.473 87.3329 164.278 87.5273 164.084 87.5273Z" fill="#D1D3D4"/>
<path d="M139.849 84.7408L124.102 82.9912C123.843 82.9264 123.713 82.732 123.713 82.4728C123.778 82.2136 123.972 82.084 124.167 82.084L139.849 83.8984C140.108 83.8984 140.302 84.1576 140.237 84.4168C140.237 84.6112 140.043 84.7408 139.849 84.7408Z" fill="#D1D3D4"/>
<path d="M161.946 96.5994L151.642 95.4329C151.383 95.4329 151.189 95.1737 151.253 94.9145C151.253 94.6553 151.513 94.4609 151.772 94.5257L162.075 95.6921C162.334 95.6921 162.529 95.9514 162.464 96.2106C162.399 96.405 162.205 96.5994 161.946 96.5994Z" fill="#D1D3D4"/>
<path d="M140.691 94.1371L122.028 91.9986C121.769 91.9986 121.575 91.7394 121.64 91.4802C121.64 91.221 121.899 91.0266 122.158 91.0914L140.756 93.2298C141.015 93.2946 141.145 93.489 141.145 93.7482C141.08 94.0074 140.885 94.1371 140.691 94.1371Z" fill="#D1D3D4"/>
<path d="M159.807 106.644L150.605 105.607C150.346 105.607 150.152 105.348 150.217 105.088C150.281 104.829 150.476 104.635 150.735 104.7L159.872 105.736C160.131 105.801 160.261 105.996 160.261 106.255C160.196 106.449 160.002 106.579 159.807 106.644Z" fill="#D1D3D4"/>
<path d="M144.968 104.894L119.825 102.043C119.566 102.043 119.371 101.783 119.436 101.524C119.436 101.265 119.695 101.071 119.955 101.135L145.033 103.987C145.292 104.051 145.421 104.246 145.421 104.505C145.357 104.764 145.162 104.894 144.968 104.894Z" fill="#D1D3D4"/>
<path d="M157.474 114.744H157.409L146.523 113.512C146.264 113.448 146.134 113.253 146.134 112.994C146.199 112.735 146.393 112.605 146.588 112.605L157.474 113.836C157.733 113.901 157.863 114.096 157.863 114.355C157.863 114.549 157.669 114.744 157.474 114.744Z" fill="#D1D3D4"/>
<path d="M141.663 112.929L117.492 110.208C117.233 110.208 117.039 109.948 117.103 109.689C117.103 109.43 117.363 109.236 117.622 109.3L141.728 112.022C141.987 112.022 142.181 112.281 142.117 112.54C142.117 112.8 141.922 112.929 141.663 112.929Z" fill="#D1D3D4"/>
<path d="M37.2042 98.738L16.4031 53.9607C14.6535 50.267 16.2735 45.8606 19.9672 44.1109L88.656 12.1642C92.3496 10.4145 96.7561 12.0346 98.5057 15.7282L119.307 60.5055C121.056 64.1992 119.436 68.6056 115.743 70.3553L47.0539 102.302C43.2954 104.052 38.9538 102.432 37.2042 98.738Z" fill="#484848"/>
<path d="M43.9434 103.468C40.8978 103.468 38.1113 101.719 36.8153 98.9323L16.0143 54.155C14.1998 50.2022 15.8847 45.5365 19.8375 43.7221L88.5263 11.7753C92.4792 9.96089 97.1448 11.6457 98.9592 15.5986L119.76 60.3759C121.575 64.3287 119.89 68.9944 115.937 70.8088L47.2482 102.756C46.2114 103.209 45.045 103.468 43.9434 103.468ZM91.7664 11.9697C90.7295 11.9697 89.7575 12.1641 88.8503 12.6177L20.1615 44.5645C16.6623 46.1845 15.1719 50.3318 16.7919 53.7662L37.5929 98.5435C39.2129 102.043 43.3602 103.533 46.7946 101.913L115.483 69.9664C118.983 68.3464 120.473 64.1991 118.853 60.7647L98.052 15.9874C96.9504 13.5249 94.488 11.9697 91.7664 11.9697Z" fill="#231F20"/>
<path d="M81.7222 44.9533L76.4734 33.678C75.2422 31.0212 76.4086 27.8459 79.0654 26.5499L87.0359 22.8563C89.6927 21.625 92.868 22.7915 94.164 25.4483L99.4129 36.7236C100.644 39.3805 99.4777 42.5557 96.8208 43.8517L88.8503 47.5454C86.1287 48.7766 82.9535 47.6102 81.7222 44.9533Z" fill="#656565"/>
<path d="M25.6696 54.9974C24.892 53.3774 25.6048 51.3685 27.2896 50.6557L42.7122 43.4629C44.3322 42.6852 46.341 43.3981 47.0538 45.0829C47.8314 46.7029 47.1186 48.7117 45.4338 49.4245L30.0112 56.6174C28.3912 57.3302 26.3824 56.6174 25.6696 54.9974Z" fill="#D1D3D4"/>
<path d="M95.2008 65.7544L93.7104 62.5792C93.3216 61.7368 93.7104 60.7648 94.488 60.376L106.087 54.9975C106.93 54.6087 107.902 54.9975 108.291 55.7751L109.781 58.9503C110.17 59.7928 109.781 60.7648 109.003 61.1536L97.404 66.532C96.5616 66.9208 95.5248 66.5968 95.2008 65.7544Z" fill="#D1D3D4"/>
<path d="M77.5103 73.9839L76.0198 70.8087C75.631 69.9663 76.0198 68.9943 76.7975 68.6055L88.3968 63.227C89.2392 62.8382 90.2112 63.227 90.6 64.0046L92.0904 67.1798C92.4792 68.0222 92.0904 68.9943 91.3128 69.3831L79.7135 74.7615C78.8711 75.1503 77.8991 74.8263 77.5103 73.9839Z" fill="#D1D3D4"/>
<path d="M59.8196 82.2137L58.3292 79.0384C57.9404 78.196 58.3292 77.224 59.1068 76.8352L70.7061 71.4567C71.5485 71.0679 72.5205 71.4567 72.9093 72.2343L74.3997 75.4096C74.7886 76.252 74.3997 77.224 73.6221 77.6128L62.0228 82.9913C61.1804 83.3801 60.2084 83.0561 59.8196 82.2137Z" fill="#D1D3D4"/>
<path d="M42.129 90.4434L40.6386 87.2682C40.2497 86.4257 40.6386 85.4537 41.4162 85.0649L53.0155 79.6865C53.8579 79.2977 54.8299 79.6865 55.2187 80.4641L56.7091 83.6393C57.0979 84.4817 56.7091 85.4537 55.9315 85.8425L44.3322 91.221C43.4898 91.6098 42.5178 91.2858 42.129 90.4434Z" fill="#D1D3D4"/>
<path d="M31.5016 111.18L27.6784 115.521C25.2807 118.567 17.5694 116.429 10.5062 110.726C3.44287 105.024 -0.315575 98.0252 2.08205 94.9796L5.9053 90.6379L31.5016 111.18Z" fill="#686868"/>
<path d="M24.1143 117.401C20.4855 117.401 15.2366 115.133 10.247 111.18C7.07173 108.717 4.4149 105.672 2.34127 102.172C0.656454 99.062 0.462055 96.4052 1.75807 94.7852L5.58131 90.3787C5.71091 90.1843 6.03492 90.1195 6.22932 90.3139L31.8256 110.791C31.8904 110.856 31.9552 110.985 32.02 111.115C32.02 111.245 32.02 111.374 31.8904 111.439L28.0672 115.781C27.2248 116.882 25.864 117.401 24.1143 117.401ZM5.97012 91.2859L2.47088 95.3036C1.43407 96.5996 1.69327 98.9324 3.18369 101.654C5.12771 105.024 7.71974 108.005 10.8302 110.402C17.5695 115.781 25.1511 117.984 27.3544 115.262L30.8536 111.245L5.97012 91.2859Z" fill="#231F20"/>
<path d="M31.5263 111.176C33.9424 108.159 30.1721 101.125 23.1051 95.4655C16.0381 89.8055 8.35049 87.6628 5.93438 90.6795C3.51828 93.6963 7.28859 100.73 14.3556 106.39C21.4226 112.05 29.1102 114.193 31.5263 111.176Z" fill="#686868"/>
<path d="M27.9376 112.994C24.3087 112.994 19.0599 110.726 14.0702 106.773C10.895 104.311 8.23814 101.265 6.16452 97.7658C4.4797 94.5906 4.2853 91.9985 5.58131 90.3785C6.87733 88.7585 9.46936 88.3697 12.9038 89.3417C16.727 90.5729 20.2911 92.517 23.4015 95.0442C30.7888 100.941 34.4825 108.134 31.8904 111.439C31.048 112.54 29.6224 112.994 27.9376 112.994ZM9.53416 89.7953C8.04374 89.7953 6.94213 90.1841 6.29412 91.0265C5.25731 92.3226 5.51651 94.6554 7.00693 97.4418C8.95095 100.811 11.543 103.792 14.6534 106.125C21.3927 111.504 28.9744 113.772 31.1776 110.985C33.3808 108.199 29.6224 101.265 22.8183 95.8866C19.8375 93.3594 16.403 91.4801 12.6446 90.3137C11.6078 89.9249 10.571 89.7953 9.53416 89.7953Z" fill="#231F20"/>
<path d="M12.7742 93.165L14.459 94.7203L14.6534 94.7851C15.1718 94.9147 15.6902 94.9795 16.2086 95.1091C17.6343 95.4979 18.9951 96.1459 20.2263 96.9883C21.0039 97.5067 21.6519 98.0899 22.2999 98.8027C22.6887 99.1915 22.9479 99.6451 23.0127 100.164C23.0127 100.552 22.8183 100.876 22.4943 101.071C22.2351 101.265 21.9111 101.395 21.6519 101.589L24.7623 104.57C25.2808 104.181 25.0863 103.533 24.3087 102.756L26.2528 102.432C26.836 102.95 27.2896 103.598 27.6784 104.246C28.0024 104.764 27.9376 105.412 27.5488 105.931C27.3544 106.125 27.0952 106.32 26.836 106.514L28.0024 107.616L26.188 108.199L25.0215 107.097C24.4383 107.097 23.9199 107.097 23.3367 107.097C22.2351 107.032 21.1335 106.708 20.0967 106.255C18.7359 105.672 17.5047 104.764 16.4678 103.663C15.431 102.496 15.1718 101.654 15.8198 101.006C16.2734 100.617 16.7271 100.358 17.3103 100.164C17.3751 100.164 17.4399 100.099 17.5047 100.099L14.3294 97.1179H14.1998C14.135 97.3123 14.0702 97.5067 14.0702 97.7011C14.1998 98.0899 14.3942 98.4787 14.7182 98.7379L11.7374 98.9323C11.4782 98.6731 11.2838 98.4139 11.0894 98.2195C10.3118 97.3123 10.0526 96.5347 10.247 95.9515C10.571 95.3683 11.1542 94.9795 11.8022 94.9147C11.9318 94.9147 11.9318 94.8499 11.8022 94.7851L10.1174 93.165H12.7742ZM19.9023 102.302C19.6431 102.496 19.2543 102.691 19.3191 103.144C19.3839 103.663 20.3559 104.44 21.3279 104.764C21.7815 104.894 22.2351 105.024 22.7535 104.959L19.9023 102.302ZM19.1895 99.2563C19.4487 99.1267 19.7079 98.9971 19.7079 98.7379C19.7727 98.2843 18.8007 97.4419 17.8287 97.0531C17.3751 96.9235 16.9863 96.7939 16.5326 96.6643L19.1895 99.2563Z" fill="#D1D3D4"/>
<path d="M60.9859 157.188L63.1891 162.502C64.8092 166.001 59.4955 171.963 51.2658 175.786C43.0361 179.609 35.0656 179.869 33.4456 176.369L31.2424 171.056L60.9859 157.188Z" fill="#686868"/>
<path d="M39.4721 179.35C36.2969 179.35 33.964 178.443 33.1216 176.628L30.9184 171.25C30.8536 171.055 30.9184 170.796 31.1128 170.667L60.8564 156.799C60.986 156.735 61.1156 156.735 61.2452 156.799C61.3748 156.864 61.4396 156.929 61.5044 157.059L63.7076 162.372C65.4572 166.131 60.1435 172.222 51.5898 176.24C47.1186 178.313 42.8417 179.35 39.4721 179.35ZM31.8904 171.315L33.964 176.24C35.4545 179.48 43.3602 179.091 51.201 175.462C59.0419 171.833 64.3556 166.001 62.8652 162.761L60.7916 157.836L31.8904 171.315Z" fill="#231F20"/>
<path d="M49.079 170.463C57.2869 166.641 62.6181 160.703 60.9867 157.199C59.3552 153.695 51.3788 153.953 43.1709 157.775C34.963 161.597 29.6318 167.535 31.2633 171.039C32.8947 174.543 40.8711 174.285 49.079 170.463Z" fill="#686868"/>
<path d="M37.2041 173.972C33.9641 173.972 31.696 173 30.8536 171.25C29.104 167.427 34.4177 161.335 42.9714 157.383C51.5251 153.43 59.6252 153.235 61.3748 157.059C63.1244 160.882 57.8108 166.973 49.2571 170.926C45.6282 172.676 41.7402 173.712 37.7225 173.972H37.2041ZM55.0891 155.179C51.8491 155.179 47.5722 156.216 43.3602 158.16C35.5193 161.789 30.2056 167.621 31.696 170.861C32.4089 172.352 34.6121 173.194 37.7225 173.064C41.6106 172.805 45.4338 171.768 48.9331 170.083C56.7739 166.455 62.0876 160.623 60.5972 157.383C59.8844 155.957 57.8756 155.179 55.0891 155.179Z" fill="#231F20"/>
<path d="M36.5561 166.001L38.6945 165.224L38.8241 165.094C39.1481 164.64 39.4721 164.252 39.7961 163.798C40.7682 162.696 41.9346 161.724 43.2306 161.076C44.0082 160.623 44.9154 160.299 45.7578 160.039C46.2762 159.845 46.7946 159.845 47.313 160.039C47.637 160.169 47.8962 160.493 47.8962 160.882C47.961 161.206 47.961 161.53 47.961 161.854L51.9787 160.363C51.8491 159.715 51.2011 159.651 50.1643 159.975L50.7475 158.095C51.4603 157.771 52.2379 157.642 53.0155 157.642C53.5987 157.642 54.1819 157.966 54.4411 158.549C54.5707 158.808 54.6355 159.132 54.7003 159.456L56.1907 158.938L55.9315 160.817L54.4411 161.4C54.1819 161.919 53.9875 162.372 53.6635 162.891C53.0803 163.863 52.3027 164.705 51.4603 165.418C50.2939 166.39 48.9979 167.103 47.5722 167.492C46.0818 167.945 45.1746 167.751 44.9154 166.908C44.7858 166.39 44.721 165.807 44.8506 165.224C44.8506 165.159 44.8506 165.094 44.8506 164.964L40.7682 166.52L40.7034 166.584C40.833 166.714 41.0274 166.844 41.157 166.973C41.5458 167.038 41.9994 167.038 42.3882 166.844L41.2218 169.565C40.8978 169.63 40.5738 169.76 40.2497 169.824C39.0833 170.148 38.3057 170.019 37.8521 169.565C37.4633 169.047 37.3985 168.334 37.6577 167.751C37.6577 167.686 37.6577 167.621 37.5281 167.686L35.3249 168.464L36.5561 166.001ZM47.961 163.668C48.0258 163.992 48.0258 164.381 48.4794 164.576C48.933 164.77 50.1643 164.187 50.8123 163.539C51.1363 163.215 51.4603 162.826 51.5899 162.372L47.961 163.668ZM44.9154 162.956C44.9154 162.696 44.9154 162.372 44.721 162.243C44.3322 161.984 43.1658 162.502 42.3882 163.215C42.0642 163.539 41.805 163.863 41.481 164.187L44.9154 162.956Z" fill="#D1D3D4"/>
<path d="M39.2777 123.816C36.0377 129.194 39.6665 141.118 39.6665 141.118L44.4618 144.617C51.6546 148.894 60.9212 146.626 65.2628 139.433C69.5397 132.24 67.2716 122.973 60.0788 118.632L54.7651 116.04C54.7651 116.04 42.5177 118.437 39.2777 123.816Z" fill="#686868"/>
<path d="M52.2379 147.209C49.3866 147.209 46.665 146.431 44.2026 145.006L39.4073 141.506C39.3425 141.442 39.2777 141.377 39.2129 141.247C39.0833 140.729 35.5841 129.065 38.8889 123.557C42.1937 118.049 54.1171 115.651 54.6355 115.586C54.7651 115.586 54.8299 115.586 54.8947 115.651L60.2083 118.243C67.5956 122.649 69.9933 132.24 65.5868 139.627C63.4484 143.191 60.0139 145.719 55.9963 146.755C54.7651 147.079 53.5339 147.209 52.2379 147.209ZM40.0553 140.858L44.721 144.228C51.6547 148.375 60.7268 146.107 64.874 139.174C69.0213 132.24 66.7532 123.168 59.8195 119.021L54.7003 116.493C53.3395 116.817 42.5825 119.215 39.6665 124.01C36.7505 128.87 39.6665 139.498 40.0553 140.858Z" fill="#231F20"/>
<path d="M48.933 144.811C57.3075 144.811 64.0964 138.022 64.0964 129.648C64.0964 121.273 57.3075 114.484 48.933 114.484C40.5585 114.484 33.7697 121.273 33.7697 129.648C33.7697 138.022 40.5585 144.811 48.933 144.811Z" fill="#686868"/>
<path d="M48.933 145.265C40.3145 145.265 33.316 138.266 33.3808 129.648C33.4456 121.029 40.3793 114.031 48.9978 114.096C51.849 114.096 54.5707 114.873 57.0331 116.299C64.4204 120.705 66.818 130.296 62.3468 137.683C59.4955 142.414 54.3763 145.265 48.933 145.265ZM48.9978 114.938C40.8977 114.938 34.288 121.483 34.288 129.583C34.288 137.683 40.8329 144.293 48.933 144.293C57.0331 144.293 63.6428 137.748 63.6428 129.648C63.6428 124.464 60.9211 119.669 56.5147 117.012C54.2467 115.716 51.6546 114.938 48.9978 114.938Z" fill="#231F20"/>
<path d="M40.4442 122.714L42.3234 123.881C42.3882 123.945 42.5178 123.945 42.5826 123.881C43.2954 123.038 44.2674 122.455 45.2394 122.066C46.341 121.677 47.5074 121.677 48.6091 122.131C48.8683 122.261 49.1923 122.39 49.5163 122.52L47.7666 125.436C47.313 125.177 46.7946 125.047 46.2762 125.177C45.8874 125.306 45.4986 125.371 45.1098 125.565V125.695L48.7387 127.898L48.9979 127.639C49.6459 126.926 50.3587 126.343 51.1363 125.76C52.3027 124.917 53.7931 124.788 55.0891 125.436C56.3203 125.954 57.2924 126.861 57.8108 128.093C58.2644 129.065 58.3292 130.166 58.1348 131.203C58.0052 131.851 57.8108 132.499 57.6164 133.147L59.042 133.99L57.422 136.646L55.9963 135.739C55.5427 136.193 55.0891 136.646 54.6355 137.035C53.7283 137.813 52.5619 138.266 51.3955 138.331C50.3587 138.331 49.3219 138.072 48.4794 137.554L50.2291 134.702C51.2659 135.286 52.5619 135.091 53.4043 134.249L49.5163 131.916C48.9979 132.37 48.5443 132.823 48.0906 133.277C47.5074 133.795 46.7946 134.249 46.0818 134.443C45.3042 134.638 44.4618 134.573 43.6842 134.314C42.777 133.99 41.9346 133.406 41.2866 132.629C40.3794 131.527 39.9906 130.037 40.3146 128.611C40.4442 128.028 40.6386 127.509 40.833 126.926C40.833 126.861 40.8978 126.797 40.8978 126.732L38.9537 125.565L40.4442 122.714ZM55.0243 131.462C55.2187 131.009 55.2835 130.425 55.2187 129.907C55.0243 129 54.2467 128.352 53.3395 128.417C52.6915 128.611 52.1731 128.935 51.7195 129.389L55.0243 131.462ZM43.2954 128.093C43.2306 128.546 43.2306 129 43.2306 129.453C43.2954 130.361 44.1378 131.073 45.045 131.009C45.1098 131.009 45.2394 131.009 45.3042 130.944C45.7578 130.749 46.2114 130.425 46.5354 130.037L43.2954 128.093Z" fill="#D1D3D4"/>
</svg>
