<svg width="61" height="61" viewBox="0 0 61 61" fill="none" xmlns="http://www.w3.org/2000/svg">
<circle cx="30.5" cy="30.5" r="30" fill="#F27224"/>
<path d="M23.6 32.18C22.2156 32.18 21.1033 31.7444 20.2633 30.8733C19.4233 29.9867 19.0033 28.6956 19.0033 27C19.0033 25.3044 19.4233 24.0211 20.2633 23.15C21.1033 22.2633 22.2156 21.82 23.6 21.82C24.9844 21.82 26.0967 22.2556 26.9367 23.1267C27.7767 23.9978 28.1967 25.2889 28.1967 27C28.1967 28.6956 27.7767 29.9867 26.9367 30.8733C26.0967 31.7444 24.9844 32.18 23.6 32.18ZM23.6 30.08C24.2222 30.08 24.6967 29.8311 25.0233 29.3333C25.3656 28.8356 25.5367 28.0578 25.5367 27C25.5367 25.9422 25.3656 25.1644 25.0233 24.6667C24.6967 24.1689 24.2222 23.92 23.6 23.92C22.3244 23.92 21.6867 24.9467 21.6867 27C21.6867 29.0533 22.3244 30.08 23.6 30.08ZM37.0633 41.28C35.6633 41.28 34.5433 40.8444 33.7033 39.9733C32.8789 39.0867 32.4667 37.7956 32.4667 36.1C32.4667 34.4044 32.8789 33.1211 33.7033 32.25C34.5433 31.3633 35.6633 30.92 37.0633 30.92C38.4478 30.92 39.56 31.3556 40.4 32.2267C41.24 33.0978 41.66 34.3889 41.66 36.1C41.66 37.7956 41.24 39.0867 40.4 39.9733C39.56 40.8444 38.4478 41.28 37.0633 41.28ZM37.0633 39.18C37.6856 39.18 38.16 38.9311 38.4867 38.4333C38.8133 37.9356 38.9767 37.1578 38.9767 36.1C38.9767 35.0422 38.8133 34.2644 38.4867 33.7667C38.16 33.2689 37.6856 33.02 37.0633 33.02C35.7878 33.02 35.15 34.0467 35.15 36.1C35.15 38.1533 35.7878 39.18 37.0633 39.18ZM23.32 41L34.59 22.1H37.32L26.0733 41H23.32Z" fill="white"/>
</svg>