 <svg width="61" height="61" viewBox="0 0 61 61" fill="none" xmlns="http://www.w3.org/2000/svg">
<circle cx="30.5" cy="30.5" r="30" fill="#ED3B3B"/>
<path d="M18.8333 30.5001C18.8333 26.373 18.8333 24.3095 20.0615 22.9318C20.258 22.7114 20.4745 22.5077 20.7086 22.3228C22.1724 21.1667 24.3649 21.1667 28.7499 21.1667H32.2499C36.635 21.1667 38.8275 21.1667 40.2912 22.3228C40.5253 22.5077 40.7419 22.7114 40.9383 22.9318C42.1666 24.3095 42.1666 26.373 42.1666 30.5001C42.1666 34.6272 42.1666 36.6906 40.9383 38.0684C40.7419 38.2887 40.5253 38.4924 40.2912 38.6774C38.8275 39.8334 36.635 39.8334 32.2499 39.8334H28.7499C24.3649 39.8334 22.1724 39.8334 20.7086 38.6774C20.4745 38.4924 20.258 38.2887 20.0615 38.0684C18.8333 36.6906 18.8333 34.6272 18.8333 30.5001Z" fill="white"/>
<path d="M28.1667 35.1667H29.9167" stroke="#ED3B3B" stroke-width="1.75" stroke-miterlimit="10" stroke-linecap="round" stroke-linejoin="round"/>
<path d="M33.4167 35.1667H37.5001" stroke="#ED3B3B" stroke-width="1.75" stroke-miterlimit="10" stroke-linecap="round" stroke-linejoin="round"/>
<path d="M18.8333 27H42.1666" stroke="#ED3B3B" stroke-width="1.75" stroke-linejoin="round"/>
</svg>