<svg class="items-left" width="61" height="61" viewBox="0 0 61 61" fill="none" xmlns="http://www.w3.org/2000/svg">
<circle cx="30.5" cy="30.5" r="30" fill="#5E8E3E"/>
<path d="M42.9196 29.5446C39.8802 29.5412 36.9662 28.3322 34.817 26.183C32.6678 24.0338 31.4588 21.1198 31.4554 18.0804C31.4554 17.827 31.3547 17.584 31.1755 17.4048C30.9964 17.2257 30.7534 17.125 30.5 17.125C30.2466 17.125 30.0036 17.2257 29.8245 17.4048C29.6453 17.584 29.5446 17.827 29.5446 18.0804C29.5412 21.1198 28.3322 24.0338 26.183 26.183C24.0338 28.3322 21.1198 29.5412 18.0804 29.5446C17.827 29.5446 17.584 29.6453 17.4048 29.8245C17.2257 30.0036 17.125 30.2466 17.125 30.5C17.125 30.7534 17.2257 30.9964 17.4048 31.1755C17.584 31.3547 17.827 31.4554 18.0804 31.4554C21.1198 31.4588 24.0338 32.6678 26.183 34.817C28.3322 36.9662 29.5412 39.8802 29.5446 42.9196C29.5446 43.173 29.6453 43.416 29.8245 43.5952C30.0036 43.7743 30.2466 43.875 30.5 43.875C30.7534 43.875 30.9964 43.7743 31.1755 43.5952C31.3547 43.416 31.4554 43.173 31.4554 42.9196C31.4588 39.8802 32.6678 36.9662 34.817 34.817C36.9662 32.6678 39.8802 31.4588 42.9196 31.4554C43.173 31.4554 43.416 31.3547 43.5952 31.1755C43.7743 30.9964 43.875 30.7534 43.875 30.5C43.875 30.2466 43.7743 30.0036 43.5952 29.8245C43.416 29.6453 43.173 29.5446 42.9196 29.5446Z" fill="white"/>
</svg>