<svg width="396" height="253" viewBox="0 0 396 253" fill="none" xmlns="http://www.w3.org/2000/svg">
<mask id="mask0_61_1605" style="mask-type:alpha" maskUnits="userSpaceOnUse" x="0" y="0" width="396" height="253">
<rect x="0.770905" y="0.919922" width="394.729" height="251.794" fill="url(#paint0_linear_61_1605)"/>
</mask>
<g mask="url(#mask0_61_1605)">
<g filter="url(#filter0_ddd_61_1605)">
<rect x="79.0659" y="25.5" width="239.373" height="200.983" rx="4.51648" fill="white"/>
</g>
<g filter="url(#filter1_ddd_61_1605)">
<rect x="70.033" y="34.533" width="257.439" height="200.983" rx="4.51648" fill="white"/>
</g>
<g filter="url(#filter2_ddd_61_1605)">
<rect x="61" y="43.5659" width="275.505" height="215.662" rx="4.51648" fill="white"/>
</g>
<rect opacity="0.6" x="136.286" y="74.5325" width="123.699" height="123.699" rx="61.8495" stroke="#EFEFF1" stroke-opacity="0.5" stroke-width="2"/>
<rect opacity="0.6" x="118.521" y="56.7676" width="159.229" height="159.229" rx="79.6146" stroke="#EFEFF1" stroke-opacity="0.5" stroke-width="2"/>
<path d="M198.136 97.2651C221.225 97.2654 239.943 115.984 239.943 139.073C239.942 162.162 221.225 180.879 198.136 180.879C175.047 180.879 156.329 162.162 156.328 139.073C156.328 115.983 175.047 97.2651 198.136 97.2651Z" fill="#1E1E1E" stroke="black"/>
<path d="M198.476 120.433C192.757 120.433 188.121 125.124 188.121 130.911V137.347H187.529C185.568 137.347 183.979 138.955 183.979 140.939V154.71C183.979 156.694 185.568 158.302 187.529 158.302H208.831C210.791 158.302 212.381 156.694 212.381 154.71V140.939C212.381 138.955 210.791 137.347 208.831 137.347V137.343H204.097V137.347H192.855V130.911C192.855 127.77 195.371 125.223 198.476 125.223C201.58 125.223 204.097 127.77 204.097 130.911V132.178C204.097 133.049 204.803 133.756 205.675 133.756H207.253C208.124 133.756 208.831 133.049 208.831 132.178V130.911C208.831 125.124 204.194 120.433 198.476 120.433Z" fill="white"/>
</g>
<g filter="url(#filter3_d_61_1605)">
<rect x="86" y="84" width="81.9218" height="32.2315" rx="3.35745" fill="white"/>
<circle cx="97.7109" cy="97.7651" r="4.70043" fill="#45C646"/>
<path fill-rule="evenodd" clip-rule="evenodd" d="M99.9704 96.1519C100.022 96.2062 100.062 96.2701 100.088 96.3399C100.115 96.4096 100.127 96.4839 100.125 96.5586C100.123 96.6332 100.106 96.7066 100.075 96.7747C100.045 96.8428 100.001 96.9041 99.9465 96.9553L97.3498 99.4023C97.2413 99.5046 97.0969 99.5601 96.9479 99.5569C96.7988 99.5536 96.657 99.492 96.553 99.3852L95.4577 98.26C95.3526 98.152 95.2947 98.0067 95.2967 97.856C95.2987 97.7053 95.3606 97.5616 95.4686 97.4564C95.5766 97.3513 95.7219 97.2934 95.8726 97.2954C96.0233 97.2974 96.167 97.3593 96.2722 97.4673L96.9773 98.1917L99.1673 96.1281C99.277 96.0247 99.4232 95.9692 99.5739 95.9736C99.7245 95.9781 99.8672 96.0422 99.9706 96.1519" fill="white"/>
<rect x="106.75" y="94.407" width="49.75" height="4.03003" rx="2" fill="#EEEEEE"/>
<rect x="106.75" y="102.907" width="25.5" height="4.03003" rx="2" fill="#EEEEEE"/>
</g>
<g filter="url(#filter4_d_61_1605)">
<rect x="224" y="167" width="81.9218" height="32.2315" rx="3.35745" fill="white"/>
<circle cx="235.711" cy="180.765" r="4.70043" fill="#FFCC00"/>
<path d="M238.227 178.953C238.117 178.969 238.018 179.029 237.953 179.118L236.6 180.859L235.059 179.646C234.971 179.577 234.859 179.547 234.749 179.562C234.638 179.577 234.538 179.636 234.471 179.725L232.812 181.865C232.754 181.938 232.722 182.028 232.723 182.122L232.724 182.184C232.741 182.347 232.852 182.487 233.012 182.538C233.192 182.595 233.388 182.523 233.488 182.363L234.876 180.568L236.417 181.776C236.505 181.847 236.618 181.879 236.729 181.865C236.841 181.851 236.942 181.792 237.01 181.702L238.615 179.631V179.621C238.752 179.437 238.717 179.176 238.536 179.034C238.448 178.967 238.337 178.937 238.227 178.953Z" fill="white"/>
<rect x="244.75" y="177.407" width="34" height="4.03003" rx="2" fill="#EEEEEE"/>
<rect x="244.75" y="185.907" width="54.375" height="4.03003" rx="2" fill="#EEEEEE"/>
</g>
<defs>
<filter id="filter0_ddd_61_1605" x="65.5165" y="23.2418" width="266.472" height="228.082" filterUnits="userSpaceOnUse" color-interpolation-filters="sRGB">
<feFlood flood-opacity="0" result="BackgroundImageFix"/>
<feColorMatrix in="SourceAlpha" type="matrix" values="0 0 0 0 0 0 0 0 0 0 0 0 0 0 0 0 0 0 127 0" result="hardAlpha"/>
<feMorphology radius="4.51648" operator="erode" in="SourceAlpha" result="effect1_dropShadow_61_1605"/>
<feOffset dy="4.51648"/>
<feGaussianBlur stdDeviation="3.38736"/>
<feComposite in2="hardAlpha" operator="out"/>
<feColorMatrix type="matrix" values="0 0 0 0 0 0 0 0 0 0 0 0 0 0 0 0 0 0 0.1 0"/>
<feBlend mode="normal" in2="BackgroundImageFix" result="effect1_dropShadow_61_1605"/>
<feColorMatrix in="SourceAlpha" type="matrix" values="0 0 0 0 0 0 0 0 0 0 0 0 0 0 0 0 0 0 127 0" result="hardAlpha"/>
<feMorphology radius="3.38736" operator="erode" in="SourceAlpha" result="effect2_dropShadow_61_1605"/>
<feOffset dy="11.2912"/>
<feGaussianBlur stdDeviation="8.4684"/>
<feComposite in2="hardAlpha" operator="out"/>
<feColorMatrix type="matrix" values="0 0 0 0 0 0 0 0 0 0 0 0 0 0 0 0 0 0 0.1 0"/>
<feBlend mode="normal" in2="effect1_dropShadow_61_1605" result="effect2_dropShadow_61_1605"/>
<feColorMatrix in="SourceAlpha" type="matrix" values="0 0 0 0 0 0 0 0 0 0 0 0 0 0 0 0 0 0 127 0" result="hardAlpha"/>
<feMorphology radius="1.12912" operator="dilate" in="SourceAlpha" result="effect3_dropShadow_61_1605"/>
<feOffset/>
<feComposite in2="hardAlpha" operator="out"/>
<feColorMatrix type="matrix" values="0 0 0 0 0.113725 0 0 0 0 0.113725 0 0 0 0 0.12549 0 0 0 0.08 0"/>
<feBlend mode="normal" in2="effect2_dropShadow_61_1605" result="effect3_dropShadow_61_1605"/>
<feBlend mode="normal" in="SourceGraphic" in2="effect3_dropShadow_61_1605" result="shape"/>
</filter>
<filter id="filter1_ddd_61_1605" x="56.4835" y="32.2747" width="284.538" height="228.082" filterUnits="userSpaceOnUse" color-interpolation-filters="sRGB">
<feFlood flood-opacity="0" result="BackgroundImageFix"/>
<feColorMatrix in="SourceAlpha" type="matrix" values="0 0 0 0 0 0 0 0 0 0 0 0 0 0 0 0 0 0 127 0" result="hardAlpha"/>
<feMorphology radius="4.51648" operator="erode" in="SourceAlpha" result="effect1_dropShadow_61_1605"/>
<feOffset dy="4.51648"/>
<feGaussianBlur stdDeviation="3.38736"/>
<feComposite in2="hardAlpha" operator="out"/>
<feColorMatrix type="matrix" values="0 0 0 0 0 0 0 0 0 0 0 0 0 0 0 0 0 0 0.1 0"/>
<feBlend mode="normal" in2="BackgroundImageFix" result="effect1_dropShadow_61_1605"/>
<feColorMatrix in="SourceAlpha" type="matrix" values="0 0 0 0 0 0 0 0 0 0 0 0 0 0 0 0 0 0 127 0" result="hardAlpha"/>
<feMorphology radius="3.38736" operator="erode" in="SourceAlpha" result="effect2_dropShadow_61_1605"/>
<feOffset dy="11.2912"/>
<feGaussianBlur stdDeviation="8.4684"/>
<feComposite in2="hardAlpha" operator="out"/>
<feColorMatrix type="matrix" values="0 0 0 0 0 0 0 0 0 0 0 0 0 0 0 0 0 0 0.1 0"/>
<feBlend mode="normal" in2="effect1_dropShadow_61_1605" result="effect2_dropShadow_61_1605"/>
<feColorMatrix in="SourceAlpha" type="matrix" values="0 0 0 0 0 0 0 0 0 0 0 0 0 0 0 0 0 0 127 0" result="hardAlpha"/>
<feMorphology radius="1.12912" operator="dilate" in="SourceAlpha" result="effect3_dropShadow_61_1605"/>
<feOffset/>
<feComposite in2="hardAlpha" operator="out"/>
<feColorMatrix type="matrix" values="0 0 0 0 0.113725 0 0 0 0 0.113725 0 0 0 0 0.12549 0 0 0 0.08 0"/>
<feBlend mode="normal" in2="effect2_dropShadow_61_1605" result="effect3_dropShadow_61_1605"/>
<feBlend mode="normal" in="SourceGraphic" in2="effect3_dropShadow_61_1605" result="shape"/>
</filter>
<filter id="filter2_ddd_61_1605" x="47.4506" y="41.3077" width="302.604" height="242.761" filterUnits="userSpaceOnUse" color-interpolation-filters="sRGB">
<feFlood flood-opacity="0" result="BackgroundImageFix"/>
<feColorMatrix in="SourceAlpha" type="matrix" values="0 0 0 0 0 0 0 0 0 0 0 0 0 0 0 0 0 0 127 0" result="hardAlpha"/>
<feMorphology radius="4.51648" operator="erode" in="SourceAlpha" result="effect1_dropShadow_61_1605"/>
<feOffset dy="4.51648"/>
<feGaussianBlur stdDeviation="3.38736"/>
<feComposite in2="hardAlpha" operator="out"/>
<feColorMatrix type="matrix" values="0 0 0 0 0 0 0 0 0 0 0 0 0 0 0 0 0 0 0.1 0"/>
<feBlend mode="normal" in2="BackgroundImageFix" result="effect1_dropShadow_61_1605"/>
<feColorMatrix in="SourceAlpha" type="matrix" values="0 0 0 0 0 0 0 0 0 0 0 0 0 0 0 0 0 0 127 0" result="hardAlpha"/>
<feMorphology radius="3.38736" operator="erode" in="SourceAlpha" result="effect2_dropShadow_61_1605"/>
<feOffset dy="11.2912"/>
<feGaussianBlur stdDeviation="8.4684"/>
<feComposite in2="hardAlpha" operator="out"/>
<feColorMatrix type="matrix" values="0 0 0 0 0 0 0 0 0 0 0 0 0 0 0 0 0 0 0.1 0"/>
<feBlend mode="normal" in2="effect1_dropShadow_61_1605" result="effect2_dropShadow_61_1605"/>
<feColorMatrix in="SourceAlpha" type="matrix" values="0 0 0 0 0 0 0 0 0 0 0 0 0 0 0 0 0 0 127 0" result="hardAlpha"/>
<feMorphology radius="1.12912" operator="dilate" in="SourceAlpha" result="effect3_dropShadow_61_1605"/>
<feOffset/>
<feComposite in2="hardAlpha" operator="out"/>
<feColorMatrix type="matrix" values="0 0 0 0 0.113725 0 0 0 0 0.113725 0 0 0 0 0.12549 0 0 0 0.08 0"/>
<feBlend mode="normal" in2="effect2_dropShadow_61_1605" result="effect3_dropShadow_61_1605"/>
<feBlend mode="normal" in="SourceGraphic" in2="effect3_dropShadow_61_1605" result="shape"/>
</filter>
<filter id="filter3_d_61_1605" x="61.0409" y="60.7048" width="131.84" height="82.1497" filterUnits="userSpaceOnUse" color-interpolation-filters="sRGB">
<feFlood flood-opacity="0" result="BackgroundImageFix"/>
<feColorMatrix in="SourceAlpha" type="matrix" values="0 0 0 0 0 0 0 0 0 0 0 0 0 0 0 0 0 0 127 0" result="hardAlpha"/>
<feOffset dy="1.66394"/>
<feGaussianBlur stdDeviation="12.4796"/>
<feComposite in2="hardAlpha" operator="out"/>
<feColorMatrix type="matrix" values="0 0 0 0 0 0 0 0 0 0 0 0 0 0 0 0 0 0 0.08 0"/>
<feBlend mode="normal" in2="BackgroundImageFix" result="effect1_dropShadow_61_1605"/>
<feBlend mode="normal" in="SourceGraphic" in2="effect1_dropShadow_61_1605" result="shape"/>
</filter>
<filter id="filter4_d_61_1605" x="199.041" y="143.705" width="131.84" height="82.1497" filterUnits="userSpaceOnUse" color-interpolation-filters="sRGB">
<feFlood flood-opacity="0" result="BackgroundImageFix"/>
<feColorMatrix in="SourceAlpha" type="matrix" values="0 0 0 0 0 0 0 0 0 0 0 0 0 0 0 0 0 0 127 0" result="hardAlpha"/>
<feOffset dy="1.66394"/>
<feGaussianBlur stdDeviation="12.4796"/>
<feComposite in2="hardAlpha" operator="out"/>
<feColorMatrix type="matrix" values="0 0 0 0 0 0 0 0 0 0 0 0 0 0 0 0 0 0 0.08 0"/>
<feBlend mode="normal" in2="BackgroundImageFix" result="effect1_dropShadow_61_1605"/>
<feBlend mode="normal" in="SourceGraphic" in2="effect1_dropShadow_61_1605" result="shape"/>
</filter>
<linearGradient id="paint0_linear_61_1605" x1="198.135" y1="0.919922" x2="198.135" y2="252.714" gradientUnits="userSpaceOnUse">
<stop/>
<stop offset="0.75"/>
<stop offset="1" stop-opacity="0"/>
</linearGradient>
</defs>
</svg>
