<svg width="518" height="589" viewBox="0 0 518 589" fill="none" xmlns="http://www.w3.org/2000/svg">
<path d="M517.315 149.434C517.315 131.33 502.639 116.655 484.536 116.655H33.2789C15.1756 116.655 0.5 131.33 0.5 149.434V588.672H517.315V149.434Z" fill="#B3B3B3" fill-opacity="0.12"/>
<mask id="mask0_46_183" style="mask-type:alpha" maskUnits="userSpaceOnUse" x="27" y="0" width="458" height="588">
<rect x="27.3717" y="0.835938" width="456.72" height="586.743" fill="#D9D9D9"/>
</mask>
<g mask="url(#mask0_46_183)">
<path d="M400.561 39.6392H122.258C85.9876 39.6392 56.5848 69.042 56.5848 105.312V814.412C56.5848 850.682 85.9876 880.085 122.258 880.085H400.561C436.831 880.085 466.234 850.682 466.234 814.412V105.312C466.234 69.042 436.831 39.6392 400.561 39.6392Z" fill="#5E3B5B"/>
<g style="mix-blend-mode:screen">
<path d="M400.052 41.5955H122.688C114.252 41.5955 105.899 43.2573 98.1055 46.4862C90.3121 49.715 83.2311 54.4476 77.2669 60.4135C71.3028 66.3795 66.5724 73.4619 63.3459 81.2564C60.1195 89.0508 58.4601 97.4045 58.4627 105.84V813.903C58.4627 830.937 65.2293 847.273 77.2739 859.318C89.3184 871.362 105.654 878.129 122.688 878.129H400.052C417.086 878.129 433.422 871.362 445.466 859.318C457.511 847.273 464.277 830.937 464.277 813.903V105.84C464.28 97.4045 462.621 89.0508 459.394 81.2564C456.168 73.4619 451.437 66.3795 445.473 60.4135C439.509 54.4476 432.428 49.715 424.635 46.4862C416.841 43.2573 408.488 41.5955 400.052 41.5955ZM462.321 813.375C462.321 821.622 460.697 829.788 457.541 837.407C454.385 845.026 449.76 851.948 443.928 857.78C438.097 863.611 431.174 868.236 423.555 871.392C415.936 874.548 407.771 876.172 399.524 876.172H123.275C106.623 876.167 90.6557 869.549 78.8832 857.773C67.1107 845.996 60.4972 830.027 60.4972 813.375V106.349C60.4972 89.6975 67.1107 73.7278 78.8832 61.9516C90.6557 50.1754 106.623 43.5569 123.275 43.5518H399.524C407.771 43.5518 415.936 45.1761 423.555 48.3319C431.174 51.4878 438.097 56.1134 443.928 61.9446C449.76 67.7759 454.385 74.6986 457.541 82.3175C460.697 89.9364 462.321 98.1023 462.321 106.349V813.375Z" fill="#706F6F"/>
</g>
<path d="M398.917 46.0559H123.92C90.5674 46.0559 63.5294 73.0939 63.5294 106.447V813.277C63.5294 846.63 90.5674 873.668 123.92 873.668H398.917C432.27 873.668 459.308 846.63 459.308 813.277V106.447C459.308 73.0939 432.27 46.0559 398.917 46.0559Z" fill="#1E1E1E"/>
<path d="M367.227 60.6106H399.212C411.695 60.6106 423.668 65.5696 432.495 74.3967C441.322 83.2237 446.281 95.1958 446.281 107.679V814.373C446.281 826.856 441.322 838.828 432.495 847.655C423.668 856.482 411.695 861.441 399.212 861.441H123.589C111.109 861.436 99.1421 856.475 90.3192 847.648C81.4964 838.822 76.5401 826.853 76.5401 814.373V107.679C76.5401 95.1992 81.4964 83.2301 90.3192 74.4036C99.1421 65.5771 111.109 60.6158 123.589 60.6106H367.227Z" fill="#1E1E1E"/>
<path d="M468.64 254.363H466.234V355.66H468.64V254.363Z" fill="url(#paint0_linear_46_183)"/>
<path d="M468.62 355.679V254.402L469.833 255.713C469.227 266.511 469.266 343.609 469.833 354.369L468.62 355.679Z" fill="url(#paint1_linear_46_183)"/>
<path d="M55.1174 233.058H53.748V297.225H55.1174V233.058Z" fill="url(#paint2_linear_46_183)"/>
<path d="M53.748 297.225V233.078L53.0633 233.9C53.3959 240.747 53.3763 289.576 53.0633 296.404L53.748 297.225Z" fill="url(#paint3_linear_46_183)"/>
<path d="M56.5847 233.058H55.1175V297.225H56.5847V233.058Z" fill="url(#paint4_linear_46_183)"/>
<path d="M55.1174 313.775H53.748V377.942H55.1174V313.775Z" fill="url(#paint5_linear_46_183)"/>
<path d="M53.748 377.962V313.795L53.0633 314.636C53.3959 321.464 53.3763 370.312 53.0633 377.12L53.748 377.962Z" fill="url(#paint6_linear_46_183)"/>
<path d="M56.5847 313.795H55.1175V377.962H56.5847V313.795Z" fill="url(#paint7_linear_46_183)"/>
<path d="M55.1174 172.433H53.748V205.377H55.1174V172.433Z" fill="url(#paint8_linear_46_183)"/>
<path d="M53.748 205.377V172.452L53.0633 173.235C53.3959 179.691 53.3763 198.139 53.0633 204.536L53.748 205.377Z" fill="url(#paint9_linear_46_183)"/>
<path d="M56.5847 172.433H55.1175V205.377H56.5847V172.433Z" fill="url(#paint10_linear_46_183)"/>
<path d="M292.358 98.4455H226.9C225.149 98.4455 223.415 98.1002 221.797 97.4295C220.18 96.7587 218.71 95.7757 217.473 94.5365C216.235 93.2973 215.255 91.8264 214.586 90.2078C213.918 88.5892 213.575 86.8547 213.578 85.1035C213.57 83.349 213.909 81.6103 214.575 79.9872C215.241 78.3641 216.221 76.8885 217.459 75.6452C218.697 74.4019 220.168 73.4153 221.788 72.7421C223.408 72.0689 225.146 71.7224 226.9 71.7224H292.358C295.891 71.7224 299.28 73.126 301.778 75.6245C304.277 78.1229 305.68 81.5115 305.68 85.0448C305.691 86.8009 305.354 88.5417 304.689 90.1671C304.024 91.7925 303.044 93.2704 301.806 94.5158C300.568 95.7612 299.096 96.7495 297.474 97.4239C295.853 98.0983 294.114 98.4455 292.358 98.4455Z" fill="#1E1E1E"/>
<path d="M288.66 90.9332C291.88 90.9332 294.49 88.3231 294.49 85.1035C294.49 81.8838 291.88 79.2737 288.66 79.2737C285.441 79.2737 282.831 81.8838 282.831 85.1035C282.831 88.3231 285.441 90.9332 288.66 90.9332Z" fill="url(#paint11_linear_46_183)"/>
<path d="M288.661 88.4292C290.497 88.4292 291.986 86.9403 291.986 85.1035C291.986 83.2668 290.497 81.7778 288.661 81.7778C286.824 81.7778 285.335 83.2668 285.335 85.1035C285.335 86.9403 286.824 88.4292 288.661 88.4292Z" fill="url(#paint12_linear_46_183)"/>
<path d="M291.575 85.1036C291.579 85.6809 291.412 86.2464 291.094 86.7283C290.776 87.2102 290.322 87.5869 289.79 87.8105C289.257 88.0341 288.671 88.0946 288.104 87.9844C287.537 87.8741 287.016 87.5981 286.606 87.1912C286.197 86.7843 285.917 86.265 285.803 85.699C285.689 85.1331 285.746 84.546 285.966 84.0122C286.186 83.4785 286.559 83.0221 287.039 82.7009C287.519 82.3797 288.083 82.2083 288.66 82.2083C289.43 82.2082 290.169 82.5126 290.715 83.0551C291.261 83.5975 291.57 84.3339 291.575 85.1036Z" fill="url(#paint13_linear_46_183)"/>
<path style="mix-blend-mode:multiply" d="M291.575 85.1036C291.579 85.6809 291.412 86.2464 291.094 86.7283C290.776 87.2102 290.322 87.5869 289.79 87.8105C289.257 88.0341 288.671 88.0946 288.104 87.9844C287.537 87.8741 287.016 87.5981 286.606 87.1912C286.197 86.7843 285.917 86.265 285.803 85.699C285.689 85.1331 285.746 84.546 285.966 84.0122C286.186 83.4785 286.559 83.0221 287.039 82.7009C287.519 82.3797 288.083 82.2083 288.66 82.2083C289.43 82.2082 290.169 82.5126 290.715 83.0551C291.261 83.5975 291.57 84.3339 291.575 85.1036Z" fill="url(#paint14_radial_46_183)"/>
<path style="mix-blend-mode:screen" d="M291.301 86.6294C291.301 86.3544 291.192 86.0907 290.998 85.8962C290.803 85.7018 290.54 85.5925 290.265 85.5925C289.99 85.5925 289.726 85.7018 289.531 85.8962C289.337 86.0907 289.228 86.3544 289.228 86.6294C289.228 86.9044 289.337 87.1681 289.531 87.3625C289.726 87.557 289.99 87.6662 290.265 87.6662C290.54 87.6662 290.803 87.557 290.998 87.3625C291.192 87.1681 291.301 86.9044 291.301 86.6294Z" fill="url(#paint15_radial_46_183)"/>
<path d="M211.366 457.19C210.932 461.671 213.09 473.15 217.638 479.461C217.699 479.546 217.582 479.649 217.508 479.575C210.784 472.837 209.924 461.524 209.898 456.382C209.897 456.228 210 456.099 210.149 456.059L229.459 450.921C229.569 450.892 229.676 450.98 229.672 451.094C229.412 459.969 230.343 464.446 231.206 466.338C231.437 466.845 231.915 466.636 231.899 466.079C231.745 460.59 233.215 454.027 234.587 450.553C234.754 450.13 234.491 449.651 234.04 449.587L219.186 447.459C218.869 447.414 218.563 447.596 218.452 447.897L216.741 452.558C216.712 452.637 216.607 452.63 216.596 452.547C216.386 450.937 217.477 447.955 218.161 446.413C218.219 446.28 218.357 446.202 218.501 446.217L237.731 448.161C237.856 448.173 237.925 448.311 237.861 448.419C235.293 452.785 234.632 458.817 234.625 461.327C235.999 455.578 240.957 450.483 242.85 448.02C243.102 447.691 242.967 447.229 242.588 447.059L229.203 441.049C228.931 440.927 228.611 440.996 228.415 441.22L225.01 445.089C225.59 443.349 227.539 440.81 228.584 439.587C228.68 439.475 228.838 439.44 228.973 439.5L246.742 447.269C246.859 447.32 246.879 447.478 246.78 447.559C236.067 456.283 234.061 469.329 234.4 475.26C234.41 475.42 234.21 475.501 234.101 475.383C226.852 467.481 227.62 459.26 227.132 454.373C227.093 453.986 226.726 453.727 226.344 453.802L211.891 456.629C211.611 456.684 211.394 456.906 211.366 457.19Z" fill="white"/>
<path d="M221.038 469.888C221.334 470.092 221.648 470.199 221.978 470.21C222.308 470.22 222.618 470.156 222.907 470.019C223.197 469.881 223.45 469.679 223.665 469.41C223.875 469.142 224.013 468.832 224.08 468.479C224.119 468.274 224.138 468.021 224.137 467.719C224.142 467.412 224.127 467.088 224.092 466.746C224.056 466.4 224.007 466.044 223.943 465.68C223.874 465.316 223.793 464.969 223.701 464.64C223.603 464.31 223.494 464.015 223.374 463.753C223.248 463.486 223.113 463.276 222.971 463.123C222.834 462.981 222.657 462.888 222.441 462.843C222.219 462.798 221.997 462.796 221.775 462.837C221.553 462.877 221.354 462.957 221.178 463.077C220.997 463.198 220.881 463.352 220.83 463.539C220.813 463.596 220.816 463.685 220.839 463.804C220.862 463.923 220.894 464.063 220.934 464.222C220.975 464.375 221.024 464.537 221.081 464.708C221.133 464.873 221.185 465.035 221.236 465.194C221.288 465.347 221.334 465.484 221.374 465.603C221.414 465.722 221.44 465.81 221.452 465.867C221.469 465.953 221.498 466.066 221.538 466.208C221.578 466.345 221.619 466.495 221.659 466.66C221.699 466.819 221.734 466.979 221.763 467.138C221.786 467.297 221.798 467.439 221.799 467.564C221.793 467.69 221.771 467.786 221.731 467.855C221.686 467.923 221.609 467.946 221.501 467.924C221.438 467.913 221.381 467.862 221.33 467.771C221.273 467.674 221.224 467.555 221.184 467.413C221.138 467.271 221.094 467.114 221.054 466.944C221.014 466.768 220.976 466.594 220.941 466.424C220.901 466.253 220.861 466.094 220.82 465.946C220.78 465.798 220.734 465.676 220.683 465.58C220.643 465.506 220.574 465.443 220.477 465.392C220.38 465.336 220.275 465.296 220.161 465.274C220.047 465.252 219.934 465.243 219.82 465.249C219.706 465.256 219.615 465.281 219.547 465.327C219.462 465.384 219.394 465.484 219.343 465.626C219.287 465.763 219.239 465.92 219.199 466.096C219.16 466.273 219.124 466.458 219.09 466.651C219.057 466.839 219.02 467.013 218.981 467.172C218.942 467.326 218.894 467.454 218.837 467.557C218.781 467.654 218.707 467.702 218.616 467.703C218.519 467.703 218.456 467.658 218.428 467.567C218.393 467.47 218.381 467.348 218.392 467.2C218.403 467.046 218.431 466.878 218.476 466.696C218.515 466.508 218.557 466.323 218.602 466.141C218.647 465.953 218.69 465.907 218.729 465.748C218.768 465.583 218.791 465.449 218.796 465.347C218.807 465.108 218.758 464.906 218.649 464.741C218.54 464.571 218.398 464.443 218.221 464.358C218.044 464.274 217.848 464.237 217.632 464.249C217.41 464.256 217.194 464.313 216.984 464.422C216.853 464.491 216.74 464.614 216.644 464.79C216.547 464.961 216.468 465.169 216.407 465.414C216.345 465.653 216.303 465.79 216.281 466.08C216.259 466.37 216.26 466.666 216.284 466.968C216.307 467.269 216.357 467.565 216.431 467.855C216.506 468.145 216.607 468.409 216.733 468.647C216.933 469.034 217.19 469.337 217.504 469.558C217.817 469.779 218.145 469.909 218.486 469.948C218.828 469.986 219.16 469.928 219.484 469.774C219.808 469.613 220.08 469.345 220.301 468.969C220.41 469.134 220.518 469.301 220.627 469.471C220.735 469.636 220.872 469.775 221.038 469.888Z" fill="white"/>
<circle cx="225.007" cy="469.207" r="0.55847" transform="rotate(0.182131 225.007 469.207)" fill="white"/>
<path d="M256.244 468.862L251.596 452.774H254.754L257.872 464.333H257.972L261.467 452.774H264.169L267.843 464.333H267.923L271.021 452.774H274.199L269.571 468.862H266.512L262.838 457.004H262.758L259.283 468.862H256.244ZM278.369 469.081C276.979 469.081 275.887 468.743 275.092 468.068C274.311 467.392 273.92 466.498 273.92 465.386C273.92 464.221 274.318 463.321 275.112 462.685C275.92 462.049 277.078 461.732 278.588 461.732H282.223V461.255C282.223 459.798 281.375 459.07 279.68 459.07C278.237 459.07 277.37 459.586 277.078 460.619H274.119C274.371 459.348 274.973 458.381 275.926 457.719C276.88 457.044 278.131 456.706 279.68 456.706C281.428 456.706 282.759 457.104 283.673 457.898C284.586 458.679 285.043 459.825 285.043 461.334V465.903H286.453V468.862H283.414V466.955H282.58C282.17 467.631 281.614 468.154 280.912 468.524C280.223 468.895 279.376 469.081 278.369 469.081ZM278.806 466.796C279.455 466.796 280.038 466.677 280.554 466.439C281.071 466.187 281.475 465.856 281.766 465.446C282.07 465.022 282.223 464.552 282.223 464.036V463.757H278.747C277.409 463.757 276.741 464.254 276.741 465.247C276.741 465.737 276.919 466.121 277.277 466.399C277.648 466.664 278.158 466.796 278.806 466.796ZM287.78 468.862V467.035L294.295 459.308H288.137V456.945H297.989V458.772L291.474 466.498H298.108V468.862H287.78ZM305.438 469.1C304.153 469.1 303.034 468.849 302.081 468.346C301.141 467.829 300.406 467.108 299.876 466.181C299.36 465.254 299.101 464.161 299.101 462.903C299.101 461.632 299.36 460.533 299.876 459.606C300.406 458.679 301.147 457.964 302.101 457.461C303.054 456.958 304.166 456.706 305.438 456.706C306.735 456.706 307.847 456.958 308.774 457.461C309.714 457.964 310.443 458.679 310.959 459.606C311.476 460.533 311.734 461.632 311.734 462.903C311.734 464.161 311.476 465.26 310.959 466.201C310.443 467.127 309.714 467.842 308.774 468.346C307.834 468.849 306.722 469.1 305.438 469.1ZM305.438 466.518C306.497 466.518 307.318 466.201 307.9 465.565C308.483 464.916 308.774 464.029 308.774 462.903C308.774 461.765 308.483 460.877 307.9 460.242C307.318 459.606 306.497 459.289 305.438 459.289C304.365 459.289 303.531 459.606 302.935 460.242C302.352 460.877 302.061 461.758 302.061 462.884C302.061 464.022 302.352 464.916 302.935 465.565C303.531 466.201 304.365 466.518 305.438 466.518Z" fill="white"/>
</g>
<rect opacity="0.35" x="402.135" y="80.3552" width="18.9389" height="9.22666" rx="2.36737" stroke="white" stroke-width="1.09263"/>
<path opacity="0.4" d="M422.53 83.1475V86.7896C423.266 86.4811 423.744 85.7635 423.744 84.9685C423.744 84.1735 423.266 83.4559 422.53 83.1475Z" fill="white"/>
<rect x="403.774" y="81.6299" width="16.3895" height="6.67719" rx="1.45684" fill="white"/>
<path d="M385.816 88.4054C387.128 87.319 389.05 87.3188 390.362 88.4054C390.428 88.4638 390.466 88.5468 390.468 88.6339C390.47 88.721 390.435 88.8053 390.371 88.8663L388.317 90.8966C388.257 90.9563 388.174 90.9904 388.088 90.9904C388.003 90.9903 387.921 90.9562 387.861 90.8966L385.805 88.8663C385.742 88.8053 385.707 88.721 385.708 88.6339C385.71 88.5468 385.75 88.4638 385.816 88.4054ZM383.115 85.4845C385.932 82.8541 390.294 82.8541 393.111 85.4845C393.174 85.5462 393.21 85.6311 393.211 85.7199C393.212 85.8085 393.178 85.8943 393.116 85.9572L391.932 87.1574C391.81 87.2799 391.613 87.2825 391.488 87.1632C390.563 86.3224 389.36 85.8566 388.112 85.8566C386.865 85.8571 385.662 86.3229 384.738 87.1632C384.613 87.2825 384.415 87.2798 384.293 87.1574L383.11 85.9572C383.047 85.8943 383.013 85.8086 383.014 85.7199C383.015 85.6311 383.051 85.5462 383.115 85.4845ZM380.369 82.8117C384.684 78.759 391.492 78.7591 395.808 82.8117C395.87 82.8718 395.906 82.9544 395.907 83.0402C395.907 83.126 395.873 83.2087 395.811 83.2697L394.627 84.4406C394.505 84.5604 394.308 84.5616 394.184 84.4435C392.54 82.9116 390.357 82.0578 388.088 82.0577C385.819 82.0579 383.637 82.9116 381.993 84.4435C381.869 84.5617 381.671 84.5607 381.549 84.4406L380.366 83.2697C380.304 83.2087 380.269 83.126 380.27 83.0402C380.271 82.9543 380.306 82.8718 380.369 82.8117Z" fill="white"/>
<path d="M360.311 86.1826C360.814 86.1828 361.221 86.5901 361.222 87.0928V88.9141C361.222 89.4168 360.814 89.8241 360.311 89.8242H359.4C358.898 89.824 358.49 89.4168 358.49 88.9141V87.0928C358.49 86.5901 358.898 86.1828 359.4 86.1826H360.311ZM364.56 84.3613C365.063 84.3614 365.47 84.7689 365.471 85.2715V88.9141C365.471 89.4169 365.063 89.8241 364.56 89.8242H363.649C363.147 89.824 362.739 89.4168 362.739 88.9141V85.2715C362.739 84.769 363.147 84.3616 363.649 84.3613H364.56ZM368.809 82.2373C369.312 82.2373 369.72 82.6446 369.72 83.1475V88.9141C369.72 89.4169 369.312 89.8242 368.809 89.8242H367.899C367.396 89.8242 366.988 89.4169 366.988 88.9141V83.1475C366.988 82.6446 367.396 82.2373 367.899 82.2373H368.809ZM373.058 80.1123C373.561 80.1123 373.968 80.5198 373.969 81.0225V88.9141C373.969 89.4169 373.561 89.8242 373.058 89.8242H372.148C371.645 89.8242 371.237 89.4169 371.237 88.9141V81.0225C371.237 80.5198 371.646 80.1123 372.148 80.1123H373.058Z" fill="white"/>
<path d="M108.218 81.043C108.714 81.0466 109.203 81.1372 109.685 81.3146C110.166 81.4921 110.601 81.7818 110.988 82.1837C111.38 82.5857 111.691 83.1289 111.923 83.8134C112.158 84.4942 112.278 85.3416 112.281 86.3556C112.281 87.3298 112.183 88.1971 111.988 88.9576C111.792 89.7145 111.512 90.3536 111.146 90.8751C110.784 91.3966 110.344 91.7932 109.826 92.0648C109.308 92.3364 108.725 92.4722 108.077 92.4722C107.414 92.4722 106.826 92.3418 106.311 92.0811C105.797 91.8203 105.379 91.46 105.057 91.0001C104.734 90.5365 104.533 90.0042 104.454 89.403H106.11C106.219 89.881 106.44 90.2685 106.773 90.5655C107.11 90.8588 107.544 91.0055 108.077 91.0055C108.892 91.0055 109.527 90.6506 109.983 89.9408C110.44 89.2274 110.67 88.2315 110.673 86.9531H110.586C110.398 87.2646 110.163 87.5326 109.88 87.7571C109.601 87.9816 109.288 88.1554 108.94 88.2786C108.593 88.4017 108.222 88.4633 107.827 88.4633C107.186 88.4633 106.603 88.3057 106.078 87.9907C105.553 87.6756 105.134 87.2429 104.823 86.6924C104.512 86.1419 104.356 85.5136 104.356 84.8075C104.356 84.1049 104.515 83.4675 104.834 82.8953C105.156 82.3232 105.605 81.8705 106.181 81.5373C106.76 81.2005 107.439 81.0358 108.218 81.043ZM108.223 82.4553C107.8 82.4553 107.418 82.5604 107.077 82.7704C106.74 82.9768 106.474 83.2575 106.279 83.6124C106.083 83.9637 105.985 84.3548 105.985 84.7857C105.985 85.2167 106.08 85.6078 106.268 85.9591C106.46 86.3067 106.721 86.5838 107.05 86.7902C107.383 86.993 107.764 87.0944 108.191 87.0944C108.51 87.0944 108.807 87.0328 109.082 86.9097C109.357 86.7866 109.598 86.6163 109.804 86.3991C110.011 86.1782 110.172 85.9283 110.288 85.6494C110.404 85.3706 110.461 85.0772 110.461 84.7694C110.461 84.3602 110.364 83.98 110.168 83.6287C109.976 83.2774 109.712 82.9949 109.375 82.7813C109.038 82.564 108.654 82.4553 108.223 82.4553ZM114.971 90.9403C114.674 90.9403 114.419 90.8353 114.205 90.6252C113.992 90.4116 113.885 90.1545 113.885 89.8539C113.885 89.5569 113.992 89.3034 114.205 89.0934C114.419 88.8797 114.674 88.7729 114.971 88.7729C115.268 88.7729 115.524 88.8797 115.737 89.0934C115.951 89.3034 116.058 89.5569 116.058 89.8539C116.058 90.0531 116.007 90.2359 115.906 90.4025C115.808 90.5655 115.677 90.6959 115.514 90.7936C115.351 90.8914 115.17 90.9403 114.971 90.9403ZM114.971 85.367C114.674 85.367 114.419 85.2619 114.205 85.0519C113.992 84.8382 113.885 84.5811 113.885 84.2805C113.885 83.9836 113.992 83.7301 114.205 83.52C114.419 83.3064 114.674 83.1995 114.971 83.1995C115.268 83.1995 115.524 83.3064 115.737 83.52C115.951 83.7301 116.058 83.9836 116.058 84.2805C116.058 84.4797 116.007 84.6626 115.906 84.8292C115.808 84.9921 115.677 85.1225 115.514 85.2203C115.351 85.3181 115.17 85.367 114.971 85.367ZM117.847 92.3201V91.1033L121.612 87.203C122.014 86.7793 122.345 86.4081 122.606 86.0894C122.87 85.7671 123.068 85.4611 123.198 85.1714C123.328 84.8817 123.393 84.5739 123.393 84.2479C123.393 83.8786 123.307 83.5599 123.133 83.2919C122.959 83.0203 122.722 82.8121 122.421 82.6672C122.121 82.5187 121.782 82.4445 121.405 82.4445C121.007 82.4445 120.659 82.526 120.362 82.6889C120.065 82.8519 119.837 83.0818 119.678 83.3788C119.519 83.6758 119.439 84.0234 119.439 84.4218H117.836C117.836 83.7446 117.992 83.1525 118.304 82.6455C118.615 82.1385 119.042 81.7455 119.586 81.4667C120.129 81.1842 120.746 81.043 121.438 81.043C122.137 81.043 122.752 81.1824 123.285 81.4613C123.821 81.7365 124.239 82.1131 124.54 82.5911C124.84 83.0656 124.991 83.6015 124.991 84.1991C124.991 84.6119 124.913 85.0157 124.757 85.4104C124.605 85.8052 124.339 86.2452 123.958 86.7304C123.578 87.2121 123.049 87.7969 122.372 88.485L120.161 90.7991V90.8806H125.17V92.3201H117.847ZM127.239 92.3201L132.095 82.7161V82.6346H126.479V81.1951H133.834V82.6835L128.994 92.3201H127.239Z" fill="white"/>
<defs>
<linearGradient id="paint0_linear_46_183" x1="467.427" y1="254.382" x2="467.427" y2="355.679" gradientUnits="userSpaceOnUse">
<stop stop-color="#68595F"/>
<stop offset="0.02" stop-color="#896E80"/>
<stop offset="0.04" stop-color="#5E3B5B"/>
<stop offset="0.08" stop-color="#2B1D2A"/>
<stop offset="0.11" stop-color="#704A6A"/>
<stop offset="0.9" stop-color="#615060"/>
<stop offset="0.94" stop-color="#2B1D2A"/>
<stop offset="0.96" stop-color="#5E3B5B"/>
<stop offset="0.98" stop-color="#845675"/>
<stop offset="1" stop-color="#5B4A5C"/>
</linearGradient>
<linearGradient id="paint1_linear_46_183" x1="469.227" y1="254.402" x2="469.227" y2="355.679" gradientUnits="userSpaceOnUse">
<stop stop-color="#676067"/>
<stop offset="0.06" stop-color="#654E63"/>
<stop offset="0.19" stop-color="#786F77"/>
<stop offset="0.81" stop-color="#786F77"/>
<stop offset="0.92" stop-color="#654E63"/>
<stop offset="1" stop-color="#676067"/>
</linearGradient>
<linearGradient id="paint2_linear_46_183" x1="54.4327" y1="233.058" x2="54.4327" y2="297.225" gradientUnits="userSpaceOnUse">
<stop stop-color="#68595F"/>
<stop offset="0.02" stop-color="#896E80"/>
<stop offset="0.04" stop-color="#5E3B5B"/>
<stop offset="0.08" stop-color="#2D1E2C"/>
<stop offset="0.11" stop-color="#704A6A"/>
<stop offset="0.9" stop-color="#615060"/>
<stop offset="0.94" stop-color="#2D1E2C"/>
<stop offset="0.96" stop-color="#5E3B5B"/>
<stop offset="0.98" stop-color="#845675"/>
<stop offset="1" stop-color="#5B4A5C"/>
</linearGradient>
<linearGradient id="paint3_linear_46_183" x1="53.3959" y1="233.078" x2="53.3959" y2="297.225" gradientUnits="userSpaceOnUse">
<stop stop-color="#676067"/>
<stop offset="0.06" stop-color="#654E63"/>
<stop offset="0.19" stop-color="#786F77"/>
<stop offset="0.81" stop-color="#786F77"/>
<stop offset="0.92" stop-color="#654E63"/>
<stop offset="1" stop-color="#676067"/>
</linearGradient>
<linearGradient id="paint4_linear_46_183" x1="55.8413" y1="297.245" x2="55.8413" y2="233.058" gradientUnits="userSpaceOnUse">
<stop stop-color="#68595F"/>
<stop offset="0.05" stop-color="#2D1E2C"/>
<stop offset="0.52" stop-color="#5E3B5B"/>
<stop offset="0.96" stop-color="#2D1E2C"/>
<stop offset="1" stop-color="#5B4A5C"/>
</linearGradient>
<linearGradient id="paint5_linear_46_183" x1="54.4327" y1="313.795" x2="54.4327" y2="377.962" gradientUnits="userSpaceOnUse">
<stop stop-color="#68595F"/>
<stop offset="0.02" stop-color="#896E80"/>
<stop offset="0.04" stop-color="#5E3B5B"/>
<stop offset="0.08" stop-color="#2D1E2C"/>
<stop offset="0.11" stop-color="#704A6A"/>
<stop offset="0.9" stop-color="#615060"/>
<stop offset="0.94" stop-color="#2D1E2C"/>
<stop offset="0.96" stop-color="#5E3B5B"/>
<stop offset="0.98" stop-color="#845675"/>
<stop offset="1" stop-color="#5B4A5C"/>
</linearGradient>
<linearGradient id="paint6_linear_46_183" x1="53.3959" y1="313.795" x2="53.3959" y2="377.962" gradientUnits="userSpaceOnUse">
<stop stop-color="#676067"/>
<stop offset="0.06" stop-color="#654E63"/>
<stop offset="0.19" stop-color="#786F77"/>
<stop offset="0.81" stop-color="#786F77"/>
<stop offset="0.92" stop-color="#654E63"/>
<stop offset="1" stop-color="#676067"/>
</linearGradient>
<linearGradient id="paint7_linear_46_183" x1="55.8413" y1="377.962" x2="55.8413" y2="313.795" gradientUnits="userSpaceOnUse">
<stop stop-color="#68595F"/>
<stop offset="0.05" stop-color="#2D1E2C"/>
<stop offset="0.52" stop-color="#5E3B5B"/>
<stop offset="0.96" stop-color="#2D1E2C"/>
<stop offset="1" stop-color="#5B4A5C"/>
</linearGradient>
<linearGradient id="paint8_linear_46_183" x1="54.4327" y1="172.433" x2="54.4327" y2="205.357" gradientUnits="userSpaceOnUse">
<stop stop-color="#68595F"/>
<stop offset="0.02" stop-color="#896E80"/>
<stop offset="0.04" stop-color="#5E3B5B"/>
<stop offset="0.08" stop-color="#2D1E2C"/>
<stop offset="0.11" stop-color="#704A6A"/>
<stop offset="0.9" stop-color="#615060"/>
<stop offset="0.94" stop-color="#2D1E2C"/>
<stop offset="0.96" stop-color="#5E3B5B"/>
<stop offset="0.98" stop-color="#845675"/>
<stop offset="1" stop-color="#5B4A5C"/>
</linearGradient>
<linearGradient id="paint9_linear_46_183" x1="53.3959" y1="172.452" x2="53.3959" y2="205.377" gradientUnits="userSpaceOnUse">
<stop stop-color="#676067"/>
<stop offset="0.06" stop-color="#654E63"/>
<stop offset="0.19" stop-color="#786F77"/>
<stop offset="0.81" stop-color="#786F77"/>
<stop offset="0.92" stop-color="#654E63"/>
<stop offset="1" stop-color="#676067"/>
</linearGradient>
<linearGradient id="paint10_linear_46_183" x1="55.8413" y1="205.377" x2="55.8413" y2="172.433" gradientUnits="userSpaceOnUse">
<stop stop-color="#68595F"/>
<stop offset="0.05" stop-color="#2D1E2C"/>
<stop offset="0.52" stop-color="#5E3B5B"/>
<stop offset="0.96" stop-color="#2D1E2C"/>
<stop offset="1" stop-color="#5B4A5C"/>
</linearGradient>
<linearGradient id="paint11_linear_46_183" x1="288.66" y1="90.5615" x2="288.66" y2="79.0976" gradientUnits="userSpaceOnUse">
<stop stop-color="#666666"/>
<stop offset="1" stop-color="#010104"/>
</linearGradient>
<linearGradient id="paint12_linear_46_183" x1="288.661" y1="81.9735" x2="288.661" y2="88.5271" gradientUnits="userSpaceOnUse">
<stop stop-color="#0B131C"/>
<stop offset="1" stop-color="#354039"/>
</linearGradient>
<linearGradient id="paint13_linear_46_183" x1="290.715" y1="87.1773" x2="286.606" y2="83.0495" gradientUnits="userSpaceOnUse">
<stop stop-color="#231F20"/>
<stop offset="0.08" stop-color="#222326"/>
<stop offset="0.2" stop-color="#1F2C37"/>
<stop offset="0.33" stop-color="#1A3D54"/>
<stop offset="0.47" stop-color="#13537C"/>
<stop offset="0.62" stop-color="#0B71AE"/>
<stop offset="0.78" stop-color="#0095EE"/>
<stop offset="0.8" stop-color="#0488D6"/>
<stop offset="0.84" stop-color="#0D689F"/>
<stop offset="0.88" stop-color="#154E72"/>
<stop offset="0.91" stop-color="#1B394E"/>
<stop offset="0.95" stop-color="#1F2B35"/>
<stop offset="0.98" stop-color="#222225"/>
<stop offset="1" stop-color="#231F20"/>
</linearGradient>
<radialGradient id="paint14_radial_46_183" cx="0" cy="0" r="1" gradientUnits="userSpaceOnUse" gradientTransform="translate(288.66 85.1036) scale(2.91488 2.91489)">
<stop stop-color="#231F20"/>
<stop offset="0.2" stop-color="#175168"/>
<stop offset="0.38" stop-color="#0D78A2"/>
<stop offset="0.54" stop-color="#0695CB"/>
<stop offset="0.66" stop-color="#02A7E5"/>
<stop offset="0.73" stop-color="#00ADEE"/>
<stop offset="0.76" stop-color="#02A6E4"/>
<stop offset="0.81" stop-color="#0693C8"/>
<stop offset="0.87" stop-color="#0E749C"/>
<stop offset="0.94" stop-color="#184A5F"/>
<stop offset="1" stop-color="#231F20"/>
</radialGradient>
<radialGradient id="paint15_radial_46_183" cx="0" cy="0" r="1" gradientUnits="userSpaceOnUse" gradientTransform="translate(290.265 86.6294) scale(1.03684 1.03684)">
<stop stop-color="#CCCCCC"/>
<stop offset="0.02" stop-color="#C4C4C4"/>
<stop offset="0.22" stop-color="#898989"/>
<stop offset="0.41" stop-color="#585858"/>
<stop offset="0.59" stop-color="#323232"/>
<stop offset="0.75" stop-color="#161616"/>
<stop offset="0.89" stop-color="#060606"/>
<stop offset="1"/>
</radialGradient>
</defs>
</svg>
