  <svg width="61" height="61" viewBox="0 0 61 61" fill="none" xmlns="http://www.w3.org/2000/svg">
<circle cx="30.5" cy="30.5" r="30" fill="#716FFF"/>
<path d="M30.4998 41.9921C30.2859 41.9921 30.0868 41.9773 29.9025 41.9478C29.7174 41.919 29.5471 41.8755 29.3915 41.8171C26.9804 40.9227 25.0068 39.3282 23.4707 37.0338C21.9346 34.7393 21.1665 32.2116 21.1665 29.4505V23.938C21.1665 23.4518 21.3077 23.0143 21.59 22.6255C21.8716 22.2366 22.2359 21.9546 22.6832 21.7796L29.6832 19.1546C29.9554 19.0574 30.2276 19.0088 30.4998 19.0088C30.7721 19.0088 31.0443 19.0574 31.3165 19.1546L38.3165 21.7796C38.7637 21.9546 39.1285 22.2366 39.4108 22.6255C39.6924 23.0143 39.8332 23.4518 39.8332 23.938V29.4505C39.8332 32.2116 39.0651 34.7393 37.529 37.0338C35.9929 39.3282 34.0193 40.9227 31.6082 41.8171C31.4526 41.8755 31.2823 41.919 31.0972 41.9478C30.9128 41.9773 30.7137 41.9921 30.4998 41.9921ZM30.4998 39.7171C32.3859 39.1338 33.9609 37.9819 35.2248 36.2615C36.4887 34.5402 37.2276 32.6199 37.4415 30.5005H30.4998V21.313L23.4998 23.938V29.9755C23.4998 30.1116 23.5193 30.2866 23.5582 30.5005H30.4998V39.7171Z" fill="white"/>
</svg>