
            <svg class="w-full " width="732" height="588" viewBox="0 0 732 588" fill="none" xmlns="http://www.w3.org/2000/svg">
<path d="M610.315 148.598C610.315 130.495 595.639 115.819 577.536 115.819H126.279C108.176 115.819 93.5 130.495 93.5 148.598V587.836H610.315V148.598Z" fill="#B3B3B3" fill-opacity="0.12"/>
<mask id="mask0_75_5948" style="mask-type:alpha" maskUnits="userSpaceOnUse" x="120" y="0" width="458" height="587">
<rect x="120.372" width="456.72" height="586.743" fill="#D9D9D9"/>
</mask>
<g mask="url(#mask0_75_5948)">
<path d="M493.561 38.8032H215.258C178.988 38.8032 149.585 68.206 149.585 104.476V813.576C149.585 849.846 178.988 879.249 215.258 879.249H493.561C529.831 879.249 559.234 849.846 559.234 813.576V104.476C559.234 68.206 529.831 38.8032 493.561 38.8032Z" fill="#5E3B5B"/>
<g style="mix-blend-mode:screen">
<path d="M493.052 40.7595H215.688C207.252 40.7595 198.899 42.4214 191.106 45.6502C183.312 48.8791 176.231 53.6116 170.267 59.5776C164.303 65.5435 159.573 72.626 156.346 80.4204C153.12 88.2148 151.46 96.5685 151.463 105.004V813.067C151.463 830.101 158.229 846.437 170.274 858.482C182.319 870.526 198.654 877.293 215.688 877.293H493.052C510.086 877.293 526.422 870.526 538.466 858.482C550.511 846.437 557.278 830.101 557.278 813.067V105.004C557.28 96.5685 555.621 88.2148 552.394 80.4204C549.168 72.626 544.437 65.5435 538.473 59.5776C532.509 53.6116 525.428 48.8791 517.635 45.6502C509.841 42.4214 501.488 40.7595 493.052 40.7595ZM555.321 812.539C555.321 820.786 553.697 828.952 550.541 836.571C547.385 844.19 542.76 851.112 536.928 856.944C531.097 862.775 524.174 867.4 516.555 870.556C508.937 873.712 500.771 875.336 492.524 875.336H216.275C199.624 875.331 183.656 868.713 171.883 856.937C160.111 845.16 153.497 829.191 153.497 812.539V105.513C153.497 88.8615 160.111 72.8918 171.883 61.1156C183.656 49.3394 199.624 42.721 216.275 42.7158H492.524C500.771 42.7158 508.937 44.3401 516.555 47.4959C524.174 50.6518 531.097 55.2774 536.928 61.1087C542.76 66.9399 547.385 73.8626 550.541 81.4816C553.697 89.1005 555.321 97.2664 555.321 105.513V812.539Z" fill="#706F6F"/>
</g>
<path d="M491.917 45.2199H216.921C183.567 45.2199 156.53 72.2579 156.53 105.611V812.441C156.53 845.794 183.567 872.832 216.921 872.832H491.917C525.271 872.832 552.308 845.794 552.308 812.441V105.611C552.308 72.2579 525.271 45.2199 491.917 45.2199Z" fill="#1D1D1B"/>
<path d="M460.227 59.7747H492.212C504.696 59.7747 516.668 64.7337 525.495 73.5607C534.322 82.3878 539.281 94.3599 539.281 106.843V813.537C539.281 826.02 534.322 837.992 525.495 846.819C516.668 855.646 504.696 860.605 492.212 860.605H216.589C204.109 860.6 192.142 855.639 183.319 846.812C174.496 837.986 169.54 826.017 169.54 813.537V106.843C169.54 94.3633 174.496 82.3941 183.319 73.5676C192.142 64.7411 204.109 59.7798 216.589 59.7747H460.227Z" fill="#1E1E1E"/>
<path d="M561.64 253.527H559.234V354.824H561.64V253.527Z" fill="url(#paint0_linear_75_5948)"/>
<path d="M561.62 354.843V253.566L562.833 254.877C562.227 265.675 562.266 342.773 562.833 353.533L561.62 354.843Z" fill="url(#paint1_linear_75_5948)"/>
<path d="M148.117 232.223H146.748V296.389H148.117V232.223Z" fill="url(#paint2_linear_75_5948)"/>
<path d="M146.748 296.389V232.242L146.063 233.064C146.396 239.911 146.376 288.74 146.063 295.568L146.748 296.389Z" fill="url(#paint3_linear_75_5948)"/>
<path d="M149.585 232.223H148.118V296.389H149.585V232.223Z" fill="url(#paint4_linear_75_5948)"/>
<path d="M148.117 312.939H146.748V377.106H148.117V312.939Z" fill="url(#paint5_linear_75_5948)"/>
<path d="M146.748 377.126V312.959L146.063 313.8C146.396 320.628 146.376 369.476 146.063 376.284L146.748 377.126Z" fill="url(#paint6_linear_75_5948)"/>
<path d="M149.585 312.959H148.118V377.126H149.585V312.959Z" fill="url(#paint7_linear_75_5948)"/>
<path d="M148.117 171.597H146.748V204.541H148.117V171.597Z" fill="url(#paint8_linear_75_5948)"/>
<path d="M146.748 204.541V171.616L146.063 172.399C146.396 178.855 146.376 197.303 146.063 203.7L146.748 204.541Z" fill="url(#paint9_linear_75_5948)"/>
<path d="M149.585 171.597H148.118V204.541H149.585V171.597Z" fill="url(#paint10_linear_75_5948)"/>
<path d="M385.358 97.6096H319.9C318.149 97.6096 316.415 97.2644 314.797 96.5937C313.18 95.9229 311.71 94.9398 310.473 93.7007C309.236 92.4615 308.255 90.9905 307.586 89.3719C306.918 87.7533 306.575 86.0188 306.578 84.2677C306.57 82.5132 306.909 80.7745 307.575 79.1514C308.241 77.5283 309.221 76.0527 310.459 74.8094C311.697 73.566 313.168 72.5795 314.788 71.9063C316.408 71.2331 318.146 70.8866 319.9 70.8866H385.358C388.891 70.8866 392.28 72.2902 394.778 74.7886C397.277 77.2871 398.68 80.6757 398.68 84.209C398.691 85.9651 398.354 87.7059 397.689 89.3313C397.024 90.9567 396.044 92.4346 394.806 93.68C393.568 94.9254 392.096 95.9137 390.474 96.5881C388.853 97.2625 387.114 97.6097 385.358 97.6096Z" fill="#1D1D1B"/>
<path d="M381.66 90.0974C384.88 90.0974 387.49 87.4874 387.49 84.2677C387.49 81.048 384.88 78.4379 381.66 78.4379C378.441 78.4379 375.831 81.048 375.831 84.2677C375.831 87.4874 378.441 90.0974 381.66 90.0974Z" fill="url(#paint11_linear_75_5948)"/>
<path d="M381.66 87.5933C383.497 87.5933 384.986 86.1043 384.986 84.2676C384.986 82.4309 383.497 80.9419 381.66 80.9419C379.824 80.9419 378.335 82.4309 378.335 84.2676C378.335 86.1043 379.824 87.5933 381.66 87.5933Z" fill="url(#paint12_linear_75_5948)"/>
<path d="M384.575 84.2676C384.579 84.845 384.412 85.4104 384.094 85.8924C383.776 86.3743 383.322 86.7509 382.79 86.9745C382.257 87.1982 381.671 87.2587 381.104 87.1484C380.537 87.0382 380.016 86.7621 379.606 86.3553C379.197 85.9484 378.917 85.4291 378.803 84.8631C378.689 84.2971 378.746 83.7101 378.966 83.1763C379.186 82.6425 379.559 82.1861 380.039 81.8649C380.519 81.5438 381.083 81.3723 381.661 81.3723C382.43 81.3723 383.169 81.6767 383.715 82.2191C384.261 82.7616 384.57 83.498 384.575 84.2676Z" fill="url(#paint13_linear_75_5948)"/>
<path style="mix-blend-mode:multiply" d="M384.575 84.2676C384.579 84.845 384.412 85.4104 384.094 85.8924C383.776 86.3743 383.322 86.7509 382.79 86.9745C382.257 87.1982 381.671 87.2587 381.104 87.1484C380.537 87.0382 380.016 86.7621 379.606 86.3553C379.197 85.9484 378.917 85.4291 378.803 84.8631C378.689 84.2971 378.746 83.7101 378.966 83.1763C379.186 82.6425 379.559 82.1861 380.039 81.8649C380.519 81.5438 381.083 81.3723 381.661 81.3723C382.43 81.3723 383.169 81.6767 383.715 82.2191C384.261 82.7616 384.57 83.498 384.575 84.2676Z" fill="url(#paint14_radial_75_5948)"/>
<path style="mix-blend-mode:screen" d="M384.301 85.7935C384.301 85.5185 384.192 85.2547 383.998 85.0603C383.803 84.8659 383.54 84.7566 383.265 84.7566C382.99 84.7566 382.726 84.8659 382.531 85.0603C382.337 85.2547 382.228 85.5185 382.228 85.7935C382.228 86.0684 382.337 86.3322 382.531 86.5266C382.726 86.7211 382.99 86.8303 383.265 86.8303C383.54 86.8303 383.803 86.7211 383.998 86.5266C384.192 86.3322 384.301 86.0684 384.301 85.7935Z" fill="url(#paint15_radial_75_5948)"/>
<path d="M304.366 456.354C303.932 460.835 306.09 472.314 310.638 478.625C310.699 478.71 310.582 478.813 310.508 478.739C303.784 472.001 302.924 460.688 302.898 455.546C302.897 455.392 303 455.263 303.149 455.223L322.459 450.085C322.569 450.056 322.676 450.144 322.672 450.258C322.412 459.133 323.343 463.61 324.206 465.502C324.437 466.009 324.915 465.8 324.899 465.243C324.745 459.754 326.215 453.191 327.587 449.717C327.754 449.294 327.491 448.815 327.04 448.751L312.186 446.623C311.869 446.578 311.563 446.76 311.452 447.061L309.741 451.722C309.712 451.801 309.607 451.794 309.596 451.711C309.386 450.101 310.477 447.119 311.161 445.577C311.219 445.444 311.357 445.366 311.501 445.381L330.731 447.325C330.856 447.337 330.925 447.475 330.861 447.583C328.293 451.949 327.632 457.981 327.625 460.491C328.999 454.742 333.957 449.647 335.85 447.184C336.102 446.855 335.967 446.393 335.588 446.223L322.203 440.213C321.931 440.091 321.611 440.16 321.415 440.384L318.01 444.253C318.59 442.513 320.539 439.974 321.584 438.751C321.68 438.639 321.838 438.604 321.973 438.664L339.742 446.433C339.859 446.484 339.879 446.642 339.78 446.723C329.067 455.447 327.061 468.493 327.4 474.424C327.41 474.584 327.21 474.665 327.101 474.547C319.852 466.645 320.62 458.424 320.132 453.537C320.093 453.15 319.726 452.891 319.344 452.966L304.891 455.793C304.611 455.848 304.394 456.07 304.366 456.354Z" fill="white"/>
<path d="M314.038 469.052C314.334 469.256 314.648 469.363 314.978 469.374C315.308 469.384 315.617 469.32 315.907 469.183C316.197 469.045 316.449 468.843 316.665 468.575C316.874 468.307 317.013 467.996 317.08 467.643C317.119 467.438 317.138 467.185 317.137 466.883C317.142 466.576 317.127 466.252 317.092 465.911C317.056 465.564 317.007 465.208 316.943 464.844C316.874 464.48 316.793 464.134 316.701 463.804C316.603 463.474 316.494 463.179 316.374 462.917C316.248 462.65 316.113 462.44 315.971 462.287C315.834 462.145 315.657 462.052 315.441 462.007C315.219 461.962 314.997 461.96 314.775 462.001C314.553 462.041 314.354 462.122 314.178 462.242C313.997 462.362 313.88 462.516 313.83 462.704C313.813 462.76 313.816 462.849 313.839 462.968C313.862 463.087 313.894 463.227 313.934 463.386C313.975 463.539 314.024 463.701 314.081 463.872C314.133 464.037 314.184 464.199 314.236 464.358C314.288 464.511 314.334 464.648 314.374 464.767C314.414 464.886 314.44 464.975 314.452 465.031C314.469 465.117 314.498 465.23 314.538 465.373C314.578 465.509 314.619 465.66 314.659 465.824C314.699 465.984 314.734 466.143 314.763 466.302C314.786 466.461 314.798 466.603 314.798 466.729C314.793 466.854 314.771 466.951 314.731 467.019C314.686 467.087 314.609 467.11 314.501 467.088C314.438 467.077 314.381 467.026 314.33 466.935C314.273 466.838 314.224 466.719 314.184 466.577C314.138 466.435 314.094 466.279 314.054 466.108C314.014 465.932 313.976 465.758 313.941 465.588C313.901 465.417 313.861 465.258 313.82 465.11C313.78 464.962 313.734 464.84 313.683 464.744C313.643 464.67 313.574 464.607 313.477 464.557C313.38 464.5 313.275 464.461 313.161 464.438C313.047 464.416 312.933 464.408 312.82 464.414C312.706 464.42 312.615 464.446 312.547 464.491C312.462 464.548 312.394 464.648 312.343 464.791C312.287 464.927 312.239 465.084 312.199 465.26C312.16 465.437 312.124 465.622 312.09 465.816C312.057 466.003 312.02 466.177 311.981 466.336C311.942 466.49 311.894 466.618 311.837 466.721C311.78 466.818 311.707 466.866 311.616 466.867C311.519 466.867 311.456 466.822 311.427 466.731C311.393 466.634 311.381 466.512 311.392 466.364C311.403 466.21 311.431 466.042 311.476 465.86C311.515 465.672 311.557 465.487 311.602 465.305C311.647 465.117 311.69 465.071 311.729 464.912C311.768 464.747 311.791 464.613 311.796 464.511C311.807 464.272 311.758 464.07 311.649 463.905C311.54 463.735 311.398 463.607 311.221 463.523C311.044 463.438 310.848 463.401 310.632 463.414C310.41 463.42 310.194 463.477 309.984 463.586C309.853 463.655 309.74 463.778 309.644 463.954C309.547 464.125 309.468 464.333 309.407 464.578C309.345 464.817 309.302 464.954 309.281 465.244C309.259 465.534 309.26 465.83 309.283 466.132C309.307 466.433 309.356 466.729 309.431 467.019C309.506 467.309 309.607 467.573 309.733 467.812C309.933 468.198 310.19 468.501 310.504 468.722C310.817 468.943 311.145 469.073 311.486 469.112C311.828 469.15 312.16 469.092 312.484 468.938C312.808 468.777 313.08 468.509 313.301 468.133C313.41 468.298 313.518 468.465 313.627 468.635C313.735 468.8 313.872 468.939 314.038 469.052Z" fill="white"/>
<circle cx="318.007" cy="468.371" r="0.55847" transform="rotate(0.182131 318.007 468.371)" fill="white"/>
<path d="M349.244 468.026L344.596 451.938H347.754L350.872 463.497H350.972L354.467 451.938H357.169L360.843 463.497H360.923L364.021 451.938H367.199L362.571 468.026H359.512L355.838 456.168H355.758L352.283 468.026H349.244ZM371.369 468.245C369.979 468.245 368.887 467.907 368.092 467.232C367.311 466.556 366.92 465.662 366.92 464.55C366.92 463.385 367.318 462.485 368.112 461.849C368.92 461.213 370.078 460.896 371.588 460.896H375.223V460.419C375.223 458.962 374.375 458.234 372.68 458.234C371.237 458.234 370.37 458.75 370.078 459.783H367.119C367.371 458.512 367.973 457.545 368.926 456.883C369.88 456.208 371.131 455.87 372.68 455.87C374.428 455.87 375.759 456.268 376.673 457.062C377.586 457.843 378.043 458.989 378.043 460.498V465.067H379.453V468.026H376.414V466.119H375.58C375.17 466.795 374.614 467.318 373.912 467.688C373.223 468.059 372.376 468.245 371.369 468.245ZM371.806 465.96C372.455 465.96 373.038 465.841 373.554 465.603C374.071 465.351 374.475 465.02 374.766 464.61C375.07 464.186 375.223 463.716 375.223 463.2V462.921H371.747C370.409 462.921 369.741 463.418 369.741 464.411C369.741 464.901 369.919 465.285 370.277 465.563C370.648 465.828 371.158 465.96 371.806 465.96ZM380.78 468.026V466.199L387.295 458.472H381.137V456.109H390.989V457.936L384.474 465.662H391.108V468.026H380.78ZM398.438 468.264C397.153 468.264 396.034 468.013 395.081 467.51C394.141 466.993 393.406 466.272 392.876 465.345C392.36 464.418 392.101 463.325 392.101 462.067C392.101 460.796 392.36 459.697 392.876 458.77C393.406 457.843 394.147 457.128 395.101 456.625C396.054 456.122 397.166 455.87 398.438 455.87C399.735 455.87 400.847 456.122 401.774 456.625C402.714 457.128 403.443 457.843 403.959 458.77C404.476 459.697 404.734 460.796 404.734 462.067C404.734 463.325 404.476 464.424 403.959 465.365C403.443 466.291 402.714 467.006 401.774 467.51C400.834 468.013 399.722 468.264 398.438 468.264ZM398.438 465.682C399.497 465.682 400.318 465.365 400.9 464.729C401.483 464.08 401.774 463.193 401.774 462.067C401.774 460.929 401.483 460.041 400.9 459.406C400.318 458.77 399.497 458.453 398.438 458.453C397.365 458.453 396.531 458.77 395.935 459.406C395.352 460.041 395.061 460.922 395.061 462.048C395.061 463.186 395.352 464.08 395.935 464.729C396.531 465.365 397.365 465.682 398.438 465.682Z" fill="white"/>
</g>
<rect opacity="0.35" x="496.135" y="79.5193" width="18.9389" height="9.22666" rx="2.36737" stroke="white" stroke-width="1.09263"/>
<path opacity="0.4" d="M516.531 82.3116V85.9537C517.266 85.6453 517.745 84.9277 517.745 84.1327C517.745 83.3377 517.266 82.6201 516.531 82.3116Z" fill="white"/>
<rect x="497.774" y="80.7941" width="16.3895" height="6.67719" rx="1.45684" fill="white"/>
<path d="M479.815 87.5704C481.127 86.4835 483.05 86.4835 484.362 87.5704C484.428 87.6288 484.466 87.711 484.468 87.7979C484.47 87.8849 484.435 87.9693 484.372 88.0303L482.317 90.0606C482.257 90.1203 482.174 90.1544 482.088 90.1544C482.003 90.1543 481.921 90.1203 481.861 90.0606L479.805 88.0303C479.742 87.9693 479.707 87.885 479.709 87.7979C479.71 87.711 479.749 87.6287 479.815 87.5704ZM477.115 84.6485C479.932 82.0183 484.294 82.0182 487.111 84.6485C487.174 84.7102 487.211 84.7951 487.211 84.8839C487.212 84.9726 487.178 85.0582 487.116 85.1212L485.932 86.3214C485.81 86.4439 485.613 86.4466 485.488 86.3272C484.563 85.4864 483.36 85.0206 482.112 85.0206C480.865 85.0211 479.662 85.487 478.738 86.3272C478.613 86.4465 478.415 86.4438 478.293 86.3214L477.11 85.1212C477.047 85.0583 477.013 84.9726 477.014 84.8839C477.015 84.7951 477.051 84.7102 477.115 84.6485ZM474.369 81.9766C478.684 77.9236 485.492 77.9236 489.808 81.9766C489.87 82.0368 489.906 82.1184 489.907 82.2042C489.907 82.29 489.873 82.3727 489.811 82.4337L488.627 83.6046C488.505 83.7246 488.308 83.7257 488.184 83.6075C486.54 82.0756 484.357 81.2218 482.088 81.2217C479.82 81.2219 477.637 82.0756 475.993 83.6075C475.869 83.7258 475.671 83.7248 475.549 83.6046L474.366 82.4337C474.304 82.3727 474.269 82.29 474.27 82.2042C474.271 82.1185 474.306 82.0367 474.369 81.9766Z" fill="white"/>
<path d="M454.312 85.3468C454.814 85.3469 455.222 85.7543 455.222 86.257V88.0782C455.222 88.581 454.814 88.9883 454.312 88.9884H453.4C452.898 88.9882 452.49 88.581 452.49 88.0782V86.257C452.49 85.7543 452.898 85.347 453.4 85.3468H454.312ZM458.561 83.5255C459.063 83.5256 459.47 83.9331 459.471 84.4357V88.0782C459.471 88.5811 459.063 88.9883 458.561 88.9884H457.649C457.147 88.9882 456.739 88.581 456.739 88.0782V84.4357C456.74 83.9332 457.147 83.5258 457.649 83.5255H458.561ZM462.81 81.4015C463.312 81.4015 463.72 81.8088 463.72 82.3116V88.0782C463.72 88.5811 463.312 88.9884 462.81 88.9884H461.899C461.397 88.9884 460.988 88.5811 460.988 88.0782V82.3116C460.988 81.8088 461.397 81.4015 461.899 81.4015H462.81ZM467.059 79.2765C467.561 79.2765 467.969 79.684 467.969 80.1866V88.0782C467.969 88.5811 467.561 88.9884 467.059 88.9884H466.148C465.646 88.9884 465.237 88.5811 465.237 88.0782V80.1866C465.238 79.6839 465.646 79.2765 466.148 79.2765H467.059Z" fill="white"/>
<path d="M201.218 80.2071C201.714 80.2108 202.203 80.3013 202.685 80.4788C203.166 80.6562 203.601 80.9459 203.988 81.3479C204.38 81.7499 204.691 82.2931 204.923 82.9775C205.158 83.6584 205.278 84.5058 205.281 85.5198C205.281 86.4939 205.183 87.3612 204.988 88.1217C204.792 88.8786 204.512 89.5178 204.146 90.0393C203.784 90.5608 203.344 90.9573 202.826 91.2289C202.308 91.5005 201.725 91.6363 201.077 91.6363C200.414 91.6363 199.826 91.506 199.311 91.2452C198.797 90.9845 198.379 90.6241 198.057 90.1642C197.734 89.7007 197.533 89.1683 197.454 88.5672H199.11C199.219 89.0452 199.44 89.4327 199.773 89.7296C200.11 90.023 200.544 90.1697 201.077 90.1697C201.892 90.1697 202.527 89.8148 202.983 89.105C203.44 88.3915 203.67 87.3956 203.673 86.1173H203.586C203.398 86.4287 203.163 86.6967 202.88 86.9212C202.601 87.1458 202.288 87.3196 201.94 87.4427C201.593 87.5659 201.222 87.6274 200.827 87.6274C200.186 87.6274 199.603 87.4699 199.078 87.1548C198.553 86.8398 198.134 86.407 197.823 85.8565C197.512 85.3061 197.356 84.6778 197.356 83.9716C197.356 83.2691 197.515 82.6317 197.834 82.0595C198.156 81.4873 198.605 81.0346 199.181 80.7015C199.76 80.3647 200.439 80.1999 201.218 80.2071ZM201.223 81.6195C200.8 81.6195 200.418 81.7245 200.077 81.9346C199.74 82.141 199.474 82.4216 199.279 82.7765C199.083 83.1278 198.985 83.5189 198.985 83.9499C198.985 84.3808 199.08 84.7719 199.268 85.1232C199.46 85.4709 199.721 85.7479 200.05 85.9543C200.383 86.1571 200.764 86.2585 201.191 86.2585C201.51 86.2585 201.807 86.197 202.082 86.0738C202.357 85.9507 202.598 85.7805 202.804 85.5632C203.011 85.3423 203.172 85.0924 203.288 84.8136C203.404 84.5347 203.461 84.2414 203.461 83.9336C203.461 83.5244 203.364 83.1441 203.168 82.7928C202.976 82.4416 202.712 82.1591 202.375 81.9454C202.038 81.7281 201.654 81.6195 201.223 81.6195ZM207.971 90.1045C207.674 90.1045 207.419 89.9994 207.205 89.7894C206.992 89.5757 206.885 89.3186 206.885 89.018C206.885 88.7211 206.992 88.4676 207.205 88.2575C207.419 88.0439 207.674 87.9371 207.971 87.9371C208.268 87.9371 208.524 88.0439 208.737 88.2575C208.951 88.4676 209.058 88.7211 209.058 89.018C209.058 89.2172 209.007 89.4001 208.906 89.5667C208.808 89.7296 208.677 89.86 208.514 89.9578C208.351 90.0556 208.17 90.1045 207.971 90.1045ZM207.971 84.5311C207.674 84.5311 207.419 84.4261 207.205 84.2161C206.992 84.0024 206.885 83.7453 206.885 83.4447C206.885 83.1477 206.992 82.8942 207.205 82.6842C207.419 82.4705 207.674 82.3637 207.971 82.3637C208.268 82.3637 208.524 82.4705 208.737 82.6842C208.951 82.8942 209.058 83.1477 209.058 83.4447C209.058 83.6439 209.007 83.8267 208.906 83.9933C208.808 84.1563 208.677 84.2867 208.514 84.3844C208.351 84.4822 208.17 84.5311 207.971 84.5311ZM210.847 91.4842V90.2674L214.612 86.3672C215.014 85.9435 215.345 85.5723 215.606 85.2536C215.87 84.9313 216.068 84.6253 216.198 84.3356C216.328 84.0458 216.393 83.738 216.393 83.4121C216.393 83.0427 216.307 82.724 216.133 82.456C215.959 82.1844 215.722 81.9762 215.421 81.8314C215.121 81.6829 214.782 81.6086 214.405 81.6086C214.007 81.6086 213.659 81.6901 213.362 81.8531C213.065 82.016 212.837 82.246 212.678 82.543C212.519 82.8399 212.439 83.1876 212.439 83.5859H210.836C210.836 82.9087 210.992 82.3166 211.304 81.8096C211.615 81.3026 212.042 80.9097 212.586 80.6309C213.129 80.3484 213.746 80.2071 214.438 80.2071C215.137 80.2071 215.752 80.3466 216.285 80.6254C216.821 80.9006 217.239 81.2773 217.54 81.7553C217.84 82.2297 217.991 82.7657 217.991 83.3632C217.991 83.776 217.913 84.1798 217.757 84.5746C217.605 84.9693 217.339 85.4093 216.958 85.8946C216.578 86.3762 216.049 86.9611 215.372 87.6491L213.161 89.9632V90.0447H218.17V91.4842H210.847ZM220.239 91.4842L225.095 81.8802V81.7988H219.479V80.3592H226.834V81.8476L221.994 91.4842H220.239Z" fill="white"/>
<g filter="url(#filter0_d_75_5948)">
<rect x="452.25" y="159.918" width="227.5" height="88" rx="20" fill="white"/>
</g>
<path d="M545.693 193.876H544.173V184.383H540.32V183.076H549.547V184.383H545.693V193.876ZM553.265 194.036C552.438 194.036 551.713 193.867 551.091 193.529C550.478 193.183 550.002 192.698 549.665 192.076C549.327 191.454 549.158 190.72 549.158 189.876C549.158 189.031 549.327 188.298 549.665 187.676C550.002 187.054 550.478 186.574 551.091 186.236C551.713 185.889 552.438 185.716 553.265 185.716C554.118 185.716 554.847 185.885 555.451 186.223C556.065 186.56 556.536 187.04 556.865 187.663C557.202 188.285 557.371 189.023 557.371 189.876C557.371 190.72 557.202 191.458 556.865 192.089C556.536 192.711 556.065 193.191 555.451 193.529C554.838 193.867 554.109 194.036 553.265 194.036ZM553.265 192.729C554.091 192.729 554.731 192.48 555.185 191.983C555.647 191.476 555.878 190.774 555.878 189.876C555.878 188.969 555.647 188.267 555.185 187.769C554.731 187.271 554.091 187.023 553.265 187.023C552.447 187.023 551.807 187.276 551.345 187.783C550.882 188.28 550.651 188.978 550.651 189.876C550.651 190.774 550.882 191.476 551.345 191.983C551.807 192.48 552.447 192.729 553.265 192.729ZM561.08 193.876C560.653 193.876 560.32 193.769 560.08 193.556C559.849 193.334 559.733 193.005 559.733 192.569V187.023H558.24V185.876H559.747V183.476H561.213V185.876H563.307V187.023H561.227V192.703H563.52V193.876H561.08ZM567.297 194.023C566.39 194.023 565.675 193.8 565.15 193.356C564.635 192.903 564.377 192.311 564.377 191.583C564.377 190.818 564.635 190.227 565.15 189.809C565.666 189.383 566.408 189.169 567.377 189.169H570.11V188.809C570.11 187.574 569.43 186.956 568.07 186.956C566.959 186.956 566.288 187.374 566.057 188.209H564.55C564.684 187.418 565.062 186.805 565.684 186.369C566.315 185.934 567.119 185.716 568.097 185.716C569.208 185.716 570.057 185.978 570.644 186.503C571.239 187.027 571.537 187.783 571.537 188.769V192.329H572.257V193.876H570.657V192.649H570.097C569.822 193.076 569.444 193.414 568.964 193.663C568.484 193.903 567.928 194.023 567.297 194.023ZM567.497 192.823C567.977 192.823 568.417 192.725 568.817 192.529C569.217 192.334 569.533 192.067 569.764 191.729C569.995 191.391 570.11 191.023 570.11 190.623V190.263H567.47C566.35 190.263 565.79 190.68 565.79 191.516C565.79 191.916 565.942 192.236 566.244 192.476C566.546 192.707 566.964 192.823 567.497 192.823ZM574.098 193.876V182.676H575.591V193.876H574.098ZM582.076 193.876V183.076H583.596V193.876H582.076ZM586.395 193.876V187.423H585.622V185.876H587.222V187.103H587.782C588.058 186.658 588.435 186.32 588.915 186.089C589.395 185.849 589.96 185.729 590.609 185.729C591.64 185.729 592.453 186.027 593.049 186.623C593.644 187.209 593.942 187.996 593.942 188.983V193.876H592.449V189.236C592.449 188.516 592.253 187.969 591.862 187.596C591.48 187.223 590.915 187.036 590.169 187.036C589.431 187.036 588.867 187.223 588.475 187.596C588.084 187.969 587.889 188.516 587.889 189.236V193.876H586.395ZM599.622 194.036C598.813 194.036 598.107 193.867 597.502 193.529C596.898 193.183 596.427 192.698 596.089 192.076C595.76 191.454 595.595 190.72 595.595 189.876C595.595 189.031 595.76 188.298 596.089 187.676C596.418 187.054 596.884 186.574 597.489 186.236C598.093 185.889 598.804 185.716 599.622 185.716C600.6 185.716 601.413 185.96 602.062 186.449C602.72 186.929 603.151 187.623 603.355 188.529H601.849C601.698 188.014 601.435 187.636 601.062 187.396C600.698 187.147 600.218 187.023 599.622 187.023C598.831 187.023 598.209 187.271 597.755 187.769C597.311 188.267 597.089 188.969 597.089 189.876C597.089 190.774 597.311 191.476 597.755 191.983C598.209 192.48 598.831 192.729 599.622 192.729C600.858 192.729 601.618 192.183 601.902 191.089H603.409C603.213 192.04 602.787 192.769 602.129 193.276C601.471 193.783 600.635 194.036 599.622 194.036ZM608.374 194.036C607.547 194.036 606.823 193.867 606.201 193.529C605.587 193.183 605.112 192.698 604.774 192.076C604.436 191.454 604.267 190.72 604.267 189.876C604.267 189.031 604.436 188.298 604.774 187.676C605.112 187.054 605.587 186.574 606.201 186.236C606.823 185.889 607.547 185.716 608.374 185.716C609.227 185.716 609.956 185.885 610.561 186.223C611.174 186.56 611.645 187.04 611.974 187.663C612.312 188.285 612.481 189.023 612.481 189.876C612.481 190.72 612.312 191.458 611.974 192.089C611.645 192.711 611.174 193.191 610.561 193.529C609.947 193.867 609.218 194.036 608.374 194.036ZM608.374 192.729C609.201 192.729 609.841 192.48 610.294 191.983C610.756 191.476 610.987 190.774 610.987 189.876C610.987 188.969 610.756 188.267 610.294 187.769C609.841 187.271 609.201 187.023 608.374 187.023C607.556 187.023 606.916 187.276 606.454 187.783C605.992 188.28 605.761 188.978 605.761 189.876C605.761 190.774 605.992 191.476 606.454 191.983C606.916 192.48 607.556 192.729 608.374 192.729ZM614.536 193.876V187.423H613.763V185.876H615.363V187.103H616.003C616.234 186.658 616.567 186.32 617.003 186.089C617.447 185.849 617.98 185.729 618.603 185.729C619.234 185.729 619.767 185.854 620.203 186.103C620.647 186.351 621.003 186.734 621.269 187.249H621.309C621.869 186.236 622.789 185.729 624.069 185.729C625.056 185.729 625.825 186.014 626.376 186.583C626.927 187.151 627.203 187.934 627.203 188.929V193.876H625.709V189.143C625.709 187.738 625.025 187.036 623.656 187.036C622.296 187.036 621.616 187.738 621.616 189.143V193.876H620.123V189.143C620.123 187.738 619.438 187.036 618.069 187.036C617.403 187.036 616.896 187.218 616.549 187.583C616.203 187.938 616.029 188.458 616.029 189.143V193.876H614.536ZM632.954 194.036C632.119 194.036 631.394 193.867 630.781 193.529C630.168 193.183 629.692 192.694 629.354 192.063C629.025 191.431 628.861 190.694 628.861 189.849C628.861 189.005 629.025 188.276 629.354 187.663C629.692 187.04 630.163 186.56 630.768 186.223C631.372 185.885 632.079 185.716 632.888 185.716C633.661 185.716 634.328 185.871 634.888 186.183C635.457 186.494 635.897 186.934 636.208 187.503C636.519 188.071 636.674 188.747 636.674 189.529V190.129H630.301C630.345 190.965 630.599 191.618 631.061 192.089C631.532 192.551 632.159 192.783 632.941 192.783C633.483 192.783 633.941 192.671 634.314 192.449C634.688 192.218 634.945 191.88 635.088 191.436H636.608C636.412 192.263 635.99 192.903 635.341 193.356C634.701 193.809 633.905 194.036 632.954 194.036ZM630.354 189.036H635.234C635.163 188.378 634.919 187.867 634.501 187.503C634.092 187.138 633.55 186.956 632.874 186.956C632.208 186.956 631.652 187.138 631.208 187.503C630.763 187.867 630.479 188.378 630.354 189.036Z" fill="#786F77"/>
<path d="M546.84 224.2C545 224.2 543.553 223.8 542.5 223C541.447 222.186 540.847 221.033 540.7 219.54H543.68C543.76 220.26 544.067 220.806 544.6 221.18C545.133 221.54 545.867 221.72 546.8 221.72C547.8 221.72 548.58 221.493 549.14 221.04C549.7 220.586 549.98 219.96 549.98 219.16C549.98 218.413 549.713 217.82 549.18 217.38C548.647 216.94 547.933 216.72 547.04 216.72H544.48V214.36H547.1C547.86 214.36 548.467 214.166 548.92 213.78C549.373 213.38 549.6 212.853 549.6 212.2C549.6 211.506 549.353 210.96 548.86 210.56C548.367 210.146 547.7 209.94 546.86 209.94C545.993 209.94 545.307 210.133 544.8 210.52C544.293 210.893 543.973 211.453 543.84 212.2H540.98C541.06 211.253 541.353 210.426 541.86 209.72C542.367 209.013 543.053 208.473 543.92 208.1C544.8 207.713 545.82 207.52 546.98 207.52C548.087 207.52 549.053 207.7 549.88 208.06C550.72 208.406 551.367 208.906 551.82 209.56C552.273 210.2 552.5 210.953 552.5 211.82C552.5 212.566 552.273 213.246 551.82 213.86C551.38 214.473 550.753 214.953 549.94 215.3V215.4C550.9 215.68 551.64 216.16 552.16 216.84C552.693 217.52 552.96 218.333 552.96 219.28C552.96 220.266 552.707 221.133 552.2 221.88C551.693 222.613 550.98 223.186 550.06 223.6C549.153 224 548.08 224.2 546.84 224.2ZM560.705 224.2C558.705 224.2 557.191 223.493 556.165 222.08C555.138 220.653 554.625 218.58 554.625 215.86C554.625 213.14 555.138 211.073 556.165 209.66C557.191 208.233 558.705 207.52 560.705 207.52C562.705 207.52 564.218 208.233 565.245 209.66C566.271 211.073 566.785 213.14 566.785 215.86C566.785 218.58 566.271 220.653 565.245 222.08C564.218 223.493 562.705 224.2 560.705 224.2ZM560.705 221.68C561.771 221.68 562.558 221.206 563.065 220.26C563.585 219.3 563.845 217.833 563.845 215.86C563.845 213.873 563.585 212.406 563.065 211.46C562.558 210.513 561.771 210.04 560.705 210.04C559.651 210.04 558.865 210.513 558.345 211.46C557.825 212.393 557.565 213.86 557.565 215.86C557.565 217.86 557.825 219.333 558.345 220.28C558.865 221.213 559.651 221.68 560.705 221.68ZM574.509 224.2C572.509 224.2 570.996 223.493 569.969 222.08C568.943 220.653 568.429 218.58 568.429 215.86C568.429 213.14 568.943 211.073 569.969 209.66C570.996 208.233 572.509 207.52 574.509 207.52C576.509 207.52 578.023 208.233 579.049 209.66C580.076 211.073 580.589 213.14 580.589 215.86C580.589 218.58 580.076 220.653 579.049 222.08C578.023 223.493 576.509 224.2 574.509 224.2ZM574.509 221.68C575.576 221.68 576.363 221.206 576.869 220.26C577.389 219.3 577.649 217.833 577.649 215.86C577.649 213.873 577.389 212.406 576.869 211.46C576.363 210.513 575.576 210.04 574.509 210.04C573.456 210.04 572.669 210.513 572.149 211.46C571.629 212.393 571.369 213.86 571.369 215.86C571.369 217.86 571.629 219.333 572.149 220.28C572.669 221.213 573.456 221.68 574.509 221.68ZM582.154 227.38V225.66H583.014C583.387 225.66 583.661 225.56 583.834 225.36C584.007 225.16 584.094 224.9 584.094 224.58V223.96H582.574V220.68H585.934V224.66C585.934 225.513 585.707 226.18 585.254 226.66C584.801 227.14 584.121 227.38 583.214 227.38H582.154ZM593.986 224.2C591.986 224.2 590.473 223.493 589.446 222.08C588.419 220.653 587.906 218.58 587.906 215.86C587.906 213.14 588.419 211.073 589.446 209.66C590.473 208.233 591.986 207.52 593.986 207.52C595.986 207.52 597.499 208.233 598.526 209.66C599.553 211.073 600.066 213.14 600.066 215.86C600.066 218.58 599.553 220.653 598.526 222.08C597.499 223.493 595.986 224.2 593.986 224.2ZM593.986 221.68C595.053 221.68 595.839 221.206 596.346 220.26C596.866 219.3 597.126 217.833 597.126 215.86C597.126 213.873 596.866 212.406 596.346 211.46C595.839 210.513 595.053 210.04 593.986 210.04C592.933 210.04 592.146 210.513 591.626 211.46C591.106 212.393 590.846 213.86 590.846 215.86C590.846 217.86 591.106 219.333 591.626 220.28C592.146 221.213 592.933 221.68 593.986 221.68ZM607.671 224.2C605.871 224.2 604.437 223.793 603.371 222.98C602.317 222.153 601.724 221.006 601.591 219.54H604.571C604.637 220.246 604.951 220.786 605.511 221.16C606.084 221.533 606.831 221.72 607.751 221.72C608.804 221.72 609.597 221.453 610.131 220.92C610.677 220.373 610.951 219.626 610.951 218.68C610.951 217.693 610.657 216.94 610.071 216.42C609.497 215.9 608.717 215.64 607.731 215.64C607.104 215.64 606.531 215.753 606.011 215.98C605.491 216.206 605.077 216.52 604.771 216.92H602.191L603.351 207.76H612.951V210.32H605.751L605.271 214.2H605.371C606.144 213.573 607.164 213.26 608.431 213.26C610.084 213.26 611.397 213.726 612.371 214.66C613.357 215.593 613.851 216.893 613.851 218.56C613.851 220.293 613.317 221.666 612.251 222.68C611.184 223.693 609.657 224.2 607.671 224.2ZM621.595 224.2C619.595 224.2 618.082 223.493 617.055 222.08C616.029 220.653 615.515 218.58 615.515 215.86C615.515 213.14 616.029 211.073 617.055 209.66C618.082 208.233 619.595 207.52 621.595 207.52C623.595 207.52 625.109 208.233 626.135 209.66C627.162 211.073 627.675 213.14 627.675 215.86C627.675 218.58 627.162 220.653 626.135 222.08C625.109 223.493 623.595 224.2 621.595 224.2ZM621.595 221.68C622.662 221.68 623.449 221.206 623.955 220.26C624.475 219.3 624.735 217.833 624.735 215.86C624.735 213.873 624.475 212.406 623.955 211.46C623.449 210.513 622.662 210.04 621.595 210.04C620.542 210.04 619.755 210.513 619.235 211.46C618.715 212.393 618.455 213.86 618.455 215.86C618.455 217.86 618.715 219.333 619.235 220.28C619.755 221.213 620.542 221.68 621.595 221.68ZM631.34 224.2C630.82 224.2 630.373 224.02 630 223.66C629.64 223.286 629.46 222.84 629.46 222.32C629.46 221.8 629.64 221.36 630 221C630.373 220.626 630.82 220.44 631.34 220.44C631.86 220.44 632.3 220.626 632.66 221C633.033 221.36 633.22 221.8 633.22 222.32C633.22 222.84 633.033 223.286 632.66 223.66C632.3 224.02 631.86 224.2 631.34 224.2ZM641.072 224.2C639.072 224.2 637.559 223.493 636.532 222.08C635.505 220.653 634.992 218.58 634.992 215.86C634.992 213.14 635.505 211.073 636.532 209.66C637.559 208.233 639.072 207.52 641.072 207.52C643.072 207.52 644.585 208.233 645.612 209.66C646.639 211.073 647.152 213.14 647.152 215.86C647.152 218.58 646.639 220.653 645.612 222.08C644.585 223.493 643.072 224.2 641.072 224.2ZM641.072 221.68C642.139 221.68 642.925 221.206 643.432 220.26C643.952 219.3 644.212 217.833 644.212 215.86C644.212 213.873 643.952 212.406 643.432 211.46C642.925 210.513 642.139 210.04 641.072 210.04C640.019 210.04 639.232 210.513 638.712 211.46C638.192 212.393 637.932 213.86 637.932 215.86C637.932 217.86 638.192 219.333 638.712 220.28C639.232 221.213 640.019 221.68 641.072 221.68ZM654.877 224.2C652.877 224.2 651.363 223.493 650.337 222.08C649.31 220.653 648.797 218.58 648.797 215.86C648.797 213.14 649.31 211.073 650.337 209.66C651.363 208.233 652.877 207.52 654.877 207.52C656.877 207.52 658.39 208.233 659.417 209.66C660.443 211.073 660.957 213.14 660.957 215.86C660.957 218.58 660.443 220.653 659.417 222.08C658.39 223.493 656.877 224.2 654.877 224.2ZM654.877 221.68C655.943 221.68 656.73 221.206 657.237 220.26C657.757 219.3 658.017 217.833 658.017 215.86C658.017 213.873 657.757 212.406 657.237 211.46C656.73 210.513 655.943 210.04 654.877 210.04C653.823 210.04 653.037 210.513 652.517 211.46C651.997 212.393 651.737 213.86 651.737 215.86C651.737 217.86 651.997 219.333 652.517 220.28C653.037 221.213 653.823 221.68 654.877 221.68Z" fill="#1E1E1E"/>
<rect x="476.505" y="178.784" width="5.15558" height="50.267" rx="2.57779" fill="#F7F7FF"/>
<rect x="476.505" y="208.594" width="5.15558" height="20.4575" rx="2.57779" fill="#007EFF"/>
<rect x="476.505" y="208.594" width="5.15558" height="20.4575" rx="2.57779" fill="#5E8E3E"/>
<rect x="490.249" y="178.784" width="5.15558" height="50.267" rx="2.57779" fill="#F7F7FF"/>
<rect x="490.249" y="193.981" width="5.15558" height="35.07" rx="2.57779" fill="#007EFF"/>
<rect x="490.249" y="193.981" width="5.15558" height="35.07" rx="2.57779" fill="#5E8E3E"/>
<rect x="503.999" y="178.784" width="5.15558" height="50.267" rx="2.57779" fill="#F7F7FF"/>
<rect x="503.999" y="186.967" width="5.15558" height="42.084" rx="2.57779" fill="#007EFF"/>
<rect x="503.999" y="186.967" width="5.15558" height="42.084" rx="2.57779" fill="#5E8E3E"/>
<rect x="517.749" y="178.784" width="5.15558" height="50.267" rx="2.57779" fill="#F7F7FF"/>
<rect x="517.749" y="208.594" width="5.15558" height="20.4575" rx="2.57779" fill="#007EFF"/>
<rect x="517.749" y="208.594" width="5.15558" height="20.4575" rx="2.57779" fill="#5E8E3E"/>
<g filter="url(#filter1_d_75_5948)">
<rect x="28.25" y="340.918" width="227.5" height="88" rx="20" fill="white"/>
</g>
<path d="M121.693 374.876H120.173V365.383H116.32V364.076H125.547V365.383H121.693V374.876ZM129.265 375.036C128.438 375.036 127.714 374.867 127.091 374.529C126.478 374.183 126.002 373.698 125.665 373.076C125.327 372.454 125.158 371.72 125.158 370.876C125.158 370.031 125.327 369.298 125.665 368.676C126.002 368.054 126.478 367.574 127.091 367.236C127.714 366.889 128.438 366.716 129.265 366.716C130.118 366.716 130.847 366.885 131.451 367.223C132.065 367.56 132.536 368.04 132.865 368.663C133.202 369.285 133.371 370.023 133.371 370.876C133.371 371.72 133.202 372.458 132.865 373.089C132.536 373.711 132.065 374.191 131.451 374.529C130.838 374.867 130.109 375.036 129.265 375.036ZM129.265 373.729C130.091 373.729 130.731 373.48 131.185 372.983C131.647 372.476 131.878 371.774 131.878 370.876C131.878 369.969 131.647 369.267 131.185 368.769C130.731 368.271 130.091 368.023 129.265 368.023C128.447 368.023 127.807 368.276 127.345 368.783C126.882 369.28 126.651 369.978 126.651 370.876C126.651 371.774 126.882 372.476 127.345 372.983C127.807 373.48 128.447 373.729 129.265 373.729ZM137.08 374.876C136.653 374.876 136.32 374.769 136.08 374.556C135.849 374.334 135.733 374.005 135.733 373.569V368.023H134.24V366.876H135.747V364.476H137.213V366.876H139.307V368.023H137.227V373.703H139.52V374.876H137.08ZM143.297 375.023C142.391 375.023 141.675 374.8 141.151 374.356C140.635 373.903 140.377 373.311 140.377 372.583C140.377 371.818 140.635 371.227 141.151 370.809C141.666 370.383 142.408 370.169 143.377 370.169H146.111V369.809C146.111 368.574 145.431 367.956 144.071 367.956C142.959 367.956 142.288 368.374 142.057 369.209H140.551C140.684 368.418 141.062 367.805 141.684 367.369C142.315 366.934 143.119 366.716 144.097 366.716C145.208 366.716 146.057 366.978 146.644 367.503C147.239 368.027 147.537 368.783 147.537 369.769V373.329H148.257V374.876H146.657V373.649H146.097C145.822 374.076 145.444 374.414 144.964 374.663C144.484 374.903 143.928 375.023 143.297 375.023ZM143.497 373.823C143.977 373.823 144.417 373.725 144.817 373.529C145.217 373.334 145.533 373.067 145.764 372.729C145.995 372.391 146.111 372.023 146.111 371.623V371.263H143.471C142.351 371.263 141.791 371.68 141.791 372.516C141.791 372.916 141.942 373.236 142.244 373.476C142.546 373.707 142.964 373.823 143.497 373.823ZM150.098 374.876V363.676H151.591V374.876H150.098ZM162.837 375.036C161.743 375.036 160.788 374.809 159.97 374.356C159.161 373.894 158.534 373.245 158.09 372.409C157.645 371.574 157.423 370.596 157.423 369.476C157.423 368.347 157.645 367.369 158.09 366.543C158.534 365.707 159.161 365.063 159.97 364.609C160.788 364.147 161.743 363.916 162.837 363.916C163.939 363.916 164.894 364.147 165.703 364.609C166.521 365.063 167.148 365.707 167.583 366.543C168.028 367.369 168.25 368.347 168.25 369.476C168.25 370.596 168.028 371.574 167.583 372.409C167.139 373.245 166.508 373.894 165.69 374.356C164.881 374.809 163.93 375.036 162.837 375.036ZM162.837 373.703C164.045 373.703 164.992 373.325 165.677 372.569C166.361 371.814 166.703 370.783 166.703 369.476C166.703 368.16 166.361 367.129 165.677 366.383C164.992 365.627 164.045 365.249 162.837 365.249C161.637 365.249 160.69 365.627 159.997 366.383C159.312 367.129 158.97 368.16 158.97 369.476C158.97 370.791 159.312 371.827 159.997 372.583C160.69 373.329 161.637 373.703 162.837 373.703ZM173.302 375.023C172.271 375.023 171.462 374.738 170.876 374.169C170.289 373.591 169.996 372.818 169.996 371.849V366.876H171.489V371.529C171.489 372.249 171.676 372.796 172.049 373.169C172.422 373.534 172.964 373.716 173.676 373.716C174.431 373.716 175.013 373.525 175.422 373.143C175.84 372.751 176.049 372.209 176.049 371.516V366.876H177.542V373.329H178.316V374.876H176.716V373.649H176.156C175.871 374.094 175.489 374.436 175.009 374.676C174.529 374.907 173.96 375.023 173.302 375.023ZM182.049 374.876C181.622 374.876 181.289 374.769 181.049 374.556C180.818 374.334 180.702 374.005 180.702 373.569V368.023H179.209V366.876H180.716V364.476H182.182V366.876H184.276V368.023H182.196V373.703H184.489V374.876H182.049ZM186.679 374.876V368.023H185.053V366.876H186.693V365.023C186.693 364.569 186.817 364.231 187.066 364.009C187.315 363.787 187.657 363.676 188.093 363.676H190.306V364.823H188.159V366.876H190.146V368.023H188.173V374.876H186.679ZM191.546 374.876V363.676H193.039V374.876H191.546ZM198.937 375.036C198.11 375.036 197.385 374.867 196.763 374.529C196.15 374.183 195.674 373.698 195.337 373.076C194.999 372.454 194.83 371.72 194.83 370.876C194.83 370.031 194.999 369.298 195.337 368.676C195.674 368.054 196.15 367.574 196.763 367.236C197.385 366.889 198.11 366.716 198.937 366.716C199.79 366.716 200.519 366.885 201.123 367.223C201.737 367.56 202.208 368.04 202.537 368.663C202.874 369.285 203.043 370.023 203.043 370.876C203.043 371.72 202.874 372.458 202.537 373.089C202.208 373.711 201.737 374.191 201.123 374.529C200.51 374.867 199.781 375.036 198.937 375.036ZM198.937 373.729C199.763 373.729 200.403 373.48 200.857 372.983C201.319 372.476 201.55 371.774 201.55 370.876C201.55 369.969 201.319 369.267 200.857 368.769C200.403 368.271 199.763 368.023 198.937 368.023C198.119 368.023 197.479 368.276 197.017 368.783C196.554 369.28 196.323 369.978 196.323 370.876C196.323 371.774 196.554 372.476 197.017 372.983C197.479 373.48 198.119 373.729 198.937 373.729ZM206.18 374.876L203.646 366.876H205.193L207.046 373.089H207.113L209.313 366.876H210.86L213.06 373.089H213.126L214.98 366.876H216.5L213.98 374.876H212.313L210.1 368.663H210.046L207.846 374.876H206.18Z" fill="#786F77"/>
<path d="M117.98 404.96V402.58H122.14V392.06L117.7 395.1H117.62V392.1L122.56 388.76H125.1V402.58H128.64V404.96H117.98ZM136.585 405.2C134.785 405.2 133.351 404.793 132.285 403.98C131.231 403.153 130.638 402.007 130.505 400.54H133.485C133.551 401.247 133.865 401.787 134.425 402.16C134.998 402.533 135.745 402.72 136.665 402.72C137.718 402.72 138.511 402.453 139.045 401.92C139.591 401.373 139.865 400.627 139.865 399.68C139.865 398.693 139.571 397.94 138.985 397.42C138.411 396.9 137.631 396.64 136.645 396.64C136.018 396.64 135.445 396.753 134.925 396.98C134.405 397.207 133.991 397.52 133.685 397.92H131.105L132.265 388.76H141.865V391.32H134.665L134.185 395.2H134.285C135.058 394.573 136.078 394.26 137.345 394.26C138.998 394.26 140.311 394.727 141.285 395.66C142.271 396.593 142.765 397.893 142.765 399.56C142.765 401.293 142.231 402.667 141.165 403.68C140.098 404.693 138.571 405.2 136.585 405.2ZM150.509 405.2C148.509 405.2 146.996 404.493 145.969 403.08C144.943 401.653 144.429 399.58 144.429 396.86C144.429 394.14 144.943 392.073 145.969 390.66C146.996 389.233 148.509 388.52 150.509 388.52C152.509 388.52 154.023 389.233 155.049 390.66C156.076 392.073 156.589 394.14 156.589 396.86C156.589 399.58 156.076 401.653 155.049 403.08C154.023 404.493 152.509 405.2 150.509 405.2ZM150.509 402.68C151.576 402.68 152.363 402.207 152.869 401.26C153.389 400.3 153.649 398.833 153.649 396.86C153.649 394.873 153.389 393.407 152.869 392.46C152.363 391.513 151.576 391.04 150.509 391.04C149.456 391.04 148.669 391.513 148.149 392.46C147.629 393.393 147.369 394.86 147.369 396.86C147.369 398.86 147.629 400.333 148.149 401.28C148.669 402.213 149.456 402.68 150.509 402.68ZM158.154 408.38V406.66H159.014C159.388 406.66 159.661 406.56 159.834 406.36C160.008 406.16 160.094 405.9 160.094 405.58V404.96H158.574V401.68H161.934V405.66C161.934 406.513 161.708 407.18 161.254 407.66C160.801 408.14 160.121 408.38 159.214 408.38H158.154ZM169.986 405.2C167.986 405.2 166.473 404.493 165.446 403.08C164.419 401.653 163.906 399.58 163.906 396.86C163.906 394.14 164.419 392.073 165.446 390.66C166.473 389.233 167.986 388.52 169.986 388.52C171.986 388.52 173.499 389.233 174.526 390.66C175.553 392.073 176.066 394.14 176.066 396.86C176.066 399.58 175.553 401.653 174.526 403.08C173.499 404.493 171.986 405.2 169.986 405.2ZM169.986 402.68C171.053 402.68 171.839 402.207 172.346 401.26C172.866 400.3 173.126 398.833 173.126 396.86C173.126 394.873 172.866 393.407 172.346 392.46C171.839 391.513 171.053 391.04 169.986 391.04C168.933 391.04 168.146 391.513 167.626 392.46C167.106 393.393 166.846 394.86 166.846 396.86C166.846 398.86 167.106 400.333 167.626 401.28C168.146 402.213 168.933 402.68 169.986 402.68ZM183.671 405.2C181.871 405.2 180.437 404.793 179.371 403.98C178.317 403.153 177.724 402.007 177.591 400.54H180.571C180.637 401.247 180.951 401.787 181.511 402.16C182.084 402.533 182.831 402.72 183.751 402.72C184.804 402.72 185.597 402.453 186.131 401.92C186.677 401.373 186.951 400.627 186.951 399.68C186.951 398.693 186.657 397.94 186.071 397.42C185.497 396.9 184.717 396.64 183.731 396.64C183.104 396.64 182.531 396.753 182.011 396.98C181.491 397.207 181.077 397.52 180.771 397.92H178.191L179.351 388.76H188.951V391.32H181.751L181.271 395.2H181.371C182.144 394.573 183.164 394.26 184.431 394.26C186.084 394.26 187.397 394.727 188.371 395.66C189.357 396.593 189.851 397.893 189.851 399.56C189.851 401.293 189.317 402.667 188.251 403.68C187.184 404.693 185.657 405.2 183.671 405.2ZM197.595 405.2C195.595 405.2 194.082 404.493 193.055 403.08C192.029 401.653 191.515 399.58 191.515 396.86C191.515 394.14 192.029 392.073 193.055 390.66C194.082 389.233 195.595 388.52 197.595 388.52C199.595 388.52 201.109 389.233 202.135 390.66C203.162 392.073 203.675 394.14 203.675 396.86C203.675 399.58 203.162 401.653 202.135 403.08C201.109 404.493 199.595 405.2 197.595 405.2ZM197.595 402.68C198.662 402.68 199.449 402.207 199.955 401.26C200.475 400.3 200.735 398.833 200.735 396.86C200.735 394.873 200.475 393.407 199.955 392.46C199.449 391.513 198.662 391.04 197.595 391.04C196.542 391.04 195.755 391.513 195.235 392.46C194.715 393.393 194.455 394.86 194.455 396.86C194.455 398.86 194.715 400.333 195.235 401.28C195.755 402.213 196.542 402.68 197.595 402.68ZM207.34 405.2C206.82 405.2 206.373 405.02 206 404.66C205.64 404.287 205.46 403.84 205.46 403.32C205.46 402.8 205.64 402.36 206 402C206.373 401.627 206.82 401.44 207.34 401.44C207.86 401.44 208.3 401.627 208.66 402C209.033 402.36 209.22 402.8 209.22 403.32C209.22 403.84 209.033 404.287 208.66 404.66C208.3 405.02 207.86 405.2 207.34 405.2ZM217.072 405.2C215.072 405.2 213.559 404.493 212.532 403.08C211.505 401.653 210.992 399.58 210.992 396.86C210.992 394.14 211.505 392.073 212.532 390.66C213.559 389.233 215.072 388.52 217.072 388.52C219.072 388.52 220.585 389.233 221.612 390.66C222.639 392.073 223.152 394.14 223.152 396.86C223.152 399.58 222.639 401.653 221.612 403.08C220.585 404.493 219.072 405.2 217.072 405.2ZM217.072 402.68C218.139 402.68 218.925 402.207 219.432 401.26C219.952 400.3 220.212 398.833 220.212 396.86C220.212 394.873 219.952 393.407 219.432 392.46C218.925 391.513 218.139 391.04 217.072 391.04C216.019 391.04 215.232 391.513 214.712 392.46C214.192 393.393 213.932 394.86 213.932 396.86C213.932 398.86 214.192 400.333 214.712 401.28C215.232 402.213 216.019 402.68 217.072 402.68ZM230.877 405.2C228.877 405.2 227.363 404.493 226.337 403.08C225.31 401.653 224.797 399.58 224.797 396.86C224.797 394.14 225.31 392.073 226.337 390.66C227.363 389.233 228.877 388.52 230.877 388.52C232.877 388.52 234.39 389.233 235.417 390.66C236.443 392.073 236.957 394.14 236.957 396.86C236.957 399.58 236.443 401.653 235.417 403.08C234.39 404.493 232.877 405.2 230.877 405.2ZM230.877 402.68C231.943 402.68 232.73 402.207 233.237 401.26C233.757 400.3 234.017 398.833 234.017 396.86C234.017 394.873 233.757 393.407 233.237 392.46C232.73 391.513 231.943 391.04 230.877 391.04C229.823 391.04 229.037 391.513 228.517 392.46C227.997 393.393 227.737 394.86 227.737 396.86C227.737 398.86 227.997 400.333 228.517 401.28C229.037 402.213 229.823 402.68 230.877 402.68Z" fill="#1E1E1E"/>
<rect x="52.5049" y="359.784" width="5.15558" height="50.267" rx="2.57779" fill="#F7F7FF"/>
<rect x="52.5049" y="389.594" width="5.15558" height="20.4575" rx="2.57779" fill="#007EFF"/>
<rect x="52.5049" y="389.594" width="5.15558" height="20.4575" rx="2.57779" fill="#ED3B3B"/>
<rect x="66.2488" y="359.784" width="5.15558" height="50.267" rx="2.57779" fill="#F7F7FF"/>
<rect x="66.2488" y="396.5" width="5.15558" height="13.5514" rx="2.57779" fill="#007EFF"/>
<rect x="66.2488" y="396.5" width="5.15558" height="13.5514" rx="2.57779" fill="#ED3B3B"/>
<rect x="79.9988" y="359.784" width="5.15558" height="50.267" rx="2.57779" fill="#F7F7FF"/>
<rect x="79.9988" y="380.96" width="5.15558" height="29.0915" rx="2.57779" fill="#007EFF"/>
<rect x="79.9988" y="380.96" width="5.15558" height="29.0915" rx="2.57779" fill="#ED3B3B"/>
<rect x="93.7488" y="359.784" width="5.15558" height="50.267" rx="2.57779" fill="#F7F7FF"/>
<rect x="93.7488" y="389.594" width="5.15558" height="20.4575" rx="2.57779" fill="#007EFF"/>
<rect x="93.7488" y="389.594" width="5.15558" height="20.4575" rx="2.57779" fill="#ED3B3B"/>
<defs>
<filter id="filter0_d_75_5948" x="424.25" y="131.918" width="307.5" height="168" filterUnits="userSpaceOnUse" color-interpolation-filters="sRGB">
<feFlood flood-opacity="0" result="BackgroundImageFix"/>
<feColorMatrix in="SourceAlpha" type="matrix" values="0 0 0 0 0 0 0 0 0 0 0 0 0 0 0 0 0 0 127 0" result="hardAlpha"/>
<feOffset dx="12" dy="12"/>
<feGaussianBlur stdDeviation="20"/>
<feComposite in2="hardAlpha" operator="out"/>
<feColorMatrix type="matrix" values="0 0 0 0 0 0 0 0 0 0 0 0 0 0 0 0 0 0 0.06 0"/>
<feBlend mode="normal" in2="BackgroundImageFix" result="effect1_dropShadow_75_5948"/>
<feBlend mode="normal" in="SourceGraphic" in2="effect1_dropShadow_75_5948" result="shape"/>
</filter>
<filter id="filter1_d_75_5948" x="0.25" y="312.918" width="307.5" height="168" filterUnits="userSpaceOnUse" color-interpolation-filters="sRGB">
<feFlood flood-opacity="0" result="BackgroundImageFix"/>
<feColorMatrix in="SourceAlpha" type="matrix" values="0 0 0 0 0 0 0 0 0 0 0 0 0 0 0 0 0 0 127 0" result="hardAlpha"/>
<feOffset dx="12" dy="12"/>
<feGaussianBlur stdDeviation="20"/>
<feComposite in2="hardAlpha" operator="out"/>
<feColorMatrix type="matrix" values="0 0 0 0 0 0 0 0 0 0 0 0 0 0 0 0 0 0 0.06 0"/>
<feBlend mode="normal" in2="BackgroundImageFix" result="effect1_dropShadow_75_5948"/>
<feBlend mode="normal" in="SourceGraphic" in2="effect1_dropShadow_75_5948" result="shape"/>
</filter>
<linearGradient id="paint0_linear_75_5948" x1="560.427" y1="253.546" x2="560.427" y2="354.843" gradientUnits="userSpaceOnUse">
<stop stop-color="#68595F"/>
<stop offset="0.02" stop-color="#896E80"/>
<stop offset="0.04" stop-color="#5E3B5B"/>
<stop offset="0.08" stop-color="#2B1D2A"/>
<stop offset="0.11" stop-color="#704A6A"/>
<stop offset="0.9" stop-color="#615060"/>
<stop offset="0.94" stop-color="#2B1D2A"/>
<stop offset="0.96" stop-color="#5E3B5B"/>
<stop offset="0.98" stop-color="#845675"/>
<stop offset="1" stop-color="#5B4A5C"/>
</linearGradient>
<linearGradient id="paint1_linear_75_5948" x1="562.227" y1="253.566" x2="562.227" y2="354.843" gradientUnits="userSpaceOnUse">
<stop stop-color="#676067"/>
<stop offset="0.06" stop-color="#654E63"/>
<stop offset="0.19" stop-color="#786F77"/>
<stop offset="0.81" stop-color="#786F77"/>
<stop offset="0.92" stop-color="#654E63"/>
<stop offset="1" stop-color="#676067"/>
</linearGradient>
<linearGradient id="paint2_linear_75_5948" x1="147.433" y1="232.223" x2="147.433" y2="296.389" gradientUnits="userSpaceOnUse">
<stop stop-color="#68595F"/>
<stop offset="0.02" stop-color="#896E80"/>
<stop offset="0.04" stop-color="#5E3B5B"/>
<stop offset="0.08" stop-color="#2D1E2C"/>
<stop offset="0.11" stop-color="#704A6A"/>
<stop offset="0.9" stop-color="#615060"/>
<stop offset="0.94" stop-color="#2D1E2C"/>
<stop offset="0.96" stop-color="#5E3B5B"/>
<stop offset="0.98" stop-color="#845675"/>
<stop offset="1" stop-color="#5B4A5C"/>
</linearGradient>
<linearGradient id="paint3_linear_75_5948" x1="146.396" y1="232.242" x2="146.396" y2="296.389" gradientUnits="userSpaceOnUse">
<stop stop-color="#676067"/>
<stop offset="0.06" stop-color="#654E63"/>
<stop offset="0.19" stop-color="#786F77"/>
<stop offset="0.81" stop-color="#786F77"/>
<stop offset="0.92" stop-color="#654E63"/>
<stop offset="1" stop-color="#676067"/>
</linearGradient>
<linearGradient id="paint4_linear_75_5948" x1="148.841" y1="296.409" x2="148.841" y2="232.223" gradientUnits="userSpaceOnUse">
<stop stop-color="#68595F"/>
<stop offset="0.05" stop-color="#2D1E2C"/>
<stop offset="0.52" stop-color="#5E3B5B"/>
<stop offset="0.96" stop-color="#2D1E2C"/>
<stop offset="1" stop-color="#5B4A5C"/>
</linearGradient>
<linearGradient id="paint5_linear_75_5948" x1="147.433" y1="312.959" x2="147.433" y2="377.126" gradientUnits="userSpaceOnUse">
<stop stop-color="#68595F"/>
<stop offset="0.02" stop-color="#896E80"/>
<stop offset="0.04" stop-color="#5E3B5B"/>
<stop offset="0.08" stop-color="#2D1E2C"/>
<stop offset="0.11" stop-color="#704A6A"/>
<stop offset="0.9" stop-color="#615060"/>
<stop offset="0.94" stop-color="#2D1E2C"/>
<stop offset="0.96" stop-color="#5E3B5B"/>
<stop offset="0.98" stop-color="#845675"/>
<stop offset="1" stop-color="#5B4A5C"/>
</linearGradient>
<linearGradient id="paint6_linear_75_5948" x1="146.396" y1="312.959" x2="146.396" y2="377.126" gradientUnits="userSpaceOnUse">
<stop stop-color="#676067"/>
<stop offset="0.06" stop-color="#654E63"/>
<stop offset="0.19" stop-color="#786F77"/>
<stop offset="0.81" stop-color="#786F77"/>
<stop offset="0.92" stop-color="#654E63"/>
<stop offset="1" stop-color="#676067"/>
</linearGradient>
<linearGradient id="paint7_linear_75_5948" x1="148.841" y1="377.126" x2="148.841" y2="312.959" gradientUnits="userSpaceOnUse">
<stop stop-color="#68595F"/>
<stop offset="0.05" stop-color="#2D1E2C"/>
<stop offset="0.52" stop-color="#5E3B5B"/>
<stop offset="0.96" stop-color="#2D1E2C"/>
<stop offset="1" stop-color="#5B4A5C"/>
</linearGradient>
<linearGradient id="paint8_linear_75_5948" x1="147.433" y1="171.597" x2="147.433" y2="204.521" gradientUnits="userSpaceOnUse">
<stop stop-color="#68595F"/>
<stop offset="0.02" stop-color="#896E80"/>
<stop offset="0.04" stop-color="#5E3B5B"/>
<stop offset="0.08" stop-color="#2D1E2C"/>
<stop offset="0.11" stop-color="#704A6A"/>
<stop offset="0.9" stop-color="#615060"/>
<stop offset="0.94" stop-color="#2D1E2C"/>
<stop offset="0.96" stop-color="#5E3B5B"/>
<stop offset="0.98" stop-color="#845675"/>
<stop offset="1" stop-color="#5B4A5C"/>
</linearGradient>
<linearGradient id="paint9_linear_75_5948" x1="146.396" y1="171.616" x2="146.396" y2="204.541" gradientUnits="userSpaceOnUse">
<stop stop-color="#676067"/>
<stop offset="0.06" stop-color="#654E63"/>
<stop offset="0.19" stop-color="#786F77"/>
<stop offset="0.81" stop-color="#786F77"/>
<stop offset="0.92" stop-color="#654E63"/>
<stop offset="1" stop-color="#676067"/>
</linearGradient>
<linearGradient id="paint10_linear_75_5948" x1="148.841" y1="204.541" x2="148.841" y2="171.597" gradientUnits="userSpaceOnUse">
<stop stop-color="#68595F"/>
<stop offset="0.05" stop-color="#2D1E2C"/>
<stop offset="0.52" stop-color="#5E3B5B"/>
<stop offset="0.96" stop-color="#2D1E2C"/>
<stop offset="1" stop-color="#5B4A5C"/>
</linearGradient>
<linearGradient id="paint11_linear_75_5948" x1="381.66" y1="89.7257" x2="381.66" y2="78.2618" gradientUnits="userSpaceOnUse">
<stop stop-color="#666666"/>
<stop offset="1" stop-color="#010104"/>
</linearGradient>
<linearGradient id="paint12_linear_75_5948" x1="381.66" y1="81.1375" x2="381.66" y2="87.6911" gradientUnits="userSpaceOnUse">
<stop stop-color="#0B131C"/>
<stop offset="1" stop-color="#354039"/>
</linearGradient>
<linearGradient id="paint13_linear_75_5948" x1="383.715" y1="86.3413" x2="379.606" y2="82.2135" gradientUnits="userSpaceOnUse">
<stop stop-color="#231F20"/>
<stop offset="0.08" stop-color="#222326"/>
<stop offset="0.2" stop-color="#1F2C37"/>
<stop offset="0.33" stop-color="#1A3D54"/>
<stop offset="0.47" stop-color="#13537C"/>
<stop offset="0.62" stop-color="#0B71AE"/>
<stop offset="0.78" stop-color="#0095EE"/>
<stop offset="0.8" stop-color="#0488D6"/>
<stop offset="0.84" stop-color="#0D689F"/>
<stop offset="0.88" stop-color="#154E72"/>
<stop offset="0.91" stop-color="#1B394E"/>
<stop offset="0.95" stop-color="#1F2B35"/>
<stop offset="0.98" stop-color="#222225"/>
<stop offset="1" stop-color="#231F20"/>
</linearGradient>
<radialGradient id="paint14_radial_75_5948" cx="0" cy="0" r="1" gradientUnits="userSpaceOnUse" gradientTransform="translate(381.661 84.2676) scale(2.91488 2.91489)">
<stop stop-color="#231F20"/>
<stop offset="0.2" stop-color="#175168"/>
<stop offset="0.38" stop-color="#0D78A2"/>
<stop offset="0.54" stop-color="#0695CB"/>
<stop offset="0.66" stop-color="#02A7E5"/>
<stop offset="0.73" stop-color="#00ADEE"/>
<stop offset="0.76" stop-color="#02A6E4"/>
<stop offset="0.81" stop-color="#0693C8"/>
<stop offset="0.87" stop-color="#0E749C"/>
<stop offset="0.94" stop-color="#184A5F"/>
<stop offset="1" stop-color="#231F20"/>
</radialGradient>
<radialGradient id="paint15_radial_75_5948" cx="0" cy="0" r="1" gradientUnits="userSpaceOnUse" gradientTransform="translate(383.265 85.7935) scale(1.03684 1.03684)">
<stop stop-color="#CCCCCC"/>
<stop offset="0.02" stop-color="#C4C4C4"/>
<stop offset="0.22" stop-color="#898989"/>
<stop offset="0.41" stop-color="#585858"/>
<stop offset="0.59" stop-color="#323232"/>
<stop offset="0.75" stop-color="#161616"/>
<stop offset="0.89" stop-color="#060606"/>
<stop offset="1"/>
</radialGradient>
</defs>
</svg>