<svg width="475" height="298" viewBox="0 0 475 298" fill="none" xmlns="http://www.w3.org/2000/svg">
<g clip-path="url(#clip0_57_1150)">
<mask id="mask0_57_1150" style="mask-type:alpha" maskUnits="userSpaceOnUse" x="0" y="0" width="475" height="306">
<rect y="0.5" width="474.66" height="305.5" fill="url(#paint0_linear_57_1150)"/>
</mask>
<g mask="url(#mask0_57_1150)">
<path d="M340.556 149C340.556 161.095 338.419 173.133 334.312 184.496C334.143 184.946 333.975 185.396 333.806 185.902C328.181 200.472 319.349 213.635 307.929 224.323C307.029 225.167 306.073 226.011 305.173 226.799C286.441 243.168 262.42 252.169 237.556 252.113C180.628 252.113 134.5 205.985 134.5 149.056V148.719C134.5 143.825 134.894 138.931 135.569 134.093C135.569 133.924 135.625 133.812 135.625 133.643C137.425 121.717 141.25 110.185 147.045 99.6096C149.126 95.7844 151.489 92.0716 154.02 88.5839C173.371 61.8073 204.423 45.9438 237.5 45.9438C294.429 45.9438 340.556 92.0716 340.556 149Z" fill="#484848"/>
<path d="M237.5 252.45C180.459 252.45 134.05 206.041 134.05 149V148.663C134.05 143.768 134.444 138.818 135.119 133.98L135.175 133.53C137.594 117.161 143.951 101.691 153.682 88.3026C153.682 88.3026 153.682 88.2464 153.739 88.2464C173.259 61.4698 204.367 45.6063 237.5 45.55C294.541 45.55 340.95 91.9591 340.95 149C340.95 161.151 338.812 173.189 334.65 184.608L334.537 184.946C334.425 185.284 334.256 185.621 334.143 186.015C328.518 200.641 319.63 213.86 308.154 224.548C307.142 225.505 306.242 226.292 305.342 227.08C286.553 243.45 262.42 252.45 237.5 252.45ZM154.357 88.8089C151.826 92.2966 149.463 95.9531 147.382 99.7783C141.588 110.298 137.763 121.773 135.963 133.643L135.906 134.093C135.231 138.931 134.838 143.768 134.838 148.663V148.944C134.838 205.535 180.909 251.606 237.5 251.606C262.252 251.606 286.159 242.662 304.835 226.405C305.679 225.673 306.579 224.886 307.592 223.93C318.955 213.298 327.787 200.191 333.356 185.677C333.468 185.34 333.637 185.002 333.75 184.665L333.862 184.327C338.025 173.02 340.106 161.038 340.106 149C340.106 92.4091 294.035 46.3376 237.444 46.3376C204.592 46.3939 173.709 62.1448 154.357 88.8089Z" fill="#231F20"/>
<path d="M322.78 193.721C322.78 193.721 299.323 188.715 294.316 187.196C289.31 185.677 279.071 179.039 278.846 178.927C277.046 177.858 275.19 176.902 273.277 176.058C271.533 175.439 269.79 174.989 267.989 174.595C264.389 173.752 260.62 173.808 257.02 174.708C251.226 176.283 246.669 180.558 242.057 184.327C234.462 190.515 226.249 195.128 217.98 200.191C215.843 201.484 213.592 202.947 212.355 205.141C211.68 206.322 211.342 207.841 211.961 209.022C212.58 210.204 214.042 210.766 215.393 210.823C217.699 210.991 219.949 210.147 222.255 209.585C224.281 209.079 228.893 208.404 229.85 211.048C230.637 213.185 226.531 214.591 226.981 217.123C227.206 218.473 228.612 219.317 229.962 219.373C231.312 219.429 232.606 219.035 233.956 218.642C237.388 217.629 241.157 217.348 244.701 217.067C248.357 216.785 245.882 216.279 248.638 218.248C251.957 220.667 255.67 223.817 259.664 224.998C266.021 226.967 278.509 222.242 284.415 220.498C290.322 218.754 303.71 222.804 303.71 222.804L322.78 193.721Z" fill="white"/>
<path d="M263.208 225.898C261.97 225.898 260.733 225.786 259.495 225.448C256.064 224.38 252.801 221.961 249.932 219.767L248.357 218.585C247.794 218.192 247.288 217.742 246.894 217.235L246.838 217.179L246.613 217.235C245.994 217.348 245.319 217.404 244.7 217.46C241.157 217.685 237.444 218.023 234.069 218.979L233.562 219.148C232.381 219.542 231.2 219.767 229.962 219.767C228.5 219.654 226.868 218.754 226.587 217.179C226.306 215.717 227.318 214.591 228.218 213.635C229.006 212.735 229.737 212.004 229.4 211.16C228.443 208.572 223.268 209.697 222.255 209.979C221.749 210.091 221.299 210.26 220.793 210.372C219.049 210.879 217.193 211.385 215.28 211.216C213.536 211.104 212.186 210.372 211.511 209.191C210.836 208.01 211.005 206.435 211.905 204.916C213.199 202.722 215.336 201.259 217.643 199.853C219.105 198.953 220.512 198.109 221.974 197.209C228.893 193.046 235.475 189.109 241.663 184.046C242.282 183.54 242.9 183.033 243.463 182.527C247.513 179.152 251.676 175.72 256.795 174.314C260.114 173.414 263.827 173.358 267.933 174.202C269.733 174.595 271.477 175.045 273.221 175.664C275.19 176.508 277.046 177.52 278.903 178.589C279.015 178.646 289.366 185.283 294.26 186.802C299.154 188.321 322.443 193.271 322.668 193.328C322.78 193.328 322.893 193.44 322.949 193.553C323.005 193.665 323.005 193.834 322.893 193.89L303.823 223.029C303.71 223.198 303.542 223.254 303.373 223.198C303.26 223.142 290.041 219.204 284.303 220.892C283.347 221.173 282.165 221.511 280.928 221.961C275.977 223.592 268.664 225.898 263.208 225.898ZM246.894 216.448C247.119 216.448 247.232 216.504 247.457 216.785C247.851 217.235 248.301 217.629 248.807 217.967L250.382 219.148C253.195 221.286 256.401 223.705 259.72 224.717C264.895 226.292 274.515 223.254 280.871 221.286C282.165 220.892 283.29 220.498 284.303 220.217C289.872 218.585 301.516 221.848 303.542 222.467L322.161 194.059C318.561 193.271 298.76 189.052 294.26 187.646C289.253 186.071 278.79 179.377 278.678 179.321C276.934 178.252 275.077 177.295 273.221 176.508C271.533 175.889 269.79 175.439 267.989 175.045C263.995 174.258 260.395 174.258 257.189 175.158C252.238 176.508 248.132 179.939 244.194 183.202C243.575 183.708 242.957 184.215 242.394 184.721C236.15 189.84 229.568 193.778 222.593 197.997C221.13 198.841 219.724 199.741 218.261 200.641C216.068 201.991 213.93 203.397 212.749 205.422C212.017 206.716 211.849 208.01 212.355 208.91C212.861 209.81 213.986 210.429 215.449 210.541C217.193 210.654 218.936 210.204 220.68 209.697C221.187 209.585 221.693 209.416 222.143 209.304C223.718 208.91 229.062 207.841 230.187 210.991C230.637 212.285 229.737 213.298 228.837 214.254C227.937 215.21 227.206 216.054 227.374 217.123C227.599 218.304 228.893 218.979 230.018 219.092C231.143 219.092 232.268 218.923 233.337 218.529L233.844 218.36C237.331 217.348 241.1 217.067 244.644 216.785C245.263 216.729 245.882 216.673 246.501 216.56C246.613 216.448 246.782 216.448 246.894 216.448Z" fill="#231F20"/>
<path d="M281.49 199.853L260.283 232.255C259.72 233.099 258.539 233.38 257.695 232.817L193.341 190.684C192.497 190.121 192.216 188.94 192.779 188.096L213.986 155.694C214.549 154.85 215.73 154.569 216.574 155.131L280.928 197.265C281.828 197.771 282.053 198.953 281.49 199.853Z" fill="white"/>
<path d="M259.326 232.986C258.764 232.986 258.145 232.818 257.695 232.48L194.86 191.359C193.454 190.459 193.06 188.602 193.96 187.196L214.267 156.2C215.167 154.794 217.024 154.4 218.43 155.3L281.265 196.422C282.672 197.322 283.065 199.234 282.165 200.641L261.858 231.636C261.295 232.424 260.339 232.986 259.326 232.986ZM216.855 155.525C216.686 155.525 216.518 155.525 216.405 155.582C215.843 155.694 215.336 156.032 214.999 156.538L194.691 187.534C194.016 188.546 194.297 189.952 195.31 190.628L258.145 231.749C259.158 232.424 260.564 232.143 261.239 231.13L281.546 200.078C282.222 199.066 281.94 197.659 280.928 196.984L218.093 155.863C217.699 155.638 217.249 155.525 216.855 155.525Z" fill="#231F20"/>
<path d="M251.845 226.011C251.788 226.011 251.676 226.011 251.62 225.955L199.866 192.09C199.698 191.978 199.641 191.696 199.754 191.528L220.511 159.801C220.568 159.688 220.68 159.632 220.736 159.632C220.849 159.632 220.962 159.632 221.018 159.688L272.771 193.553C272.883 193.609 272.94 193.721 272.94 193.778C272.94 193.89 272.94 194.003 272.883 194.059L252.126 225.786C252.126 225.955 251.957 226.011 251.845 226.011ZM200.654 191.64L251.732 225.111L272.04 194.059L220.962 160.588L200.654 191.64Z" fill="#D1D3D4"/>
<path d="M266.021 219.035C265.627 219.035 265.233 218.923 264.896 218.698L262.758 217.292C262.308 217.01 261.97 216.56 261.914 215.998C261.802 215.492 261.914 214.929 262.195 214.479L266.189 208.404C266.808 207.504 268.046 207.222 269.002 207.841L271.14 209.247C272.096 209.866 272.321 211.104 271.702 212.06L267.708 218.135C267.427 218.585 266.977 218.923 266.414 218.979C266.302 219.092 266.189 219.092 266.021 219.035ZM267.933 208.347C267.877 208.347 267.764 208.347 267.652 208.347C267.314 208.404 267.033 208.629 266.864 208.854L262.87 214.929C262.702 215.21 262.645 215.548 262.702 215.829C262.758 216.167 262.983 216.448 263.208 216.617L265.346 218.023C265.908 218.36 266.639 218.248 267.033 217.685L271.027 211.61C271.196 211.329 271.252 210.991 271.196 210.71C271.14 210.372 270.915 210.091 270.69 209.922L268.552 208.516C268.383 208.404 268.158 208.347 267.933 208.347Z" fill="#D1D3D4"/>
<path d="M205.773 176.846C205.717 176.846 205.604 176.846 205.548 176.789C205.379 176.677 205.323 176.452 205.436 176.227L211.342 167.226C211.455 167.057 211.736 167.001 211.905 167.114C212.074 167.226 212.13 167.451 212.017 167.676L206.111 176.677C205.998 176.789 205.886 176.846 205.773 176.846Z" fill="#D1D3D4"/>
<path d="M204.029 179.264C203.804 179.264 203.636 179.096 203.636 178.871C203.636 178.814 203.636 178.702 203.692 178.646L204.479 177.408C204.592 177.239 204.817 177.183 205.042 177.295C205.211 177.408 205.267 177.633 205.154 177.858L204.367 179.039C204.311 179.208 204.142 179.264 204.029 179.264Z" fill="#D1D3D4"/>
<path d="M231.369 209.304C233.619 210.147 234.8 212.679 233.9 214.985C233.731 215.492 233.45 215.942 233.056 216.335C232.494 216.954 231.819 217.404 231.031 217.685C229.625 218.192 228.05 218.135 226.756 217.404C224.674 216.223 223.999 213.354 225.068 211.216C226.137 209.135 229.456 208.572 231.369 209.304Z" fill="white"/>
<path d="M229.231 218.417C228.331 218.417 227.431 218.192 226.587 217.742C224.393 216.448 223.549 213.466 224.731 210.991C225.799 208.797 229.287 208.122 231.481 208.966C233.956 209.922 235.194 212.679 234.237 215.154C234.012 215.716 233.731 216.167 233.337 216.617C232.775 217.292 231.987 217.742 231.2 218.079C230.581 218.248 229.906 218.417 229.231 218.417ZM229.568 209.416C227.937 209.416 226.137 210.091 225.518 211.385C224.506 213.41 225.237 215.998 227.037 217.067C228.275 217.742 229.681 217.854 230.975 217.348C231.706 217.067 232.325 216.673 232.831 216.11C234.294 214.423 234.125 211.891 232.494 210.429C232.156 210.091 231.706 209.866 231.256 209.697C230.693 209.472 230.131 209.36 229.568 209.416Z" fill="#231F20"/>
<path d="M242 215.267C243.013 215.21 243.969 215.66 244.644 216.448C244.982 216.954 245.207 217.517 245.319 218.135C245.601 219.767 245.376 221.623 244.251 222.861C243.519 223.592 242.675 224.155 241.663 224.492C240.032 225.167 238.175 225.617 236.544 225.111C234.125 224.323 232.1 220.892 233.956 218.698C235.531 216.785 239.694 215.267 242 215.267Z" fill="white"/>
<path d="M238.119 225.673C235.756 225.673 233.675 224.098 233.056 221.792C232.662 220.611 232.887 219.317 233.731 218.36C235.362 216.448 239.638 214.873 242.057 214.873H242.113C243.238 214.817 244.363 215.323 245.038 216.223C245.432 216.785 245.657 217.404 245.769 218.079C246.107 220.048 245.713 221.904 244.644 223.142C243.857 223.93 242.957 224.492 241.944 224.886C240.706 225.336 239.413 225.617 238.119 225.673ZM242 215.66C239.806 215.66 235.756 217.179 234.294 218.923C233.675 219.654 233.45 220.723 233.787 221.623C234.237 223.03 235.306 224.211 236.713 224.717C238.006 225.111 239.581 224.942 241.607 224.098C242.507 223.761 243.35 223.255 244.025 222.579C244.926 221.567 245.263 219.936 244.982 218.192C244.925 217.629 244.7 217.123 244.419 216.673C243.8 215.998 242.957 215.604 242 215.66Z" fill="#231F20"/>
<path d="M247.851 220.779C248.469 220.498 249.145 220.386 249.82 220.442C251.338 220.611 252.632 221.679 253.139 223.142C253.589 224.605 253.42 226.18 252.688 227.53C251.901 229.161 250.438 230.342 248.694 230.849C246.894 231.299 245.038 230.792 243.744 229.499C240.482 226.123 244.475 222.073 247.851 220.779Z" fill="white"/>
<path d="M247.401 231.467C245.938 231.467 244.475 230.905 243.463 229.836C242.394 228.824 241.944 227.305 242.282 225.842C242.844 223.423 245.432 221.286 247.682 220.442C248.357 220.161 249.088 220.048 249.82 220.104C251.507 220.273 252.97 221.454 253.476 223.086C253.982 224.661 253.814 226.348 253.026 227.811C252.182 229.555 250.607 230.849 248.751 231.355C248.357 231.411 247.851 231.467 247.401 231.467ZM247.963 221.173C245.882 221.961 243.519 223.873 243.013 226.011C242.732 227.192 243.125 228.43 244.025 229.274C245.207 230.455 246.951 230.905 248.582 230.511C250.213 230.061 251.563 228.936 252.351 227.417C253.026 226.18 253.195 224.661 252.745 223.311C252.295 221.961 251.113 221.004 249.763 220.836C249.145 220.836 248.526 220.948 247.963 221.173Z" fill="#231F20"/>
<path d="M278.228 178.533C278.228 178.533 274.852 176.227 268.046 174.595C261.802 173.077 242.619 172.964 242.45 177.577C242.282 182.19 263.602 184.665 263.602 184.665C263.602 184.665 273.502 194.847 282.447 193.328" fill="white"/>
<path d="M280.534 193.834C272.49 193.834 264.502 186.071 263.433 185.002C260.676 184.665 241.944 182.246 242.057 177.521C242.113 176.789 242.507 176.058 243.125 175.664C247.176 172.57 262.364 172.795 268.102 174.145C274.965 175.777 278.284 178.083 278.453 178.139C278.621 178.252 278.678 178.533 278.565 178.702C278.453 178.871 278.171 178.927 278.003 178.814C277.946 178.814 274.627 176.508 267.933 174.877C262.42 173.527 247.401 173.358 243.632 176.227C243.182 176.508 242.9 176.958 242.844 177.464C242.732 180.558 255.557 183.202 263.658 184.158C263.77 184.158 263.827 184.215 263.883 184.271C263.995 184.383 273.784 194.284 282.39 192.765C282.615 192.709 282.784 192.878 282.84 193.103C282.897 193.328 282.728 193.497 282.503 193.553C281.884 193.778 281.209 193.834 280.534 193.834Z" fill="#231F20"/>
<path d="M333.75 185.846C328.124 200.416 319.293 213.579 307.873 224.267C306.973 225.111 306.017 225.955 305.117 226.742L289.703 223.986L298.816 185.621L333.75 185.846Z" fill="#231F20"/>
<path d="M153.345 96.1781C153.345 96.1781 177.084 92.5779 182.147 91.3403C187.21 90.1027 197.898 84.0836 198.066 83.9711C199.923 83.0148 201.835 82.1147 203.804 81.3834C205.548 80.8771 207.348 80.5396 209.148 80.2584C212.805 79.6396 216.574 79.9208 220.062 80.9897C225.743 82.9023 230.018 87.4588 234.462 91.509C241.663 98.0907 249.595 103.21 257.583 108.779C259.664 110.241 261.802 111.76 262.927 114.067C263.545 115.304 263.77 116.823 263.095 117.948C262.42 119.073 260.901 119.523 259.551 119.579C257.245 119.579 255.051 118.623 252.801 117.948C250.832 117.329 246.276 116.317 245.151 118.904C244.25 120.986 248.244 122.673 247.626 125.149C247.119 127.117 245.038 127.23 243.463 127.061C242.844 127.005 238.513 126.274 238.288 126.049C239.356 127.455 238.175 129.761 236.431 130.211C234.687 130.661 233 129.649 231.65 128.693C231.425 130.549 230.187 132.18 228.387 132.743C224.449 134.374 220.512 133.08 216.574 132.237C213.03 131.505 209.373 131.393 205.829 130.549C200.429 129.255 195.31 127.005 190.078 125.149C184.284 123.067 170.671 126.33 170.671 126.33L153.345 96.1781Z" fill="white"/>
<path d="M224.28 133.98C222.255 133.924 220.174 133.587 218.205 133.08C217.643 132.968 217.08 132.799 216.518 132.687C214.886 132.349 213.199 132.124 211.567 131.955C209.598 131.73 207.686 131.449 205.773 130.999C201.948 129.986 198.123 128.749 194.466 127.286C193.004 126.724 191.485 126.161 190.022 125.599C184.397 123.574 170.952 126.78 170.84 126.78C170.671 126.836 170.502 126.724 170.39 126.611L153.064 96.4594C153.007 96.3469 153.007 96.1782 153.064 96.0657C153.12 95.9531 153.232 95.8969 153.345 95.8406C153.57 95.7844 177.084 92.2404 182.09 91.0028C187.097 89.7653 197.785 83.7462 197.898 83.6899C199.754 82.6773 201.723 81.8335 203.692 81.1023C205.436 80.596 207.236 80.2022 209.092 79.9209C213.255 79.3584 217.024 79.5834 220.23 80.7085C225.237 82.3961 229.175 86.1088 233.056 89.709C233.619 90.2153 234.181 90.7778 234.8 91.2841C240.706 96.6844 247.007 101.016 253.701 105.629C255.107 106.585 256.457 107.541 257.864 108.498C260.114 110.073 262.195 111.648 263.32 113.898C264.108 115.473 264.164 117.048 263.433 118.173C262.702 119.298 261.351 119.973 259.551 119.973C257.639 119.973 255.839 119.355 254.151 118.792C253.645 118.623 253.195 118.455 252.688 118.286C251.676 117.948 246.613 116.542 245.488 119.073C245.151 119.861 245.769 120.705 246.557 121.605C247.401 122.617 248.357 123.799 247.963 125.261C247.344 127.849 244.363 127.568 243.407 127.511C243.35 127.511 240.594 127.118 239.019 126.724C239.131 127.286 239.131 127.849 238.906 128.355C238.513 129.424 237.613 130.268 236.544 130.605C234.856 131.055 233.281 130.268 231.931 129.368C231.537 131.112 230.243 132.574 228.556 133.137C227.149 133.755 225.743 133.98 224.28 133.98ZM184.734 124.136C186.591 124.08 188.447 124.305 190.191 124.867C191.71 125.374 193.172 125.992 194.691 126.555C198.348 128.018 202.06 129.255 205.886 130.268C207.798 130.662 209.655 130.943 211.623 131.168C213.255 131.393 214.999 131.562 216.63 131.955C217.193 132.068 217.755 132.18 218.318 132.349C221.693 133.137 224.899 133.812 228.162 132.462C229.793 131.899 230.975 130.436 231.2 128.693C231.2 128.58 231.312 128.468 231.425 128.411C231.537 128.355 231.706 128.355 231.818 128.468C233.225 129.424 234.687 130.324 236.262 129.93C237.106 129.649 237.781 129.03 238.119 128.186C238.344 127.624 238.288 126.949 237.894 126.442C237.781 126.274 237.781 126.049 237.95 125.88C238.119 125.767 238.288 125.767 238.456 125.88C240.088 126.274 241.719 126.611 243.407 126.836C245.657 127.061 246.838 126.555 247.119 125.205C247.401 124.136 246.613 123.236 245.826 122.223C245.038 121.211 244.138 120.086 244.644 118.848C245.994 115.811 251.226 117.161 252.801 117.667C253.307 117.836 253.757 118.004 254.264 118.173C255.951 118.736 257.695 119.355 259.439 119.298C260.901 119.298 262.083 118.736 262.645 117.892C263.208 117.048 263.152 115.698 262.477 114.348C261.408 112.21 259.383 110.748 257.301 109.229C255.895 108.273 254.489 107.316 253.138 106.36C246.444 101.747 240.144 97.4157 234.181 91.9592C233.619 91.4529 233 90.8903 232.437 90.3278C228.668 86.7838 224.787 83.1274 219.893 81.496C216.799 80.4272 213.142 80.2022 209.148 80.7647C207.348 81.046 205.604 81.3835 203.861 81.8898C201.948 82.6211 200.035 83.4649 198.235 84.4212C198.123 84.4775 187.322 90.5528 182.203 91.7904C177.59 92.9155 157.564 96.0094 153.964 96.5719L170.84 126.049C172.359 125.599 179.109 124.136 184.734 124.136Z" fill="#231F20"/>
<path d="M263.152 64.6199L282.334 98.0907C282.84 98.9907 282.559 100.116 281.659 100.678L215.167 138.762C214.267 139.268 213.142 138.987 212.58 138.087L193.397 104.616C192.891 103.716 193.172 102.591 194.072 102.028L260.564 63.9448C261.464 63.4386 262.645 63.7198 263.152 64.6199Z" fill="white"/>
<path d="M214.549 139.156C213.48 139.156 212.467 138.593 211.905 137.637L193.454 105.46C192.61 103.997 193.116 102.141 194.579 101.353L259.72 64.0011C261.183 63.1573 263.039 63.6636 263.883 65.1262L282.334 97.3031C283.178 98.7657 282.672 100.622 281.209 101.41L216.068 138.762C215.561 138.987 215.055 139.156 214.549 139.156ZM212.58 137.243C213.199 138.312 214.549 138.706 215.618 138.087L280.815 100.735C281.321 100.453 281.715 99.947 281.884 99.3845C282.053 98.822 281.94 98.2032 281.659 97.6969L263.208 65.5199C262.589 64.4511 261.239 64.0574 260.17 64.6761L194.973 101.972C193.904 102.591 193.51 103.941 194.129 105.01L212.58 137.243Z" fill="#231F20"/>
<path d="M222.255 132.686C222.087 132.686 221.974 132.63 221.918 132.461L203.073 99.5532C203.017 99.4407 203.017 99.3282 203.017 99.272C203.017 99.1595 203.129 99.1032 203.186 99.047L256.851 68.2763C256.964 68.2201 257.076 68.2201 257.133 68.2201C257.245 68.2201 257.301 68.3326 257.358 68.3889L276.202 101.297C276.315 101.466 276.259 101.747 276.09 101.86C276.09 101.86 276.09 101.86 276.034 101.86L222.368 132.574C222.368 132.686 222.312 132.686 222.255 132.686ZM203.917 99.5532L222.368 131.73L275.359 101.353L256.908 69.1764L203.917 99.5532Z" fill="#D1D3D4"/>
<path d="M208.586 124.867C208.417 124.867 208.248 124.867 208.08 124.811C207.573 124.699 207.123 124.305 206.842 123.855L203.242 117.554C202.679 116.598 203.017 115.361 203.973 114.798L206.167 113.56C207.123 112.998 208.361 113.335 208.923 114.292L212.524 120.592C212.805 121.042 212.861 121.605 212.749 122.111C212.636 122.617 212.242 123.067 211.792 123.349L209.598 124.586C209.261 124.755 208.923 124.867 208.586 124.867ZM207.179 114.067C206.954 114.067 206.729 114.123 206.561 114.235L204.367 115.473C203.804 115.811 203.579 116.542 203.917 117.161L207.517 123.461C207.854 124.024 208.586 124.249 209.148 123.911C209.148 123.911 209.148 123.911 209.205 123.911L211.398 122.673C212.017 122.336 212.186 121.605 211.848 120.986L208.248 114.686C208.08 114.404 207.798 114.179 207.517 114.123C207.404 114.067 207.292 114.067 207.179 114.067Z" fill="#D1D3D4"/>
<path d="M271.196 86.3337C271.027 86.3337 270.915 86.2775 270.858 86.1087L265.514 76.7706C265.402 76.6019 265.458 76.3206 265.683 76.2081C265.852 76.0956 266.133 76.1519 266.246 76.3769L271.59 85.7149C271.702 85.8837 271.646 86.165 271.421 86.2212C271.308 86.2775 271.252 86.3337 271.196 86.3337Z" fill="#D1D3D4"/>
<path d="M272.771 88.8089C272.602 88.8089 272.49 88.7527 272.433 88.5839L271.702 87.3463C271.59 87.1776 271.646 86.8963 271.871 86.7838C272.04 86.6713 272.321 86.7275 272.433 86.9526L273.165 88.2464C273.277 88.4151 273.221 88.6964 273.052 88.8089C272.883 88.8089 272.827 88.8089 272.771 88.8089Z" fill="#D1D3D4"/>
<path d="M198.685 83.6898C198.685 83.6898 210.723 75.5331 215.955 80.2021C219.443 83.2961 226.193 102.703 221.749 102.816C217.305 102.928 212.861 90.6653 212.861 90.6653C212.861 90.6653 202.342 100.228 193.566 98.147" fill="white"/>
<path d="M221.749 103.153C217.586 103.153 213.705 93.7028 212.749 91.2839C210.667 93.0841 201.498 100.397 193.51 98.4844C193.285 98.4281 193.172 98.2031 193.229 97.9781C193.285 97.7531 193.51 97.6406 193.735 97.6968C202.229 99.722 212.58 90.3839 212.692 90.2714C212.805 90.1589 212.917 90.1589 213.03 90.1589C213.142 90.2151 213.255 90.2714 213.311 90.3839C214.492 93.7028 218.43 102.31 221.805 102.253C222.03 102.253 222.424 102.197 222.649 101.522C223.999 97.8093 218.768 83.0147 215.73 80.3145C210.723 75.8705 199.023 83.746 198.91 83.8585C198.741 83.971 198.516 83.971 198.348 83.8022C198.235 83.6335 198.235 83.4085 198.404 83.2397C198.404 83.2397 198.46 83.2397 198.46 83.1835C198.966 82.8459 210.78 74.9142 216.236 79.6957C217.98 81.2146 220.118 86.0524 221.524 90.1589C222.199 92.184 224.337 98.9344 223.324 101.691C223.155 102.647 222.537 103.153 221.749 103.153Z" fill="#231F20"/>
<path d="M182.766 88.4152L175.678 130.38L135.569 133.587C137.369 121.661 141.194 110.129 146.988 99.5533C149.07 95.7281 151.432 92.0154 153.964 88.5277L182.766 88.4152Z" fill="#231F20"/>
<path d="M223.268 176.902L225.574 179.546C227.037 181.346 231.706 180.108 235.981 176.677C240.256 173.245 242.507 168.97 241.044 167.17L238.738 164.526L223.268 176.902Z" fill="#1E1E1E"/>
<path d="M227.712 180.783C226.756 180.839 225.856 180.502 225.237 179.771L222.93 177.127C222.874 177.07 222.818 176.958 222.818 176.845C222.818 176.733 222.874 176.62 222.987 176.564L238.456 164.132C238.625 163.963 238.85 164.02 239.019 164.188L241.325 166.832C242.169 167.845 242 169.476 240.988 171.445C238.456 175.664 234.462 178.871 229.793 180.389C229.175 180.671 228.443 180.783 227.712 180.783ZM223.83 176.958L225.856 179.264C226.474 179.996 227.824 180.164 229.568 179.658C234.012 178.139 237.838 175.102 240.256 171.108C241.1 169.476 241.269 168.126 240.706 167.395L238.681 165.032L223.83 176.958Z" fill="#231F20"/>
<path d="M233.656 173.985C237.923 170.567 240.202 166.322 238.746 164.503C237.289 162.684 232.649 163.981 228.381 167.399C224.113 170.817 221.834 175.062 223.291 176.881C224.747 178.699 229.388 177.403 233.656 173.985Z" fill="#1E1E1E"/>
<path d="M225.405 178.139C224.449 178.196 223.549 177.858 222.93 177.183C222.143 176.17 222.255 174.539 223.268 172.57C225.799 168.351 229.793 165.201 234.462 163.626C236.6 163.063 238.231 163.288 239.019 164.301C239.806 165.314 239.694 166.945 238.681 168.914C236.15 173.133 232.156 176.283 227.487 177.858C226.812 178.027 226.137 178.139 225.405 178.139ZM236.6 164.076C235.981 164.076 235.362 164.188 234.744 164.357C230.3 165.876 226.474 168.914 224.055 172.908C223.212 174.539 223.043 175.889 223.605 176.62C224.168 177.352 225.574 177.521 227.318 177.014C231.762 175.495 235.587 172.458 238.006 168.464C238.85 166.832 239.019 165.482 238.456 164.751C237.95 164.245 237.275 164.02 236.6 164.076Z" fill="#231F20"/>
<path d="M236.206 165.932L235.194 166.889C235.137 166.945 235.137 166.945 235.194 167.001C235.587 167.001 235.925 167.282 236.15 167.62C236.319 167.957 236.094 168.464 235.644 168.97C235.531 169.139 235.362 169.251 235.25 169.42L233.45 169.308C233.675 169.139 233.787 168.914 233.843 168.689C233.843 168.576 233.787 168.464 233.731 168.351H233.675L231.762 170.151L231.875 170.208C232.212 170.32 232.493 170.489 232.775 170.714C233.168 171.108 233 171.614 232.381 172.289C231.762 172.964 231.031 173.47 230.187 173.864C229.568 174.145 228.893 174.314 228.218 174.37C227.881 174.37 227.543 174.37 227.206 174.37L226.531 175.045L225.405 174.708L226.08 174.033C225.912 173.92 225.799 173.808 225.687 173.695C225.462 173.414 225.405 173.02 225.574 172.683C225.799 172.233 226.08 171.895 226.418 171.558L227.599 171.783C227.149 172.289 227.037 172.683 227.318 172.908L229.231 171.108C229.062 170.995 228.893 170.883 228.724 170.77C228.556 170.658 228.387 170.489 228.443 170.264C228.499 169.926 228.668 169.645 228.893 169.42C229.231 168.97 229.681 168.633 230.131 168.295C230.862 167.789 231.706 167.395 232.55 167.17C232.887 167.114 233.168 167.057 233.506 167.001H233.618L234.631 166.045L236.206 165.932ZM228.556 173.189C228.837 173.189 229.118 173.133 229.399 173.077C229.962 172.908 230.525 172.402 230.581 172.064C230.637 171.726 230.412 171.726 230.243 171.558L228.556 173.189ZM232.325 168.183C232.043 168.239 231.818 168.295 231.537 168.408C230.918 168.633 230.356 169.139 230.412 169.42C230.412 169.589 230.581 169.645 230.75 169.701L232.325 168.183Z" fill="white"/>
<path d="M232.437 115.867L230.75 118.905C229.512 120.873 232.268 124.867 236.937 127.736C241.606 130.605 246.388 131.337 247.626 129.368L249.313 126.33L232.437 115.867Z" fill="#1E1E1E"/>
<path d="M244.813 130.943C244.363 130.943 243.913 130.886 243.463 130.83C238.625 129.818 234.35 127.174 231.312 123.292C230.075 121.492 229.737 119.861 230.412 118.792L232.1 115.754C232.156 115.642 232.268 115.586 232.325 115.586C232.437 115.586 232.55 115.586 232.606 115.642L249.482 126.105C249.651 126.217 249.707 126.442 249.594 126.611L247.851 129.649C247.401 130.436 246.332 130.943 244.813 130.943ZM232.55 116.429L231.031 119.13C230.525 119.973 230.862 121.267 231.875 122.786C234.8 126.499 238.906 129.03 243.519 129.986C245.319 130.268 246.669 129.93 247.176 129.143L248.694 126.442L232.55 116.429Z" fill="#231F20"/>
<path d="M249.812 126.758C251.061 124.755 248.291 120.772 243.625 117.862C238.958 114.953 234.163 114.218 232.913 116.222C231.664 118.226 234.434 122.209 239.101 125.118C243.767 128.028 248.563 128.762 249.812 126.758Z" fill="#1E1E1E"/>
<path d="M246.557 127.849C244.363 127.849 241.438 126.892 238.456 125.036C233.562 121.998 230.75 117.892 232.156 115.642C233.562 113.392 238.456 114.067 243.35 117.104C248.244 120.142 251.001 124.305 249.651 126.499C249.088 127.455 247.963 127.849 246.557 127.849ZM235.194 115.135C234.069 115.135 233.168 115.417 232.775 116.092C231.65 117.892 234.462 121.661 238.85 124.417C243.238 127.117 247.851 127.905 248.976 126.161C250.101 124.417 247.288 120.592 242.9 117.892C240.088 116.092 237.219 115.135 235.194 115.135Z" fill="#231F20"/>
<path d="M247.119 124.417L245.882 123.799C245.825 123.742 245.769 123.742 245.769 123.799C245.882 124.192 245.769 124.586 245.488 124.867C245.207 125.149 244.7 125.092 244.025 124.867C243.857 124.811 243.688 124.699 243.463 124.642L242.957 122.898C243.182 123.011 243.407 123.067 243.688 123.067C243.8 123.011 243.913 122.955 243.969 122.842L243.913 122.786L241.55 121.605C241.55 121.661 241.55 121.717 241.55 121.717C241.55 122.055 241.494 122.392 241.381 122.73C241.156 123.236 240.594 123.292 239.75 122.898C238.906 122.561 238.175 121.998 237.556 121.38C237.106 120.873 236.712 120.311 236.431 119.692C236.319 119.354 236.206 119.073 236.094 118.736L235.25 118.286L235.194 117.104L236.037 117.554C236.094 117.386 236.15 117.217 236.262 117.048C236.431 116.711 236.825 116.542 237.162 116.598C237.613 116.654 238.063 116.767 238.513 117.048L238.738 118.229C238.119 117.948 237.725 117.948 237.613 118.342L239.919 119.523C239.975 119.298 239.975 119.129 240.031 118.961C240.088 118.736 240.2 118.567 240.425 118.511C240.763 118.454 241.044 118.511 241.381 118.623C241.888 118.848 242.394 119.073 242.844 119.411C243.575 119.917 244.194 120.592 244.7 121.323C244.869 121.605 245.038 121.886 245.207 122.167L245.263 122.28L246.501 122.898L247.119 124.417ZM237.725 119.636C237.838 119.917 237.95 120.142 238.119 120.423C238.456 120.873 238.906 121.155 239.469 121.211C239.694 121.155 239.75 120.93 239.806 120.705L237.725 119.636ZM243.744 121.548C243.575 121.323 243.463 121.098 243.238 120.873C242.844 120.367 242.113 119.973 241.888 120.142C241.775 120.198 241.719 120.367 241.719 120.536L243.744 121.548Z" fill="white"/>
<path d="M224.899 131.055C221.355 132.349 218.486 139.268 218.486 139.268L219.386 142.7C221.074 147.425 226.306 149.9 231.087 148.212C235.812 146.525 238.288 141.293 236.6 136.512L235.081 133.249C235.081 133.305 228.443 129.818 224.899 131.055Z" fill="#1E1E1E"/>
<path d="M227.993 149.169C223.999 149.169 220.399 146.637 219.049 142.868L218.149 139.381C218.093 139.324 218.093 139.212 218.149 139.156C218.261 138.874 221.13 132.011 224.787 130.718C228.443 129.368 235.025 132.855 235.306 133.024C235.362 133.08 235.419 133.137 235.475 133.193L236.994 136.455C238.794 141.406 236.206 146.862 231.256 148.662C230.131 149 229.062 149.169 227.993 149.169ZM218.88 139.324L219.78 142.643C221.524 147.144 226.531 149.394 231.031 147.706C235.419 146.019 237.725 141.181 236.15 136.737L234.744 133.643C233.843 133.193 228.106 130.38 225.012 131.449C221.918 132.518 219.274 138.424 218.88 139.324Z" fill="#231F20"/>
<path d="M227.206 146.581C232.239 146.581 236.319 142.501 236.319 137.468C236.319 132.435 232.239 128.355 227.206 128.355C222.173 128.355 218.093 132.435 218.093 137.468C218.093 142.501 222.173 146.581 227.206 146.581Z" fill="#1E1E1E"/>
<path d="M227.206 146.975C221.918 146.975 217.699 142.7 217.699 137.468C217.699 132.237 221.974 127.961 227.206 127.961C232.437 127.961 236.712 132.237 236.712 137.468C236.712 141.462 234.181 145.062 230.412 146.412C229.399 146.806 228.274 146.975 227.206 146.975ZM227.206 128.749C222.368 128.749 218.486 132.63 218.43 137.468C218.43 142.306 222.312 146.187 227.149 146.244C231.987 146.244 235.869 142.362 235.925 137.524C235.925 136.512 235.756 135.499 235.419 134.543C234.181 131.055 230.862 128.749 227.206 128.749Z" fill="#231F20"/>
<path d="M225.856 130.999C226.024 131.393 226.137 131.843 226.306 132.236C226.306 132.293 226.362 132.349 226.418 132.349C227.093 132.236 227.768 132.293 228.387 132.518C229.062 132.743 229.568 133.193 229.906 133.812C230.018 133.98 230.075 134.149 230.187 134.318L228.274 134.993C228.162 134.712 227.993 134.43 227.712 134.318C227.487 134.205 227.262 134.149 227.037 134.037V134.093L227.881 136.512H228.106C228.668 136.399 229.231 136.399 229.793 136.455C230.637 136.512 231.425 137.018 231.762 137.806C232.493 139.099 232.156 140.731 230.975 141.687C230.637 141.912 230.3 142.137 229.962 142.418L230.3 143.375L228.499 143.993L228.162 143.037C227.768 143.093 227.374 143.093 227.037 143.15C226.306 143.15 225.631 142.981 225.012 142.531C224.505 142.137 224.168 141.631 223.943 141.068L225.856 140.393C226.137 141.068 226.812 141.462 227.543 141.406L226.643 138.818C226.249 138.874 225.856 138.874 225.462 138.874C225.012 138.931 224.505 138.818 224.055 138.649C223.605 138.424 223.268 138.087 222.987 137.693C222.649 137.187 222.537 136.624 222.48 136.005C222.48 135.105 222.874 134.318 223.549 133.755C223.83 133.53 224.112 133.362 224.449 133.193L224.562 133.137L224.112 131.843L225.856 130.999ZM229.343 140.618C229.625 140.449 229.85 140.281 230.018 139.999C230.3 139.493 230.131 138.931 229.681 138.593C229.343 138.424 228.949 138.368 228.556 138.424L229.343 140.618ZM225.124 134.599C224.899 134.768 224.73 134.937 224.562 135.162C224.224 135.612 224.337 136.23 224.843 136.568C224.899 136.624 224.955 136.624 225.012 136.68C225.293 136.793 225.631 136.793 225.912 136.737L225.124 134.599Z" fill="white"/>
<path d="M244.025 95.0531C240.65 93.3092 233.619 95.9531 233.619 95.9531L231.706 98.9908C229.512 103.547 231.425 109.004 235.925 111.198C240.313 113.335 245.601 111.648 247.907 107.373L249.257 104.054C249.313 104.054 247.401 96.797 244.025 95.0531Z" fill="#1E1E1E"/>
<path d="M239.863 112.66C234.575 112.66 230.356 108.385 230.356 103.097C230.356 101.579 230.75 100.116 231.425 98.7659L233.337 95.7282C233.393 95.6719 233.45 95.6157 233.562 95.5594C233.843 95.4469 240.819 92.8593 244.25 94.6594C247.738 96.4595 249.651 103.604 249.707 103.885C249.707 103.941 249.707 104.054 249.707 104.11L248.357 107.429C246.669 110.635 243.407 112.66 239.863 112.66ZM233.9 96.2907L232.043 99.2159C229.849 103.491 231.537 108.779 235.812 110.973C240.088 113.167 245.375 111.479 247.569 107.204L248.863 104.054C248.582 103.097 246.726 96.9658 243.8 95.4469C240.875 93.9281 234.856 95.9532 233.9 96.2907Z" fill="#231F20"/>
<path d="M240.931 110.185C245.964 110.185 250.045 106.105 250.045 101.072C250.045 96.0392 245.964 91.9591 240.931 91.9591C235.898 91.9591 231.818 96.0392 231.818 101.072C231.818 106.105 235.898 110.185 240.931 110.185Z" fill="#1E1E1E"/>
<path d="M240.875 110.635C235.587 110.635 231.312 106.36 231.312 101.072C231.312 95.7843 235.587 91.509 240.875 91.509C246.163 91.509 250.438 95.7843 250.438 101.072C250.438 105.235 247.738 108.948 243.8 110.185C242.844 110.466 241.888 110.635 240.875 110.635ZM240.875 92.3528C239.975 92.3528 239.075 92.5216 238.231 92.7466C233.675 94.2092 231.143 99.1032 232.606 103.66C234.068 108.216 238.963 110.748 243.519 109.285C248.076 107.823 250.607 102.928 249.144 98.3719C248.019 94.7717 244.644 92.3528 240.875 92.3528Z" fill="#231F20"/>
<path d="M244.757 95.7281C244.532 96.1219 244.363 96.5156 244.138 96.9094C244.082 96.9657 244.138 97.0219 244.138 97.0782C244.644 97.472 245.094 98.0345 245.319 98.6533C245.6 99.2721 245.6 100.003 245.375 100.678C245.319 100.847 245.263 101.016 245.15 101.241L243.35 100.285C243.463 100.003 243.519 99.6658 243.463 99.3846C243.407 99.1596 243.294 98.9346 243.182 98.7095H243.125L241.944 100.96L242.113 101.128C242.563 101.466 242.957 101.86 243.294 102.31C243.857 102.985 243.969 103.885 243.632 104.672C243.35 105.404 242.844 106.022 242.113 106.416C241.55 106.698 240.875 106.81 240.256 106.754C239.863 106.698 239.469 106.585 239.075 106.529L238.625 107.429L236.937 106.585L237.387 105.685C237.106 105.404 236.825 105.179 236.544 104.897C236.037 104.391 235.756 103.716 235.644 102.985C235.587 102.366 235.7 101.747 236.037 101.185L237.838 102.085C237.556 102.76 237.725 103.491 238.231 103.997L239.469 101.578C239.188 101.297 238.906 101.016 238.625 100.735C238.288 100.397 238.006 100.003 237.838 99.5533C237.669 99.1033 237.669 98.597 237.838 98.147C238.006 97.5845 238.288 97.0219 238.738 96.6282C239.356 96.0094 240.256 95.7844 241.1 95.8969C241.438 95.9531 241.775 96.0094 242.113 96.1219L242.225 96.1781L242.844 94.9406L244.757 95.7281ZM240.031 104.841C240.313 104.954 240.65 104.954 240.931 104.897C241.494 104.785 241.832 104.222 241.775 103.716C241.663 103.322 241.438 103.041 241.1 102.76L240.031 104.841ZM241.663 97.6407C241.381 97.6407 241.1 97.6407 240.875 97.6407C240.313 97.697 239.919 98.2595 240.031 98.7658C240.031 98.822 240.031 98.8783 240.088 98.9345C240.2 99.2158 240.425 99.4408 240.65 99.6658L241.663 97.6407Z" fill="white"/>
<path d="M241.269 149.788C239.3 153.05 241.494 160.195 241.494 160.195L244.363 162.276C248.694 164.864 254.263 163.457 256.907 159.182C259.551 154.907 258.089 149.281 253.813 146.637L250.607 145.062C250.607 145.119 243.238 146.581 241.269 149.788Z" fill="#1E1E1E"/>
<path d="M249.088 164.02C247.344 164.02 245.657 163.57 244.194 162.67L241.269 160.532C241.213 160.476 241.156 160.42 241.156 160.307C241.044 160.026 238.963 152.938 240.931 149.563C242.957 146.187 250.213 144.725 250.494 144.725C250.551 144.725 250.663 144.725 250.776 144.725L253.982 146.3C258.482 149 260.001 154.85 257.301 159.351C256.007 161.545 253.87 163.12 251.451 163.739C250.663 163.907 249.876 164.02 249.088 164.02ZM241.888 159.97L244.644 161.995C248.807 164.47 254.151 163.12 256.626 159.013C259.101 154.907 257.751 149.506 253.645 147.031L250.607 145.569C249.651 145.794 243.35 147.2 241.663 150.069C239.919 152.825 241.606 159.013 241.888 159.97Z" fill="#231F20"/>
<path d="M247.119 162.445C252.152 162.445 256.232 158.365 256.232 153.332C256.232 148.299 252.152 144.219 247.119 144.219C242.086 144.219 238.006 148.299 238.006 153.332C238.006 158.365 242.086 162.445 247.119 162.445Z" fill="#1E1E1E"/>
<path d="M247.119 162.838C241.888 162.838 237.612 158.563 237.612 153.332C237.612 148.1 241.888 143.825 247.119 143.825C248.863 143.825 250.551 144.275 252.013 145.175C256.514 147.875 257.976 153.725 255.276 158.226C253.588 161.095 250.438 162.838 247.119 162.838ZM247.119 144.612C242.282 144.612 238.4 148.55 238.4 153.332C238.4 158.113 242.338 162.051 247.119 162.051C251.957 162.051 255.839 158.113 255.839 153.332C255.839 150.294 254.207 147.425 251.62 145.85C250.27 145.006 248.751 144.612 247.119 144.612Z" fill="#231F20"/>
<path d="M242 149.113C242.394 149.338 242.788 149.563 243.125 149.788C243.182 149.844 243.238 149.844 243.294 149.731C243.744 149.225 244.307 148.888 244.925 148.663C245.601 148.438 246.276 148.438 246.951 148.719C247.119 148.775 247.288 148.888 247.513 148.944L246.444 150.688C246.163 150.519 245.882 150.463 245.544 150.519C245.319 150.575 245.094 150.631 244.869 150.744V150.8L247.063 152.094L247.232 151.925C247.626 151.475 248.019 151.138 248.526 150.8C249.201 150.294 250.157 150.238 250.888 150.575C251.62 150.856 252.182 151.475 252.52 152.207C252.801 152.825 252.857 153.444 252.688 154.063C252.632 154.457 252.463 154.85 252.351 155.244L253.195 155.75L252.238 157.382L251.338 156.876C251.057 157.157 250.776 157.438 250.495 157.663C249.932 158.113 249.257 158.394 248.526 158.451C247.907 158.451 247.288 158.282 246.782 157.944L247.851 156.201C248.469 156.538 249.257 156.426 249.763 155.919L247.457 154.513C247.176 154.794 246.894 155.075 246.613 155.3C246.276 155.638 245.826 155.863 245.375 155.976C244.925 156.088 244.419 156.088 243.969 155.863C243.407 155.638 242.9 155.3 242.507 154.85C241.944 154.175 241.719 153.275 241.944 152.432C242 152.094 242.113 151.757 242.225 151.419C242.225 151.363 242.225 151.363 242.282 151.306L241.1 150.575L242 149.113ZM250.776 154.4C250.888 154.119 250.945 153.782 250.888 153.5C250.776 152.938 250.326 152.6 249.763 152.6C249.369 152.713 249.032 152.938 248.751 153.219L250.776 154.4ZM243.744 152.375C243.688 152.657 243.688 152.938 243.688 153.163C243.744 153.725 244.194 154.119 244.757 154.063C244.813 154.063 244.869 154.063 244.925 154.007C245.207 153.894 245.488 153.725 245.713 153.5L243.744 152.375Z" fill="white"/>
<path d="M246.838 196.872C245.882 194.228 244.194 190.515 241.775 189.221C237.95 187.196 229.793 190.121 229.793 190.121L227.543 193.553C226.981 194.565 226.587 195.69 226.418 196.872H246.838Z" fill="#1E1E1E"/>
<path d="M246.838 197.265H226.474C226.362 197.265 226.249 197.209 226.193 197.153C226.137 197.04 226.081 196.928 226.081 196.815C226.249 195.634 226.643 194.453 227.206 193.384L229.456 189.896C229.512 189.84 229.568 189.784 229.681 189.728C230.018 189.615 238.006 186.746 242 188.884C244.475 190.178 246.219 193.89 247.232 196.703C247.288 196.928 247.176 197.153 247.007 197.209C246.894 197.265 246.838 197.265 246.838 197.265ZM226.924 196.478H246.276C244.925 192.934 243.294 190.459 241.607 189.615C238.231 187.815 231.087 190.121 230.075 190.459L227.881 193.778C227.431 194.622 227.149 195.522 226.924 196.478Z" fill="#231F20"/>
<path d="M248.582 196.872C248.976 191.078 244.644 186.071 238.85 185.677C233.056 185.284 228.049 189.615 227.656 195.409C227.599 195.915 227.599 196.365 227.656 196.872H248.582Z" fill="#1E1E1E"/>
<path d="M248.582 197.266H227.656C227.431 197.266 227.262 197.097 227.262 196.928C226.812 190.909 231.368 185.734 237.331 185.284C243.294 184.834 248.526 189.39 248.976 195.353C249.032 195.859 249.032 196.422 248.976 196.928C248.976 197.097 248.807 197.266 248.582 197.266ZM227.993 196.478H248.188C248.582 190.909 244.363 186.071 238.738 185.677C233.168 185.284 228.331 189.503 227.937 195.128C227.937 195.578 227.937 196.028 227.993 196.478Z" fill="#231F20"/>
<path d="M235.644 195.634C235.981 195.972 236.319 196.253 236.656 196.59L236.544 196.872H240.425C240.2 196.647 239.919 196.422 239.694 196.197L239.469 196.028C239.919 195.128 240.369 194.284 240.875 193.44H240.931C241.044 193.722 241.157 193.947 241.213 194.228C241.269 194.565 241.213 194.959 241.044 195.24L243.125 196.365C243.182 196.14 243.294 195.972 243.35 195.747C243.632 195.015 243.575 194.172 243.294 193.44C243.013 192.709 242.563 192.09 241.944 191.64C241.888 191.584 241.832 191.528 241.888 191.471C242.113 191.021 242.394 190.571 242.619 190.121L240.706 189.109L239.975 190.515L239.863 190.459C239.469 190.346 239.075 190.234 238.681 190.121C237.669 189.953 236.656 190.29 235.925 190.965C235.419 191.415 235.025 192.034 234.856 192.709C234.687 193.272 234.687 193.834 234.856 194.34C234.969 194.79 235.25 195.24 235.644 195.634ZM238.063 192.146C238.4 192.146 238.681 192.146 239.019 192.146L237.781 194.453C237.5 194.228 237.275 193.947 237.163 193.609C236.994 192.99 237.331 192.371 237.95 192.146C237.95 192.203 238.006 192.146 238.063 192.146Z" fill="white"/>
<path d="M255.107 197.265H220.849C220.624 197.265 220.455 197.097 220.455 196.872C220.455 196.647 220.624 196.478 220.849 196.478H255.107C255.332 196.478 255.501 196.647 255.501 196.872C255.501 197.097 255.332 197.265 255.107 197.265Z" fill="#231F20"/>
</g>
</g>
<defs>
<linearGradient id="paint0_linear_57_1150" x1="237.33" y1="0.5" x2="237.33" y2="306" gradientUnits="userSpaceOnUse">
<stop/>
<stop offset="0.5"/>
<stop offset="1" stop-opacity="0"/>
</linearGradient>
<clipPath id="clip0_57_1150">
<rect width="475" height="297" fill="white" transform="translate(0 0.5)"/>
</clipPath>
</defs>
</svg>
