<svg width="316" height="192" viewBox="0 0 316 192" fill="none" xmlns="http://www.w3.org/2000/svg">
<path d="M56.2983 1.84331L25.4512 78.6508L235.946 163.189L266.793 86.3815L56.2983 1.84331Z" fill="#AEAEAE"/>
<path d="M235.981 163.786C235.896 163.786 235.812 163.786 235.727 163.786L25.2176 79.2441C25.0485 79.1596 24.964 79.075 24.8794 78.9059C24.7949 78.7369 24.7949 78.5678 24.8794 78.4832L55.7373 1.63453C55.8218 1.29636 56.2445 1.21182 56.4982 1.29636L267.008 85.8384C267.177 85.9229 267.261 86.0075 267.346 86.1766C267.431 86.3456 267.431 86.5147 267.346 86.5993L236.573 163.448C236.404 163.702 236.235 163.786 235.981 163.786ZM26.2321 78.3987L235.643 162.518L266.078 86.7684L56.6673 2.64904L26.2321 78.3987Z" fill="#231F20"/>
<path d="M33.1186 20.6716L17.3929 101.932L240.091 145.029L255.817 63.7686L33.1186 20.6716Z" fill="#AEAEAE"/>
<path d="M240.039 145.61H239.954L17.2707 102.493C16.9325 102.409 16.7634 102.155 16.7634 101.817L32.4882 20.5719C32.4882 20.4028 32.5728 20.3182 32.7419 20.2337C32.8264 20.1492 32.9955 20.0646 33.1646 20.1492L255.848 63.2656C256.186 63.3501 256.356 63.6038 256.356 63.9419L240.631 145.271C240.631 145.44 240.546 145.525 240.377 145.694C240.293 145.61 240.208 145.694 240.039 145.61ZM18.0316 101.479L239.616 144.341L255.087 64.1956L33.5028 21.3327L18.0316 101.479Z" fill="#231F20"/>
<path d="M35.8727 45.0249L30.1569 127.593L256.439 143.258L262.155 60.6895L35.8727 45.0249Z" fill="#AEAEAE"/>
<path d="M256.44 143.834L30.1211 128.194C29.952 128.194 29.7829 128.109 29.6984 128.025C29.6138 127.94 29.5293 127.771 29.5293 127.602L35.2782 45.0045C35.2782 44.6663 35.6163 44.4127 35.8699 44.4127L262.189 60.053C262.527 60.053 262.781 60.3912 262.781 60.6448L257.032 143.242C257.032 143.665 256.778 143.834 256.44 143.834ZM30.7974 127.095L255.933 142.651L261.513 61.2366L36.3772 45.6809L30.7974 127.095Z" fill="#231F20"/>
<path d="M127.006 96.0679C143.021 96.0679 156.004 83.0851 156.004 67.0699C156.004 51.0548 143.021 38.072 127.006 38.072C110.991 38.072 98.0083 51.0548 98.0083 67.0699C98.0083 83.0851 110.991 96.0679 127.006 96.0679Z" fill="#AEAEAE"/>
<path d="M127.006 96.7442C110.69 96.7442 97.4166 83.4711 97.4166 67.1545C97.4166 50.8379 110.69 37.5648 127.006 37.5648C143.323 37.5648 156.596 50.8379 156.596 67.1545C156.512 83.4711 143.323 96.6597 127.006 96.7442ZM127.006 38.6639C111.282 38.6639 98.6002 51.4297 98.6002 67.07C98.6002 82.7948 111.366 95.4761 127.006 95.4761C142.731 95.4761 155.412 82.7103 155.412 67.07C155.412 51.4297 142.647 38.6639 127.006 38.6639Z" fill="#231F20"/>
<path d="M127.006 88.2055C115.339 88.2055 105.871 78.7368 105.871 67.07C105.871 55.4032 115.339 45.9344 127.006 45.9344C138.673 45.9344 148.142 55.4032 148.142 67.07C148.142 78.7368 138.673 88.2055 127.006 88.2055ZM127.006 47.118C116.016 47.118 107.054 56.0795 107.054 67.07C107.054 78.0604 116.016 87.0219 127.006 87.0219C137.997 87.0219 146.958 78.0604 146.958 67.07C146.874 56.0795 137.997 47.2026 127.006 47.118Z" fill="#484848"/>
<path d="M229.331 10.4135L202.786 117.497L278.606 136.292L305.151 29.2084L229.331 10.4135Z" fill="#AEAEAE"/>
<path d="M278.59 136.817C278.506 136.817 278.506 136.817 278.421 136.817L202.587 118.049C202.249 117.964 202.08 117.626 202.164 117.373L228.71 10.2578C228.71 10.0887 228.879 10.0042 228.964 9.91962C229.133 9.83508 229.218 9.83508 229.387 9.83508L305.221 28.6034C305.39 28.6034 305.475 28.7725 305.559 28.857C305.644 29.0261 305.644 29.1107 305.644 29.2798L279.182 136.395C279.182 136.648 278.928 136.817 278.59 136.817ZM203.517 117.034L278.252 135.549L304.46 29.6179L229.725 11.1032L203.517 117.034Z" fill="#231F20"/>
<path d="M276.446 22.043L249.901 129.127L268.282 133.683L294.827 26.5993L276.446 22.043Z" fill="#231F20"/>
<path d="M268.276 134.281C268.191 134.281 268.191 134.281 268.107 134.281L249.677 129.716C249.508 129.716 249.423 129.547 249.339 129.462C249.254 129.293 249.254 129.208 249.254 129.039L275.885 21.9246C275.969 21.5864 276.307 21.4173 276.561 21.5019L294.991 26.0672C295.329 26.1517 295.499 26.4899 295.414 26.7435L268.868 133.858C268.783 134.112 268.53 134.281 268.276 134.281ZM250.607 128.701L267.853 133.013L294.061 27.0817L276.815 22.77L250.607 128.701Z" fill="#231F20"/>
<path d="M249.846 48.3861C249.085 48.3861 248.324 48.3016 247.563 48.1325C242.491 46.8644 239.363 41.7073 240.631 36.6348C241.899 31.5623 247.056 28.4342 252.128 29.7024C257.201 30.9705 260.329 36.1275 259.061 41.2001C257.962 45.3426 254.157 48.3016 249.846 48.3861ZM249.846 30.5478C245.281 30.5478 241.561 34.2676 241.561 38.8329C241.561 43.3982 245.281 47.118 249.846 47.118C251.368 47.118 252.805 46.6953 254.073 45.9344C255.933 44.8354 257.286 42.9755 257.877 40.7774C258.976 36.2966 256.271 31.8159 251.79 30.7169C251.198 30.6323 250.522 30.5478 249.846 30.5478Z" fill="#231F20"/>
<path d="M246.718 60.983C245.957 60.983 245.196 60.8984 244.435 60.7293C239.363 59.4612 236.235 54.3041 237.503 49.2316C238.771 44.1591 243.928 41.031 249 42.2992C254.073 43.5673 257.201 48.7244 255.933 53.7969C254.834 57.9394 251.114 60.8984 246.718 60.983ZM246.718 43.1446C242.153 43.1446 238.433 46.8644 238.433 51.4297C238.433 55.995 242.153 59.7148 246.718 59.7148C248.24 59.7148 249.677 59.2921 250.945 58.5312C252.805 57.4322 254.158 55.5723 254.749 53.3742C255.848 48.8934 253.143 44.4127 248.662 43.3137C248.071 43.2291 247.394 43.1446 246.718 43.1446Z" fill="#231F20"/>
<path d="M221.352 0.5754L144.883 16.5503L167.445 124.55L243.914 108.575L221.352 0.5754Z" fill="#AEAEAE"/>
<path d="M167.502 125.15C167.417 125.15 167.248 125.15 167.164 125.066C166.995 124.981 166.91 124.812 166.91 124.728L144.337 16.7676C144.253 16.4294 144.506 16.1758 144.76 16.0912L221.271 0.112775C221.609 0.0282325 221.862 0.281859 221.947 0.535485L244.52 108.496C244.52 108.665 244.52 108.834 244.435 108.918C244.351 109.087 244.182 109.172 244.097 109.172L167.586 125.15H167.502ZM145.606 17.0212L167.925 123.882L243.252 108.158L220.932 1.29636L145.606 17.0212Z" fill="#231F20"/>
<path d="M210.981 2.72508L192.443 6.59778L215.005 114.597L233.543 110.725L210.981 2.72508Z" fill="#231F20"/>
<path d="M215.014 115.174C214.93 115.174 214.761 115.174 214.676 115.09C214.507 115.005 214.423 114.836 214.423 114.752L191.85 6.79156C191.85 6.62248 191.85 6.4534 191.935 6.36885C192.019 6.19977 192.188 6.11523 192.273 6.11523L210.787 2.2263C211.126 2.14176 211.379 2.39538 211.464 2.64901L234.036 110.609C234.121 110.947 233.867 111.201 233.614 111.286L215.099 115.174H215.014ZM193.118 7.04519L215.437 113.906L232.853 110.271L210.534 3.40988L193.118 7.04519Z" fill="#231F20"/>
<path d="M175.702 42.8064C170.461 42.8064 166.234 38.5793 166.234 33.3377C166.234 28.0961 170.461 23.869 175.702 23.869C180.183 23.869 184.072 26.9971 185.002 31.3933C186.017 36.5503 182.804 41.5383 177.647 42.5528C177.055 42.7219 176.379 42.7219 175.702 42.8064ZM175.702 24.9681C175.111 24.9681 174.603 25.0526 174.012 25.1371C169.531 26.0671 166.656 30.4633 167.586 34.944C168.516 39.4248 172.913 42.2992 177.393 41.3692C181.874 40.4393 184.748 36.0431 183.819 31.5623C183.058 27.758 179.676 25.0526 175.702 24.9681Z" fill="#231F20"/>
<path d="M178.408 55.4877C173.166 55.4877 168.939 51.2606 168.939 46.019C168.939 40.7774 173.166 36.5503 178.408 36.5503C182.889 36.5503 186.777 39.6784 187.707 44.0745C188.806 49.2316 185.509 54.2196 180.352 55.3186C179.676 55.4032 179.084 55.4877 178.408 55.4877ZM178.408 37.7339C173.843 37.7339 170.123 41.4537 170.123 46.019C170.123 50.5843 173.843 54.3041 178.408 54.3041C179 54.3041 179.591 54.2196 180.099 54.135C184.579 53.2051 187.454 48.8089 186.524 44.3282C185.763 40.4392 182.381 37.7339 178.408 37.7339Z" fill="#231F20"/>
<path d="M14.8189 63.4347H293.808C301.163 63.4347 307.165 69.4372 307.165 76.7923V196.335C307.165 203.69 301.163 209.692 293.808 209.692H14.8189C7.46378 209.692 1.4613 203.69 1.4613 196.335V76.7923C1.4613 69.4372 7.46378 63.4347 14.8189 63.4347Z" fill="#484848"/>
<path d="M288.482 210.284H20.1451C9.49279 210.284 0.869507 201.661 0.869507 191.009V82.1185C0.869507 71.4662 9.49279 62.8429 20.1451 62.8429H288.397C299.049 62.8429 307.673 71.4662 307.673 82.1185V191.009C307.673 201.661 299.049 210.284 288.482 210.284ZM20.1451 64.0265C10.1691 64.0265 2.05309 72.1425 2.05309 82.1185V191.009C2.05309 200.985 10.1691 209.101 20.1451 209.101H288.397C298.373 209.101 306.489 200.985 306.489 191.009V82.1185C306.489 72.1425 298.373 64.0265 288.397 64.0265H20.1451Z" fill="#231F20"/>
<path d="M277.153 72.6498H31.3892V200.393H277.153V72.6498Z" fill="#656565"/>
<path d="M15.4952 138.762C15.1571 138.762 14.9034 138.508 14.9034 138.17V128.109C14.9034 127.771 15.1571 127.518 15.4952 127.518C15.8334 127.518 16.087 127.771 16.087 128.109V138.17C16.087 138.508 15.8334 138.762 15.4952 138.762Z" fill="#231F20"/>
<path d="M15.4952 145.61C15.1571 145.61 14.9034 145.356 14.9034 145.018V141.636C14.9034 141.298 15.1571 141.044 15.4952 141.044C15.8334 141.044 16.087 141.298 16.087 141.636V145.018C16.087 145.271 15.8334 145.61 15.4952 145.61Z" fill="#231F20"/>
<path d="M263.88 121.261H311.646C313.675 121.261 315.281 122.868 315.281 124.897V148.23C315.281 150.259 313.675 151.866 311.646 151.866H263.88C261.851 151.866 260.245 150.259 260.245 148.23V124.897C260.245 122.868 261.851 121.261 263.88 121.261Z" fill="#AEAEAE"/>
<path d="M310.124 152.457H265.317C262.189 152.457 259.653 149.921 259.653 146.793V126.418C259.653 123.29 262.189 120.754 265.317 120.754H310.124C313.252 120.754 315.789 123.29 315.789 126.418V146.793C315.873 149.921 313.337 152.457 310.124 152.457ZM265.317 121.853C262.865 121.853 260.836 123.882 260.836 126.334V146.709C260.836 149.16 262.865 151.189 265.317 151.189H310.124C312.576 151.189 314.605 149.16 314.605 146.709V126.249C314.605 123.798 312.576 121.769 310.124 121.769L265.317 121.853Z" fill="#231F20"/>
<path d="M299.218 144.426C303.561 144.426 307.081 140.906 307.081 136.564C307.081 132.221 303.561 128.701 299.218 128.701C294.876 128.701 291.356 132.221 291.356 136.564C291.356 140.906 294.876 144.426 299.218 144.426Z" fill="#231F20"/>
<path d="M299.218 145.018C294.569 145.018 290.764 141.213 290.764 136.564C290.764 131.914 294.569 128.109 299.218 128.109C303.868 128.109 307.673 131.914 307.673 136.564C307.673 141.213 303.868 145.018 299.218 145.018ZM299.218 129.208C295.16 129.208 291.948 132.506 291.948 136.479C291.948 140.453 295.245 143.75 299.218 143.75C303.192 143.75 306.489 140.453 306.489 136.479C306.574 132.506 303.276 129.293 299.218 129.208Z" fill="#231F20"/>
<path d="M187.285 168.774C186.947 168.774 186.693 168.52 186.693 168.182C186.693 168.013 186.778 167.929 186.862 167.76L259.822 87.8673C260.075 87.6137 260.414 87.6137 260.667 87.8673C260.921 88.121 260.921 88.4591 260.667 88.7128L187.792 168.52C187.623 168.605 187.454 168.69 187.285 168.774Z" fill="#484848"/>
<path d="M107.139 177.313C106.97 177.313 106.801 177.228 106.716 177.144C106.462 176.89 106.462 176.552 106.716 176.298L146.366 137.747C146.62 137.493 146.958 137.493 147.212 137.747C147.465 138.001 147.465 138.339 147.212 138.593L107.477 177.144C107.477 177.228 107.308 177.313 107.139 177.313Z" fill="#484848"/>
<path d="M86.8488 137.155C86.6797 137.155 86.5106 137.071 86.4261 136.986C86.1724 136.733 86.257 136.395 86.4261 136.141L136.137 90.9955C136.306 90.7418 136.729 90.6573 136.982 90.8264C137.236 90.9955 137.32 91.4182 137.151 91.6718C137.067 91.7563 137.067 91.7563 136.982 91.8409L87.2715 137.071C87.1869 137.071 87.0179 137.155 86.8488 137.155Z" fill="#484848"/>
</svg>
